G04 Layer: TopLayer*
G04 EasyEDA v6.1.52, Wed, 14 Aug 2019 16:00:45 GMT*
G04 61fb33ea13684dee95186c9376e4e459,bc0df6a87cf9400f99ff9c89e133bbb9,10*
G04 Gerber Generator version 0.2*
G04 Scale: 100 percent, Rotated: No, Reflected: No *
G04 Dimensions in millimeters *
G04 leading zeros omitted , absolute positions ,3 integer and 3 decimal *
%FSLAX33Y33*%
%MOMM*%
G90*
G71D02*

%ADD11C,0.799998*%
%ADD12C,1.199998*%
%ADD14C,2.499995*%
%ADD15C,1.199896*%
%ADD17C,1.999996*%
%ADD18C,0.999998*%
%ADD19C,1.524000*%
%ADD20C,1.879600*%
%ADD21C,2.799994*%
%ADD22R,1.778000X1.778000*%
%ADD23C,1.778000*%
%ADD25R,1.397000X1.397000*%
%ADD26C,1.397000*%
%ADD27C,1.193800*%
%ADD28C,1.499997*%

%LPD*%
G54D11*
G01X197449Y19631D02*
G01X177840Y19631D01*
G01X177800Y19672D01*
G01X124460Y17780D02*
G01X115404Y17780D01*
G01X115051Y18133D01*
G01X177800Y19672D02*
G01X164226Y19672D01*
G01X162560Y18006D01*
G01X162560Y17780D01*
G01X139700Y17780D02*
G01X139700Y19672D01*
G01X139700Y19672D02*
G01X153537Y19672D01*
G01X160969Y27101D01*
G01X24729Y15847D02*
G01X37020Y15847D01*
G01X37274Y16101D01*
G01X41084Y16101D01*
G01X41338Y15847D01*
G01X46319Y15847D01*
G01X197421Y87774D02*
G01X197421Y88201D01*
G01X198701Y89479D01*
G01X202620Y89479D01*
G01X204470Y87630D01*
G01X194310Y87630D02*
G01X194454Y87774D01*
G01X197421Y87774D01*
G01X87477Y17932D02*
G01X87630Y17780D01*
G01X61559Y19631D02*
G01X85778Y19631D01*
G01X87477Y17932D01*
G01X87477Y17932D02*
G01X89166Y19621D01*
G01X96621Y19621D01*
G01X64241Y95724D02*
G01X26873Y95724D01*
G01X20121Y102476D01*
G01X12065Y103083D02*
G01X12672Y102476D01*
G01X20121Y102476D01*
G01X22174Y102476D02*
G01X20121Y102476D01*
G01X4445Y103083D02*
G01X12065Y103083D01*
G01X64241Y95724D02*
G01X64241Y96626D01*
G01X64241Y94825D02*
G01X64241Y95724D01*
G01X86037Y118328D02*
G01X64335Y96626D01*
G01X64241Y96626D01*
G01X86037Y118328D02*
G01X86753Y117612D01*
G01X86995Y117612D01*
G01X139700Y119380D02*
G01X138394Y120685D01*
G01X86715Y120685D01*
G01X85730Y119700D01*
G01X85730Y118635D01*
G01X86037Y118328D01*
G01X139700Y119380D02*
G01X144780Y119380D01*
G01X154940Y119380D02*
G01X185420Y119380D01*
G01X187960Y116840D01*
G01X149860Y119380D02*
G01X154940Y119380D01*
G01X184150Y87630D02*
G01X181610Y90170D01*
G01X161290Y90170D01*
G01X177800Y17780D02*
G01X177800Y19672D01*
G01X197449Y17739D02*
G01X197449Y19631D01*
G01X212689Y17739D02*
G01X212689Y19631D01*
G01X212689Y19631D02*
G01X197449Y19631D01*
G01X61559Y17739D02*
G01X61559Y19631D01*
G01X46319Y17739D02*
G01X46319Y15847D01*
G01X24729Y17739D02*
G01X24729Y15847D01*
G01X94615Y117612D02*
G01X86995Y117612D01*
G01X144780Y119380D02*
G01X149860Y119380D01*
G01X203931Y62364D02*
G01X206329Y62364D01*
G01X208053Y60637D01*
G01X209880Y60637D01*
G01X210929Y61686D01*
G01X210929Y62989D01*
G01X206722Y67195D01*
G01X184391Y67195D01*
G01X176832Y59636D01*
G01X174124Y59636D01*
G01X201383Y24744D02*
G01X185384Y24744D01*
G01X180751Y54780D02*
G01X180360Y54389D01*
G01X173179Y54389D01*
G01X184419Y54780D02*
G01X180751Y54780D01*
G01X56339Y54389D02*
G01X56339Y58770D01*
G01X54155Y60957D01*
G01X65206Y13479D02*
G01X64419Y12692D01*
G01X64419Y12377D01*
G01X98249Y54389D02*
G01X106250Y54389D01*
G01X106512Y54650D01*
G01X181610Y39370D02*
G01X180210Y37967D01*
G01X144912Y37967D01*
G01X143510Y39370D01*
G01X180340Y10160D02*
G01X180340Y12052D01*
G01X170180Y17780D02*
G01X170180Y15887D01*
G01X170180Y15887D02*
G01X172514Y13553D01*
G01X178838Y13553D01*
G01X180340Y12052D01*
G01X105410Y39370D02*
G01X106941Y37838D01*
G01X141978Y37838D01*
G01X143510Y39370D01*
G01X65206Y13479D02*
G01X56309Y13479D01*
G01X53939Y15847D01*
G01X27269Y11912D02*
G01X50004Y11912D01*
G01X53939Y15847D01*
G01X27269Y11912D02*
G01X27269Y12011D01*
G01X27269Y11686D02*
G01X27269Y11912D01*
G01X27269Y10119D02*
G01X27269Y11686D01*
G01X65206Y13479D02*
G01X66636Y12052D01*
G01X105410Y12052D01*
G01X206799Y54350D02*
G01X212067Y54350D01*
G01X216090Y50327D01*
G01X28539Y39329D02*
G01X30043Y37828D01*
G01X63868Y37828D01*
G01X65369Y39329D01*
G01X28539Y39329D02*
G01X28539Y48460D01*
G01X22649Y54350D01*
G01X66070Y108544D02*
G01X73243Y108544D01*
G01X75445Y110744D01*
G01X52654Y110096D02*
G01X54206Y108544D01*
G01X66070Y108544D01*
G01X52654Y110096D02*
G01X22174Y110096D01*
G01X186690Y81280D02*
G01X181610Y81280D01*
G01X199390Y81280D02*
G01X197627Y83042D01*
G01X188452Y83042D01*
G01X186690Y81280D01*
G01X132080Y15986D02*
G01X127736Y15986D01*
G01X126535Y14785D01*
G01X96352Y14785D01*
G01X95250Y15887D01*
G01X132080Y16212D02*
G01X132080Y15986D01*
G01X95250Y17780D02*
G01X95250Y15887D01*
G01X132080Y15887D02*
G01X132080Y14927D01*
G01X129204Y12052D01*
G01X105410Y12052D01*
G01X142240Y12052D02*
G01X136014Y12052D01*
G01X132080Y15986D01*
G01X142240Y10160D02*
G01X142240Y12052D01*
G01X132080Y15986D02*
G01X132080Y15887D01*
G01X132080Y17780D02*
G01X132080Y16212D01*
G01X53939Y17739D02*
G01X53939Y15847D01*
G01X105410Y10160D02*
G01X105410Y12052D01*
G01X17109Y17739D02*
G01X17109Y15847D01*
G01X27269Y12011D02*
G01X20944Y12011D01*
G01X17109Y15847D01*
G01X94615Y119113D02*
G01X86995Y119113D01*
G01X114300Y116840D02*
G01X112026Y119113D01*
G01X94615Y119113D01*
G01X114300Y116840D02*
G01X119380Y116840D01*
G01X149860Y116840D02*
G01X154940Y116840D01*
G01X144780Y116840D02*
G01X149860Y116840D01*
G01X139700Y116840D02*
G01X144780Y116840D01*
G01X134620Y116840D02*
G01X139700Y116840D01*
G01X129540Y116840D02*
G01X134620Y116840D01*
G01X124460Y116840D02*
G01X129540Y116840D01*
G01X119380Y116840D02*
G01X124460Y116840D01*
G01X67602Y66159D02*
G01X87282Y66159D01*
G01X87955Y65486D01*
G01X27520Y51645D02*
G01X44978Y51645D01*
G01X91450Y54991D02*
G01X95158Y58696D01*
G01X104310Y58696D01*
G01X108016Y54991D01*
G01X124470Y54991D01*
G01X143510Y31750D02*
G01X142110Y30347D01*
G01X106812Y30347D01*
G01X105410Y31750D01*
G01X199999Y54950D02*
G01X199999Y54442D01*
G01X208871Y45570D01*
G01X213921Y45570D01*
G01X219003Y40487D01*
G01X219003Y34213D01*
G01X216499Y31709D01*
G01X183090Y34333D02*
G01X181988Y33230D01*
G01X181610Y33230D01*
G01X166380Y54991D02*
G01X166380Y54361D01*
G01X179590Y41150D01*
G01X181813Y41150D01*
G01X183090Y39870D01*
G01X183090Y34333D01*
G01X183090Y34333D02*
G01X213878Y34333D01*
G01X216499Y31709D01*
G01X32331Y57429D02*
G01X34770Y54991D01*
G01X49540Y54991D01*
G01X15849Y54950D02*
G01X20769Y59867D01*
G01X29890Y59867D01*
G01X32331Y57429D01*
G01X181610Y33230D02*
G01X144990Y33230D01*
G01X143510Y31750D01*
G01X105410Y31750D02*
G01X104010Y30347D01*
G01X66730Y30347D01*
G01X65369Y31709D01*
G01X181610Y31750D02*
G01X181610Y33230D01*
G01X65369Y31709D02*
G01X63969Y30309D01*
G01X29941Y30309D01*
G01X28539Y31709D01*
G01X129540Y119380D02*
G01X134620Y119380D01*
G01X124460Y119380D02*
G01X129540Y119380D01*
G01X119380Y119380D02*
G01X124460Y119380D01*
G01X114300Y119380D02*
G01X119380Y119380D01*
G01X127769Y53588D02*
G01X125765Y51584D01*
G01X96753Y51584D01*
G01X94749Y53588D01*
G01X19149Y53550D02*
G01X19149Y54102D01*
G01X23815Y58765D01*
G01X26337Y58765D01*
G01X31864Y53238D01*
G01X40114Y53238D01*
G01X52839Y53588D02*
G01X52489Y53238D01*
G01X40114Y53238D01*
G01X89494Y104373D02*
G01X131853Y104373D01*
G01X203608Y47787D02*
G01X207081Y44315D01*
G01X213616Y44315D01*
G01X217901Y40030D01*
G01X217901Y38674D01*
G01X217007Y37779D01*
G01X187380Y37779D01*
G01X171571Y53588D01*
G01X169679Y53588D01*
G01X73025Y118364D02*
G01X73776Y117612D01*
G01X79375Y117612D01*
G01X209364Y22354D02*
G01X185577Y22354D01*
G01X183741Y24190D01*
G01X175260Y22781D02*
G01X176669Y24190D01*
G01X183741Y24190D01*
G01X100330Y19672D02*
G01X99077Y20924D01*
G01X60411Y20924D01*
G01X59019Y19532D01*
G01X210149Y17739D02*
G01X210149Y15847D01*
G01X137160Y20789D02*
G01X145623Y20789D01*
G01X146644Y21810D01*
G01X100330Y19672D02*
G01X101447Y20789D01*
G01X137160Y20789D01*
G01X137160Y20789D02*
G01X137160Y19672D01*
G01X155978Y6804D02*
G01X185234Y6804D01*
G01X192646Y14216D01*
G01X207815Y14216D01*
G01X209445Y15847D01*
G01X210149Y15847D01*
G01X137160Y17780D02*
G01X137160Y19672D01*
G01X100330Y17780D02*
G01X100330Y19672D01*
G01X59019Y19532D02*
G01X59019Y19631D01*
G01X59019Y19306D02*
G01X59019Y19532D01*
G01X59019Y17739D02*
G01X59019Y19306D01*
G01X22189Y17739D02*
G01X22189Y19631D01*
G01X22189Y19631D02*
G01X59019Y19631D01*
G01X97790Y15887D02*
G01X110964Y15887D01*
G01X114762Y19687D01*
G01X134279Y19687D01*
G01X134620Y19347D01*
G01X56479Y15847D02*
G01X70017Y15847D01*
G01X19649Y17739D02*
G01X19649Y15847D01*
G01X19649Y15847D02*
G01X21617Y13881D01*
G01X33703Y13881D01*
G01X181693Y15847D02*
G01X172760Y15847D01*
G01X172720Y15887D01*
G01X207609Y15847D02*
G01X181693Y15847D01*
G01X134620Y15887D02*
G01X143256Y15887D01*
G01X150827Y8315D01*
G01X181221Y8315D01*
G01X181693Y8785D01*
G01X181693Y15847D01*
G01X172720Y17780D02*
G01X172720Y15887D01*
G01X207609Y17739D02*
G01X207609Y15847D01*
G01X134620Y17780D02*
G01X134620Y15887D01*
G01X134620Y18399D02*
G01X134620Y17780D01*
G01X134620Y18399D02*
G01X134620Y19347D01*
G01X56479Y17739D02*
G01X56479Y15847D01*
G01X97790Y17780D02*
G01X97790Y15887D01*
G01X211419Y31709D02*
G01X218897Y24234D01*
G01X218897Y15491D01*
G01X215318Y11912D01*
G01X211792Y11912D01*
G01X210149Y10269D01*
G01X210149Y10119D01*
G01X133350Y39370D02*
G01X133047Y39672D01*
G01X133047Y54465D01*
G01X133769Y55189D01*
G01X133769Y56989D02*
G01X133769Y55189D01*
G01X138430Y39370D02*
G01X138430Y60083D01*
G01X133723Y64790D01*
G01X131170Y64790D01*
G01X133570Y62390D02*
G01X133863Y62390D01*
G01X136578Y59672D01*
G01X136578Y40058D01*
G01X135890Y39370D01*
G01X132158Y29029D02*
G01X162768Y29029D01*
G01X163118Y29380D01*
G01X127000Y17780D02*
G01X127000Y17449D01*
G01X125536Y15986D01*
G01X118584Y15986D01*
G01X118435Y16136D01*
G01X50129Y39329D02*
G01X54589Y43789D01*
G01X54589Y54538D01*
G01X47739Y61389D01*
G01X64803Y22275D02*
G01X64869Y22209D01*
G01X102054Y22209D01*
G01X48859Y15847D02*
G01X47688Y14676D01*
G01X39192Y14676D01*
G01X45049Y31709D02*
G01X39436Y31709D01*
G01X48859Y17739D02*
G01X48859Y15847D01*
G01X94851Y65488D02*
G01X100368Y59971D01*
G01X107530Y59971D01*
G01X106680Y27767D02*
G01X99232Y27767D01*
G01X8219Y31709D02*
G01X8219Y30210D01*
G01X8219Y30210D02*
G01X12029Y26400D01*
G01X12029Y17739D01*
G01X205894Y59641D02*
G01X206001Y59535D01*
G01X217187Y59535D01*
G01X4445Y98084D02*
G01X12065Y98084D01*
G01X100330Y100330D02*
G01X88539Y100330D01*
G01X86995Y101874D01*
G01X198719Y31709D02*
G01X193532Y26522D01*
G01X188749Y26522D01*
G01X201259Y31709D02*
G01X209313Y23657D01*
G01X212016Y23657D01*
G01X216578Y19093D01*
G01X216578Y16344D01*
G01X214398Y14165D01*
G01X209875Y14165D01*
G01X208823Y13114D01*
G01X201091Y13114D01*
G01X199989Y12011D01*
G01X199989Y10119D02*
G01X199989Y12011D01*
G01X206339Y31709D02*
G01X217716Y20332D01*
G01X217716Y15900D01*
G01X214881Y13063D01*
G01X210332Y13063D01*
G01X209280Y12011D01*
G01X205069Y12011D01*
G01X205069Y10119D02*
G01X205069Y12011D01*
G01X198099Y57950D02*
G01X198099Y45029D01*
G01X203799Y39329D01*
G01X198201Y61348D02*
G01X196347Y59496D01*
G01X196347Y44241D01*
G01X201259Y39329D01*
G01X205003Y52461D02*
G01X205003Y58691D01*
G01X200101Y63593D01*
G01X200101Y64150D01*
G01X203400Y65450D02*
G01X202986Y65862D01*
G01X199270Y65862D01*
G01X195211Y61803D01*
G01X195211Y40297D01*
G01X196179Y39329D01*
G01X130810Y39370D02*
G01X129567Y40612D01*
G01X129567Y54371D01*
G01X125950Y57990D01*
G01X122570Y57990D01*
G01X134500Y49298D02*
G01X135475Y50276D01*
G01X135475Y58285D01*
G01X134736Y59024D01*
G01X133543Y59024D01*
G01X133370Y59199D01*
G01X124861Y59199D01*
G01X122669Y61389D01*
G01X119407Y62605D02*
G01X120990Y64190D01*
G01X124569Y64190D01*
G01X125730Y39370D02*
G01X118793Y46306D01*
G01X118704Y46306D01*
G01X119029Y68178D02*
G01X125181Y68178D01*
G01X127871Y65488D01*
G01X123190Y39370D02*
G01X117861Y44698D01*
G01X114386Y44698D01*
G01X55209Y39329D02*
G01X58839Y42959D01*
G01X58839Y56989D01*
G01X60289Y39329D02*
G01X61671Y40711D01*
G01X61671Y61884D01*
G01X58765Y64790D01*
G01X56240Y64790D01*
G01X57749Y39329D02*
G01X60543Y42123D01*
G01X60543Y60487D01*
G01X58640Y62390D01*
G01X164480Y57990D02*
G01X164480Y43799D01*
G01X168910Y39370D01*
G01X164579Y61389D02*
G01X162778Y59588D01*
G01X162778Y42961D01*
G01X166370Y39370D01*
G01X163830Y39370D02*
G01X161607Y41592D01*
G01X161607Y60944D01*
G01X164851Y64190D01*
G01X166479Y64190D01*
G01X161290Y39370D02*
G01X160461Y40198D01*
G01X160461Y61495D01*
G01X164858Y65892D01*
G01X169377Y65892D01*
G01X169781Y65488D01*
G01X172720Y10160D02*
G01X172720Y12052D01*
G01X172720Y12052D02*
G01X165445Y12052D01*
G01X161251Y16245D01*
G01X161251Y19161D01*
G01X173840Y31750D01*
G01X173990Y31750D01*
G01X89550Y57990D02*
G01X89550Y42529D01*
G01X92710Y39370D01*
G01X89649Y61389D02*
G01X87823Y59563D01*
G01X87823Y41716D01*
G01X90170Y39370D01*
G01X87630Y39370D02*
G01X86659Y40340D01*
G01X86659Y60967D01*
G01X89882Y64190D01*
G01X91549Y64190D01*
G01X87630Y31750D02*
G01X90159Y34279D01*
G01X108188Y34279D01*
G01X109067Y33401D01*
G01X107929Y32235D02*
G01X106987Y33177D01*
G01X94137Y33177D01*
G01X92710Y31750D01*
G01X15839Y39329D02*
G01X13949Y41219D01*
G01X13949Y57950D01*
G01X13299Y39329D02*
G01X12207Y40424D01*
G01X12207Y59507D01*
G01X14051Y61348D01*
G01X189230Y87630D02*
G01X200660Y99060D01*
G01X200660Y101600D01*
G01X161290Y95250D02*
G01X176380Y110340D01*
G01X189080Y110340D01*
G01X195580Y116840D01*
G01X215229Y17739D02*
G01X215229Y18768D01*
G01X212943Y21051D01*
G01X169219Y21051D01*
G01X128993Y13682D02*
G01X94914Y13682D01*
G01X92710Y15887D01*
G01X92710Y17780D02*
G01X92710Y15887D01*
G01X14569Y19631D02*
G01X16728Y21790D01*
G01X59306Y21790D01*
G01X14569Y17739D02*
G01X14569Y19631D01*
G01X166370Y31750D02*
G01X166370Y30662D01*
G01X160149Y24442D01*
G01X160149Y15788D01*
G01X165100Y10838D01*
G01X165100Y10160D01*
G01X97995Y56692D02*
G01X96547Y55242D01*
G01X96547Y53644D01*
G01X97505Y52687D01*
G01X119148Y52687D01*
G01X120096Y53637D01*
G01X127914Y61442D02*
G01X129029Y60327D01*
G01X134084Y60327D01*
G01X124449Y66324D02*
G01X119296Y66324D01*
G36*
G01X53902Y101227D02*
G01X51402Y101227D01*
G01X51402Y103727D01*
G01X53902Y103727D01*
G01X53902Y101227D01*
G37*
G36*
G01X23422Y101227D02*
G01X20922Y101227D01*
G01X20922Y103727D01*
G01X23422Y103727D01*
G01X23422Y101227D01*
G37*
G54D14*
G01X52652Y110097D03*
G01X22172Y110097D03*
G54D15*
G01X12065Y103083D03*
G01X12065Y98084D03*
G01X4445Y103083D03*
G01X4445Y98084D03*
G36*
G01X65240Y95825D02*
G01X65240Y93825D01*
G01X63240Y93825D01*
G01X63240Y95825D01*
G01X65240Y95825D01*
G37*
G54D17*
G01X67839Y93134D03*
G01X64240Y91440D03*
G01X67839Y89745D03*
G01X64240Y88054D03*
G54D18*
G01X86995Y119114D03*
G01X86995Y117613D03*
G01X79375Y119114D03*
G01X79375Y117613D03*
G54D19*
G01X86995Y101874D03*
G01X84495Y104373D03*
G01X89495Y104373D03*
G54D20*
G01X100330Y100330D03*
G01X100330Y107950D03*
G01X62865Y118364D03*
G01X73025Y118364D03*
G54D21*
G01X75445Y110744D03*
G01X60444Y110744D03*
G54D22*
G01X180340Y101600D03*
G54D23*
G01X182880Y101600D03*
G01X185420Y101600D03*
G01X187960Y101600D03*
G01X190500Y101600D03*
G01X193040Y101600D03*
G01X195580Y101600D03*
G01X198120Y101600D03*
G01X200660Y101600D03*
G01X203200Y101600D03*
G01X205740Y101600D03*
G01X208280Y101600D03*
G01X210820Y101600D03*
G01X213360Y101600D03*
G01X215900Y101600D03*
G01X180340Y116840D03*
G01X182880Y116840D03*
G01X185420Y116840D03*
G01X187960Y116840D03*
G01X190500Y116840D03*
G01X193040Y116840D03*
G01X195580Y116840D03*
G01X198120Y116840D03*
G01X200660Y116840D03*
G01X203200Y116840D03*
G01X205740Y116840D03*
G01X208280Y116840D03*
G01X210820Y116840D03*
G01X213360Y116840D03*
G01X215900Y116840D03*
G54D17*
G01X161290Y95250D03*
G01X161290Y92710D03*
G01X161290Y90170D03*
G01X161290Y87630D03*
G54D20*
G01X181610Y81280D03*
G01X173990Y81280D03*
G01X194310Y81280D03*
G01X186690Y81280D03*
G01X207010Y81280D03*
G01X199390Y81280D03*
G01X212090Y81280D03*
G01X219710Y81280D03*
G54D17*
G01X179070Y87630D03*
G01X184150Y87630D03*
G01X199390Y87630D03*
G01X204470Y87630D03*
G01X189230Y87630D03*
G01X194310Y87630D03*
G01X209550Y87630D03*
G01X214630Y87630D03*
G36*
G01X196844Y9029D02*
G01X196844Y11210D01*
G01X198055Y11210D01*
G01X198055Y9029D01*
G01X196844Y9029D01*
G37*
G36*
G01X199384Y9029D02*
G01X199384Y11210D01*
G01X200595Y11210D01*
G01X200595Y9029D01*
G01X199384Y9029D01*
G37*
G36*
G01X201924Y9029D02*
G01X201924Y11210D01*
G01X203135Y11210D01*
G01X203135Y9029D01*
G01X201924Y9029D01*
G37*
G36*
G01X204464Y9029D02*
G01X204464Y11210D01*
G01X205675Y11210D01*
G01X205675Y9029D01*
G01X204464Y9029D01*
G37*
G36*
G01X207004Y9029D02*
G01X207004Y11210D01*
G01X208215Y11210D01*
G01X208215Y9029D01*
G01X207004Y9029D01*
G37*
G36*
G01X209544Y9029D02*
G01X209544Y11210D01*
G01X210755Y11210D01*
G01X210755Y9029D01*
G01X209544Y9029D01*
G37*
G36*
G01X212084Y9029D02*
G01X212084Y11210D01*
G01X213295Y11210D01*
G01X213295Y9029D01*
G01X212084Y9029D01*
G37*
G36*
G01X214624Y9029D02*
G01X214624Y11210D01*
G01X215835Y11210D01*
G01X215835Y9029D01*
G01X214624Y9029D01*
G37*
G36*
G01X214624Y16649D02*
G01X214624Y18830D01*
G01X215835Y18830D01*
G01X215835Y16649D01*
G01X214624Y16649D01*
G37*
G36*
G01X212084Y16649D02*
G01X212084Y18830D01*
G01X213295Y18830D01*
G01X213295Y16649D01*
G01X212084Y16649D01*
G37*
G36*
G01X209544Y16649D02*
G01X209544Y18830D01*
G01X210755Y18830D01*
G01X210755Y16649D01*
G01X209544Y16649D01*
G37*
G36*
G01X207004Y16649D02*
G01X207004Y18830D01*
G01X208215Y18830D01*
G01X208215Y16649D01*
G01X207004Y16649D01*
G37*
G36*
G01X204464Y16649D02*
G01X204464Y18830D01*
G01X205675Y18830D01*
G01X205675Y16649D01*
G01X204464Y16649D01*
G37*
G36*
G01X201924Y16649D02*
G01X201924Y18830D01*
G01X203135Y18830D01*
G01X203135Y16649D01*
G01X201924Y16649D01*
G37*
G36*
G01X199384Y16649D02*
G01X199384Y18830D01*
G01X200595Y18830D01*
G01X200595Y16649D01*
G01X199384Y16649D01*
G37*
G36*
G01X196844Y16649D02*
G01X196844Y18830D01*
G01X198055Y18830D01*
G01X198055Y16649D01*
G01X196844Y16649D01*
G37*
G54D25*
G01X196179Y31709D03*
G54D26*
G01X198719Y31709D03*
G01X201259Y31709D03*
G01X203799Y31709D03*
G01X206339Y31709D03*
G01X208879Y31709D03*
G01X211419Y31709D03*
G01X213959Y31709D03*
G01X216499Y31709D03*
G01X216499Y39329D03*
G01X213959Y39329D03*
G01X211419Y39329D03*
G01X208879Y39329D03*
G01X206339Y39329D03*
G01X203799Y39329D03*
G01X201259Y39329D03*
G01X198719Y39329D03*
G01X196179Y39329D03*
G36*
G01X134770Y55990D02*
G01X132770Y55990D01*
G01X132770Y57990D01*
G01X134770Y57990D01*
G01X134770Y55990D01*
G37*
G54D17*
G01X131269Y54390D03*
G01X127769Y53589D03*
G01X124469Y54989D03*
G01X122570Y57989D03*
G01X122670Y61390D03*
G01X124569Y64190D03*
G01X127869Y65490D03*
G01X131170Y64789D03*
G01X133569Y62390D03*
G36*
G01X123854Y9069D02*
G01X123854Y11250D01*
G01X125065Y11250D01*
G01X125065Y9069D01*
G01X123854Y9069D01*
G37*
G36*
G01X126394Y9069D02*
G01X126394Y11250D01*
G01X127605Y11250D01*
G01X127605Y9069D01*
G01X126394Y9069D01*
G37*
G36*
G01X128934Y9069D02*
G01X128934Y11250D01*
G01X130145Y11250D01*
G01X130145Y9069D01*
G01X128934Y9069D01*
G37*
G36*
G01X131474Y9069D02*
G01X131474Y11250D01*
G01X132685Y11250D01*
G01X132685Y9069D01*
G01X131474Y9069D01*
G37*
G36*
G01X134014Y9069D02*
G01X134014Y11250D01*
G01X135225Y11250D01*
G01X135225Y9069D01*
G01X134014Y9069D01*
G37*
G36*
G01X136554Y9069D02*
G01X136554Y11250D01*
G01X137765Y11250D01*
G01X137765Y9069D01*
G01X136554Y9069D01*
G37*
G36*
G01X139094Y9069D02*
G01X139094Y11250D01*
G01X140305Y11250D01*
G01X140305Y9069D01*
G01X139094Y9069D01*
G37*
G36*
G01X141634Y9069D02*
G01X141634Y11250D01*
G01X142845Y11250D01*
G01X142845Y9069D01*
G01X141634Y9069D01*
G37*
G36*
G01X141634Y16689D02*
G01X141634Y18870D01*
G01X142845Y18870D01*
G01X142845Y16689D01*
G01X141634Y16689D01*
G37*
G36*
G01X139094Y16689D02*
G01X139094Y18870D01*
G01X140305Y18870D01*
G01X140305Y16689D01*
G01X139094Y16689D01*
G37*
G36*
G01X136554Y16689D02*
G01X136554Y18870D01*
G01X137765Y18870D01*
G01X137765Y16689D01*
G01X136554Y16689D01*
G37*
G36*
G01X134014Y16689D02*
G01X134014Y18870D01*
G01X135225Y18870D01*
G01X135225Y16689D01*
G01X134014Y16689D01*
G37*
G36*
G01X131474Y16689D02*
G01X131474Y18870D01*
G01X132685Y18870D01*
G01X132685Y16689D01*
G01X131474Y16689D01*
G37*
G36*
G01X128934Y16689D02*
G01X128934Y18870D01*
G01X130145Y18870D01*
G01X130145Y16689D01*
G01X128934Y16689D01*
G37*
G36*
G01X126394Y16689D02*
G01X126394Y18870D01*
G01X127605Y18870D01*
G01X127605Y16689D01*
G01X126394Y16689D01*
G37*
G36*
G01X123854Y16689D02*
G01X123854Y18870D01*
G01X125065Y18870D01*
G01X125065Y16689D01*
G01X123854Y16689D01*
G37*
G54D25*
G01X123190Y31750D03*
G54D26*
G01X125730Y31750D03*
G01X128270Y31750D03*
G01X130810Y31750D03*
G01X133350Y31750D03*
G01X135890Y31750D03*
G01X138430Y31750D03*
G01X140970Y31750D03*
G01X143510Y31750D03*
G01X143510Y39370D03*
G01X140970Y39370D03*
G01X138430Y39370D03*
G01X135890Y39370D03*
G01X133350Y39370D03*
G01X130810Y39370D03*
G01X128270Y39370D03*
G01X125730Y39370D03*
G01X123190Y39370D03*
G36*
G01X59840Y55990D02*
G01X57840Y55990D01*
G01X57840Y57990D01*
G01X59840Y57990D01*
G01X59840Y55990D01*
G37*
G54D17*
G01X56339Y54390D03*
G01X52839Y53589D03*
G01X49539Y54989D03*
G01X47640Y57989D03*
G01X47740Y61390D03*
G01X49639Y64190D03*
G01X52939Y65490D03*
G01X56240Y64789D03*
G01X58639Y62390D03*
G36*
G01X45714Y9029D02*
G01X45714Y11210D01*
G01X46925Y11210D01*
G01X46925Y9029D01*
G01X45714Y9029D01*
G37*
G36*
G01X48254Y9029D02*
G01X48254Y11210D01*
G01X49465Y11210D01*
G01X49465Y9029D01*
G01X48254Y9029D01*
G37*
G36*
G01X50794Y9029D02*
G01X50794Y11210D01*
G01X52005Y11210D01*
G01X52005Y9029D01*
G01X50794Y9029D01*
G37*
G36*
G01X53334Y9029D02*
G01X53334Y11210D01*
G01X54545Y11210D01*
G01X54545Y9029D01*
G01X53334Y9029D01*
G37*
G36*
G01X55874Y9029D02*
G01X55874Y11210D01*
G01X57085Y11210D01*
G01X57085Y9029D01*
G01X55874Y9029D01*
G37*
G36*
G01X58414Y9029D02*
G01X58414Y11210D01*
G01X59625Y11210D01*
G01X59625Y9029D01*
G01X58414Y9029D01*
G37*
G36*
G01X60954Y9029D02*
G01X60954Y11210D01*
G01X62165Y11210D01*
G01X62165Y9029D01*
G01X60954Y9029D01*
G37*
G36*
G01X63494Y9029D02*
G01X63494Y11210D01*
G01X64705Y11210D01*
G01X64705Y9029D01*
G01X63494Y9029D01*
G37*
G36*
G01X63494Y16649D02*
G01X63494Y18830D01*
G01X64705Y18830D01*
G01X64705Y16649D01*
G01X63494Y16649D01*
G37*
G36*
G01X60954Y16649D02*
G01X60954Y18830D01*
G01X62165Y18830D01*
G01X62165Y16649D01*
G01X60954Y16649D01*
G37*
G36*
G01X58414Y16649D02*
G01X58414Y18830D01*
G01X59625Y18830D01*
G01X59625Y16649D01*
G01X58414Y16649D01*
G37*
G36*
G01X55874Y16649D02*
G01X55874Y18830D01*
G01X57085Y18830D01*
G01X57085Y16649D01*
G01X55874Y16649D01*
G37*
G36*
G01X53334Y16649D02*
G01X53334Y18830D01*
G01X54545Y18830D01*
G01X54545Y16649D01*
G01X53334Y16649D01*
G37*
G36*
G01X50794Y16649D02*
G01X50794Y18830D01*
G01X52005Y18830D01*
G01X52005Y16649D01*
G01X50794Y16649D01*
G37*
G36*
G01X48254Y16649D02*
G01X48254Y18830D01*
G01X49465Y18830D01*
G01X49465Y16649D01*
G01X48254Y16649D01*
G37*
G36*
G01X45714Y16649D02*
G01X45714Y18830D01*
G01X46925Y18830D01*
G01X46925Y16649D01*
G01X45714Y16649D01*
G37*
G54D25*
G01X45049Y31709D03*
G54D26*
G01X47589Y31709D03*
G01X50129Y31709D03*
G01X52669Y31709D03*
G01X55209Y31709D03*
G01X57749Y31709D03*
G01X60289Y31709D03*
G01X62829Y31709D03*
G01X65369Y31709D03*
G01X65369Y39329D03*
G01X62829Y39329D03*
G01X60289Y39329D03*
G01X57749Y39329D03*
G01X55209Y39329D03*
G01X52669Y39329D03*
G01X50129Y39329D03*
G01X47589Y39329D03*
G01X45049Y39329D03*
G36*
G01X176680Y55990D02*
G01X174680Y55990D01*
G01X174680Y57990D01*
G01X176680Y57990D01*
G01X176680Y55990D01*
G37*
G54D17*
G01X173179Y54390D03*
G01X169679Y53589D03*
G01X166379Y54989D03*
G01X164480Y57989D03*
G01X164580Y61390D03*
G01X166479Y64190D03*
G01X169779Y65490D03*
G01X173080Y64789D03*
G01X175479Y62390D03*
G36*
G01X161954Y9069D02*
G01X161954Y11250D01*
G01X163165Y11250D01*
G01X163165Y9069D01*
G01X161954Y9069D01*
G37*
G36*
G01X164494Y9069D02*
G01X164494Y11250D01*
G01X165705Y11250D01*
G01X165705Y9069D01*
G01X164494Y9069D01*
G37*
G36*
G01X167034Y9069D02*
G01X167034Y11250D01*
G01X168245Y11250D01*
G01X168245Y9069D01*
G01X167034Y9069D01*
G37*
G36*
G01X169574Y9069D02*
G01X169574Y11250D01*
G01X170785Y11250D01*
G01X170785Y9069D01*
G01X169574Y9069D01*
G37*
G36*
G01X172114Y9069D02*
G01X172114Y11250D01*
G01X173325Y11250D01*
G01X173325Y9069D01*
G01X172114Y9069D01*
G37*
G36*
G01X174654Y9069D02*
G01X174654Y11250D01*
G01X175865Y11250D01*
G01X175865Y9069D01*
G01X174654Y9069D01*
G37*
G36*
G01X177194Y9069D02*
G01X177194Y11250D01*
G01X178405Y11250D01*
G01X178405Y9069D01*
G01X177194Y9069D01*
G37*
G36*
G01X179734Y9069D02*
G01X179734Y11250D01*
G01X180945Y11250D01*
G01X180945Y9069D01*
G01X179734Y9069D01*
G37*
G36*
G01X179734Y16689D02*
G01X179734Y18870D01*
G01X180945Y18870D01*
G01X180945Y16689D01*
G01X179734Y16689D01*
G37*
G36*
G01X177194Y16689D02*
G01X177194Y18870D01*
G01X178405Y18870D01*
G01X178405Y16689D01*
G01X177194Y16689D01*
G37*
G36*
G01X174654Y16689D02*
G01X174654Y18870D01*
G01X175865Y18870D01*
G01X175865Y16689D01*
G01X174654Y16689D01*
G37*
G36*
G01X172114Y16689D02*
G01X172114Y18870D01*
G01X173325Y18870D01*
G01X173325Y16689D01*
G01X172114Y16689D01*
G37*
G36*
G01X169574Y16689D02*
G01X169574Y18870D01*
G01X170785Y18870D01*
G01X170785Y16689D01*
G01X169574Y16689D01*
G37*
G36*
G01X167034Y16689D02*
G01X167034Y18870D01*
G01X168245Y18870D01*
G01X168245Y16689D01*
G01X167034Y16689D01*
G37*
G36*
G01X164494Y16689D02*
G01X164494Y18870D01*
G01X165705Y18870D01*
G01X165705Y16689D01*
G01X164494Y16689D01*
G37*
G36*
G01X161954Y16689D02*
G01X161954Y18870D01*
G01X163165Y18870D01*
G01X163165Y16689D01*
G01X161954Y16689D01*
G37*
G54D25*
G01X161290Y31750D03*
G54D26*
G01X163830Y31750D03*
G01X166370Y31750D03*
G01X168910Y31750D03*
G01X171450Y31750D03*
G01X173990Y31750D03*
G01X176530Y31750D03*
G01X179070Y31750D03*
G01X181610Y31750D03*
G01X181610Y39370D03*
G01X179070Y39370D03*
G01X176530Y39370D03*
G01X173990Y39370D03*
G01X171450Y39370D03*
G01X168910Y39370D03*
G01X166370Y39370D03*
G01X163830Y39370D03*
G01X161290Y39370D03*
G36*
G01X101750Y55990D02*
G01X99750Y55990D01*
G01X99750Y57990D01*
G01X101750Y57990D01*
G01X101750Y55990D01*
G37*
G54D17*
G01X98249Y54390D03*
G01X94749Y53589D03*
G01X91449Y54989D03*
G01X89550Y57989D03*
G01X89650Y61390D03*
G01X91549Y64190D03*
G01X94849Y65490D03*
G01X98150Y64789D03*
G01X100549Y62390D03*
G36*
G01X87024Y9069D02*
G01X87024Y11250D01*
G01X88235Y11250D01*
G01X88235Y9069D01*
G01X87024Y9069D01*
G37*
G36*
G01X89564Y9069D02*
G01X89564Y11250D01*
G01X90775Y11250D01*
G01X90775Y9069D01*
G01X89564Y9069D01*
G37*
G36*
G01X92104Y9069D02*
G01X92104Y11250D01*
G01X93315Y11250D01*
G01X93315Y9069D01*
G01X92104Y9069D01*
G37*
G36*
G01X94644Y9069D02*
G01X94644Y11250D01*
G01X95855Y11250D01*
G01X95855Y9069D01*
G01X94644Y9069D01*
G37*
G36*
G01X97184Y9069D02*
G01X97184Y11250D01*
G01X98395Y11250D01*
G01X98395Y9069D01*
G01X97184Y9069D01*
G37*
G36*
G01X99724Y9069D02*
G01X99724Y11250D01*
G01X100935Y11250D01*
G01X100935Y9069D01*
G01X99724Y9069D01*
G37*
G36*
G01X102264Y9069D02*
G01X102264Y11250D01*
G01X103475Y11250D01*
G01X103475Y9069D01*
G01X102264Y9069D01*
G37*
G36*
G01X104804Y9069D02*
G01X104804Y11250D01*
G01X106015Y11250D01*
G01X106015Y9069D01*
G01X104804Y9069D01*
G37*
G36*
G01X104804Y16689D02*
G01X104804Y18870D01*
G01X106015Y18870D01*
G01X106015Y16689D01*
G01X104804Y16689D01*
G37*
G36*
G01X102264Y16689D02*
G01X102264Y18870D01*
G01X103475Y18870D01*
G01X103475Y16689D01*
G01X102264Y16689D01*
G37*
G36*
G01X99724Y16689D02*
G01X99724Y18870D01*
G01X100935Y18870D01*
G01X100935Y16689D01*
G01X99724Y16689D01*
G37*
G36*
G01X97184Y16689D02*
G01X97184Y18870D01*
G01X98395Y18870D01*
G01X98395Y16689D01*
G01X97184Y16689D01*
G37*
G36*
G01X94644Y16689D02*
G01X94644Y18870D01*
G01X95855Y18870D01*
G01X95855Y16689D01*
G01X94644Y16689D01*
G37*
G36*
G01X92104Y16689D02*
G01X92104Y18870D01*
G01X93315Y18870D01*
G01X93315Y16689D01*
G01X92104Y16689D01*
G37*
G36*
G01X89564Y16689D02*
G01X89564Y18870D01*
G01X90775Y18870D01*
G01X90775Y16689D01*
G01X89564Y16689D01*
G37*
G36*
G01X87024Y16689D02*
G01X87024Y18870D01*
G01X88235Y18870D01*
G01X88235Y16689D01*
G01X87024Y16689D01*
G37*
G54D25*
G01X85090Y31750D03*
G54D26*
G01X87630Y31750D03*
G01X90170Y31750D03*
G01X92710Y31750D03*
G01X95250Y31750D03*
G01X97790Y31750D03*
G01X100330Y31750D03*
G01X102870Y31750D03*
G01X105410Y31750D03*
G01X105410Y39370D03*
G01X102870Y39370D03*
G01X100330Y39370D03*
G01X97790Y39370D03*
G01X95250Y39370D03*
G01X92710Y39370D03*
G01X90170Y39370D03*
G01X87630Y39370D03*
G01X85090Y39370D03*
G36*
G01X26150Y55950D02*
G01X24150Y55950D01*
G01X24150Y57949D01*
G01X26150Y57949D01*
G01X26150Y55950D01*
G37*
G54D17*
G01X22649Y54349D03*
G01X19149Y53549D03*
G01X15849Y54949D03*
G01X13950Y57949D03*
G01X14050Y61349D03*
G01X15949Y64149D03*
G01X19249Y65449D03*
G01X22550Y64749D03*
G01X24949Y62349D03*
G36*
G01X8884Y9029D02*
G01X8884Y11210D01*
G01X10095Y11210D01*
G01X10095Y9029D01*
G01X8884Y9029D01*
G37*
G36*
G01X11424Y9029D02*
G01X11424Y11210D01*
G01X12635Y11210D01*
G01X12635Y9029D01*
G01X11424Y9029D01*
G37*
G36*
G01X13964Y9029D02*
G01X13964Y11210D01*
G01X15175Y11210D01*
G01X15175Y9029D01*
G01X13964Y9029D01*
G37*
G36*
G01X16504Y9029D02*
G01X16504Y11210D01*
G01X17715Y11210D01*
G01X17715Y9029D01*
G01X16504Y9029D01*
G37*
G36*
G01X19044Y9029D02*
G01X19044Y11210D01*
G01X20255Y11210D01*
G01X20255Y9029D01*
G01X19044Y9029D01*
G37*
G36*
G01X21584Y9029D02*
G01X21584Y11210D01*
G01X22795Y11210D01*
G01X22795Y9029D01*
G01X21584Y9029D01*
G37*
G36*
G01X24124Y9029D02*
G01X24124Y11210D01*
G01X25335Y11210D01*
G01X25335Y9029D01*
G01X24124Y9029D01*
G37*
G36*
G01X26664Y9029D02*
G01X26664Y11210D01*
G01X27875Y11210D01*
G01X27875Y9029D01*
G01X26664Y9029D01*
G37*
G36*
G01X26664Y16649D02*
G01X26664Y18830D01*
G01X27875Y18830D01*
G01X27875Y16649D01*
G01X26664Y16649D01*
G37*
G36*
G01X24124Y16649D02*
G01X24124Y18830D01*
G01X25335Y18830D01*
G01X25335Y16649D01*
G01X24124Y16649D01*
G37*
G36*
G01X21584Y16649D02*
G01X21584Y18830D01*
G01X22795Y18830D01*
G01X22795Y16649D01*
G01X21584Y16649D01*
G37*
G36*
G01X19044Y16649D02*
G01X19044Y18830D01*
G01X20255Y18830D01*
G01X20255Y16649D01*
G01X19044Y16649D01*
G37*
G36*
G01X16504Y16649D02*
G01X16504Y18830D01*
G01X17715Y18830D01*
G01X17715Y16649D01*
G01X16504Y16649D01*
G37*
G36*
G01X13964Y16649D02*
G01X13964Y18830D01*
G01X15175Y18830D01*
G01X15175Y16649D01*
G01X13964Y16649D01*
G37*
G36*
G01X11424Y16649D02*
G01X11424Y18830D01*
G01X12635Y18830D01*
G01X12635Y16649D01*
G01X11424Y16649D01*
G37*
G36*
G01X8884Y16649D02*
G01X8884Y18830D01*
G01X10095Y18830D01*
G01X10095Y16649D01*
G01X8884Y16649D01*
G37*
G54D25*
G01X8219Y31709D03*
G54D26*
G01X10759Y31709D03*
G01X13299Y31709D03*
G01X15839Y31709D03*
G01X18379Y31709D03*
G01X20919Y31709D03*
G01X23459Y31709D03*
G01X25999Y31709D03*
G01X28539Y31709D03*
G01X28539Y39329D03*
G01X25999Y39329D03*
G01X23459Y39329D03*
G01X20919Y39329D03*
G01X18379Y39329D03*
G01X15839Y39329D03*
G01X13299Y39329D03*
G01X10759Y39329D03*
G01X8219Y39329D03*
G54D18*
G01X94615Y119114D03*
G01X94615Y117613D03*
G54D27*
G01X154940Y119380D03*
G01X154940Y116840D03*
G01X149860Y119380D03*
G01X149860Y116840D03*
G01X144780Y119380D03*
G01X144780Y116840D03*
G01X139700Y119380D03*
G01X139700Y116840D03*
G01X134620Y119380D03*
G01X134620Y116840D03*
G01X129540Y119380D03*
G01X129540Y116840D03*
G01X124460Y119380D03*
G01X124460Y116840D03*
G01X119380Y119380D03*
G01X119380Y116840D03*
G01X114300Y119380D03*
G01X114300Y116840D03*
G36*
G01X210300Y55950D02*
G01X208300Y55950D01*
G01X208300Y57949D01*
G01X210300Y57949D01*
G01X210300Y55950D01*
G37*
G54D17*
G01X206799Y54349D03*
G01X203299Y53549D03*
G01X199999Y54949D03*
G01X198100Y57949D03*
G01X198200Y61349D03*
G01X200099Y64149D03*
G01X203399Y65449D03*
G01X206700Y64749D03*
G01X209099Y62349D03*
G54D12*
G01X115051Y18133D03*
G01X160969Y27101D03*
G01X197421Y87774D03*
G01X96621Y19621D03*
G01X203931Y62364D03*
G01X174124Y59636D03*
G01X201383Y24744D03*
G01X185384Y24744D03*
G01X180751Y54780D03*
G01X184419Y54780D03*
G01X54155Y60957D03*
G01X106512Y54650D03*
G01X216090Y50327D03*
G01X66070Y108544D03*
G01X64419Y12377D03*
G01X87955Y65486D03*
G01X67602Y66159D03*
G01X44978Y51645D03*
G01X27520Y51645D03*
G01X32331Y57429D03*
G01X131853Y104373D03*
G01X203608Y47787D03*
G01X40114Y53238D03*
G01X209364Y22354D03*
G01X183741Y24190D03*
G01X175260Y22781D03*
G01X155978Y6804D03*
G01X146644Y21810D03*
G01X33703Y13881D03*
G01X70017Y15847D03*
G01X132158Y29029D03*
G01X163118Y29380D03*
G01X118435Y16136D03*
G01X64803Y22275D03*
G01X102054Y22209D03*
G01X39192Y14676D03*
G01X39436Y31709D03*
G01X107530Y59971D03*
G01X106680Y27767D03*
G01X99232Y27767D03*
G01X205894Y59641D03*
G01X217187Y59535D03*
G01X188749Y26522D03*
G01X205003Y52461D03*
G01X134500Y49298D03*
G01X119407Y62605D03*
G01X118704Y46306D03*
G01X119029Y68178D03*
G01X114386Y44698D03*
G01X109067Y33401D03*
G01X107929Y32235D03*
G01X169219Y21051D03*
G01X128993Y13682D03*
G01X59306Y21790D03*
G01X119296Y66324D03*
G01X124449Y66324D03*
G01X134084Y60327D03*
G01X127914Y61442D03*
G01X120096Y53637D03*
G01X97995Y56692D03*
G54D28*
G01X10079Y110284D02*
G01X7779Y110284D01*
G01X7779Y116283D02*
G01X10079Y116283D01*
G01X4278Y111833D02*
G01X4278Y113733D01*
M00*
M02*
