G04 Layer: BottomLayer*
G04 EasyEDA v6.1.52, Wed, 14 Aug 2019 16:00:45 GMT*
G04 61fb33ea13684dee95186c9376e4e459,bc0df6a87cf9400f99ff9c89e133bbb9,10*
G04 Gerber Generator version 0.2*
G04 Scale: 100 percent, Rotated: No, Reflected: No *
G04 Dimensions in millimeters *
G04 leading zeros omitted , absolute positions ,3 integer and 3 decimal *
%FSLAX33Y33*%
%MOMM*%
G90*
G71D02*

%ADD11C,0.799998*%
%ADD12C,1.199998*%
%ADD14C,2.499995*%
%ADD15C,1.199896*%
%ADD17C,1.999996*%
%ADD18C,0.999998*%
%ADD19C,1.524000*%
%ADD20C,1.879600*%
%ADD21C,2.799994*%
%ADD22R,1.778000X1.778000*%
%ADD23C,1.778000*%
%ADD25R,1.397000X1.397000*%
%ADD26C,1.397000*%
%ADD27C,1.193800*%
%ADD28C,1.499997*%

%LPD*%
G54D11*
G01X127320Y58188D02*
G01X127320Y56639D01*
G01X129471Y54488D01*
G01X129471Y52115D01*
G01X115051Y37693D01*
G01X115051Y18133D01*
G01X125770Y58188D02*
G01X127320Y58188D01*
G01X70340Y71559D02*
G01X58602Y59824D01*
G01X54864Y59824D01*
G01X53230Y58188D01*
G01X50840Y58188D01*
G01X64241Y94825D02*
G01X62514Y93098D01*
G01X62514Y79385D01*
G01X70340Y71559D01*
G01X92770Y49128D02*
G01X70340Y71559D01*
G01X92770Y49128D02*
G01X83659Y40017D01*
G01X83659Y23642D01*
G01X87630Y19672D01*
G01X94300Y58188D02*
G01X94300Y56639D01*
G01X96451Y54488D01*
G01X96451Y52809D01*
G01X92770Y49128D01*
G01X197825Y55725D02*
G01X196352Y57198D01*
G01X196352Y62247D01*
G01X197421Y63317D01*
G01X197421Y87774D01*
G01X201300Y58150D02*
G01X200708Y58150D01*
G01X198282Y55725D01*
G01X197825Y55725D01*
G01X197449Y19631D02*
G01X194698Y22385D01*
G01X194698Y52595D01*
G01X197825Y55725D01*
G01X160969Y27101D02*
G01X162560Y25511D01*
G01X162560Y17780D01*
G01X159456Y90170D02*
G01X159456Y60589D01*
G01X163791Y56253D01*
G01X165193Y56253D01*
G01X167132Y58188D01*
G01X167680Y58188D01*
G01X102870Y17780D02*
G01X102870Y19672D01*
G01X96621Y19621D02*
G01X102819Y19621D01*
G01X102870Y19672D01*
G01X197449Y17739D02*
G01X197449Y19631D01*
G01X154940Y119380D02*
G01X153543Y117980D01*
G01X153543Y96083D01*
G01X159456Y90170D01*
G01X87630Y17780D02*
G01X87630Y19672D01*
G01X92750Y58188D02*
G01X94300Y58188D01*
G01X17150Y58150D02*
G01X16601Y58150D01*
G01X14569Y56118D01*
G01X13340Y56118D01*
G01X12227Y57233D01*
G01X12227Y95851D01*
G01X13388Y97012D01*
G01X13388Y101760D01*
G01X12065Y103083D01*
G01X159456Y90170D02*
G01X161290Y90170D01*
G01X194310Y87630D02*
G01X192460Y89479D01*
G01X186001Y89479D01*
G01X184150Y87630D01*
G01X214630Y87630D02*
G01X212780Y89479D01*
G01X206321Y89479D01*
G01X204470Y87630D01*
G01X124460Y17780D02*
G01X124460Y19672D01*
G01X124460Y19672D02*
G01X139700Y19672D01*
G01X139700Y19672D01*
G01X139700Y17780D02*
G01X139700Y19672D01*
G01X46319Y17739D02*
G01X46319Y19631D01*
G01X46319Y19631D02*
G01X61559Y19631D01*
G01X61559Y19631D01*
G01X61559Y17739D02*
G01X61559Y19631D01*
G01X24729Y17739D02*
G01X24729Y19631D01*
G01X9489Y17739D02*
G01X9489Y19631D01*
G01X9489Y19631D02*
G01X24729Y19631D01*
G01X172679Y58188D02*
G01X174124Y59636D01*
G01X202849Y61150D02*
G01X202849Y61282D01*
G01X203931Y62364D01*
G01X201300Y61150D02*
G01X202849Y61150D01*
G01X185384Y24744D02*
G01X185384Y53814D01*
G01X184419Y54780D01*
G01X180340Y10160D02*
G01X185384Y15204D01*
G01X185384Y24744D01*
G01X205069Y17739D02*
G01X205069Y21056D01*
G01X201383Y24744D01*
G01X181610Y39370D02*
G01X181610Y53921D01*
G01X180751Y54780D01*
G01X181610Y81280D02*
G01X184419Y78470D01*
G01X184419Y54780D01*
G01X215884Y78069D02*
G01X202600Y78069D01*
G01X199390Y81280D01*
G01X219710Y81280D02*
G01X216499Y78069D01*
G01X215884Y78069D01*
G01X216090Y50327D02*
G01X215884Y50530D01*
G01X215884Y78069D01*
G01X206799Y54350D02*
G01X204487Y56659D01*
G01X204487Y60888D01*
G01X204749Y61150D01*
G01X64419Y12377D02*
G01X64419Y12331D01*
G01X64099Y12011D01*
G01X65369Y39329D02*
G01X68717Y35984D01*
G01X68717Y14859D01*
G01X66233Y12377D01*
G01X64419Y12377D01*
G01X55839Y61188D02*
G01X54287Y61188D01*
G01X54155Y60957D02*
G01X54287Y61089D01*
G01X54287Y61188D01*
G01X100330Y107950D02*
G01X106227Y102052D01*
G01X106227Y54937D01*
G01X106512Y54650D01*
G01X106512Y54650D02*
G01X106512Y40472D01*
G01X105410Y39370D01*
G01X142240Y12052D02*
G01X142450Y12052D01*
G01X145752Y15354D01*
G01X145752Y20861D01*
G01X145343Y21269D01*
G01X145343Y37536D01*
G01X143510Y39370D01*
G01X130769Y61188D02*
G01X129217Y61188D01*
G01X129217Y61188D02*
G01X129217Y56441D01*
G01X131269Y54389D01*
G01X216499Y39329D02*
G01X219971Y35857D01*
G01X219971Y15008D01*
G01X216976Y12011D01*
G01X215229Y12011D01*
G01X94615Y119113D02*
G01X94940Y119113D01*
G01X100330Y113725D01*
G01X100330Y107950D01*
G01X216499Y39329D02*
G01X216090Y39740D01*
G01X216090Y50327D01*
G01X131269Y54389D02*
G01X143510Y42148D01*
G01X143510Y39370D01*
G01X56339Y54389D02*
G01X65369Y45359D01*
G01X65369Y39329D01*
G01X64241Y91440D02*
G01X66070Y93268D01*
G01X66070Y108544D01*
G01X22174Y110096D02*
G01X15986Y116283D01*
G01X8930Y116283D01*
G01X64241Y88054D02*
G01X64241Y91440D01*
G01X79375Y119113D02*
G01X86995Y119113D01*
G01X75445Y110744D02*
G01X75445Y115542D01*
G01X79019Y119113D01*
G01X79375Y119113D01*
G01X215229Y10119D02*
G01X215229Y12011D01*
G01X142240Y10160D02*
G01X142240Y12052D01*
G01X64099Y10119D02*
G01X64099Y12011D01*
G01X172679Y61188D02*
G01X171127Y61188D01*
G01X173179Y54389D02*
G01X173179Y54899D01*
G01X171127Y56951D01*
G01X171127Y61188D01*
G01X98249Y54389D02*
G01X96199Y56441D01*
G01X96199Y61188D01*
G01X97749Y61188D02*
G01X96199Y61188D01*
G01X22649Y54350D02*
G01X20637Y56362D01*
G01X20637Y59636D01*
G01X22151Y61150D01*
G01X206301Y61150D02*
G01X204749Y61150D01*
G01X92750Y61188D02*
G01X91297Y59738D01*
G01X91297Y57287D01*
G01X90286Y56273D01*
G01X88818Y56273D01*
G01X87729Y57363D01*
G01X87729Y65262D01*
G01X87955Y65486D01*
G01X55839Y58188D02*
G01X56342Y58691D01*
G01X60134Y58691D01*
G01X67602Y66159D01*
G01X50840Y61188D02*
G01X49364Y59715D01*
G01X49364Y57264D01*
G01X44978Y52877D01*
G01X44978Y51645D01*
G01X22151Y58150D02*
G01X22651Y58651D01*
G01X26591Y58651D01*
G01X27520Y57721D01*
G01X27520Y51645D01*
G01X123035Y54991D02*
G01X124470Y54991D01*
G01X124460Y119380D02*
G01X120799Y115719D01*
G01X120799Y57223D01*
G01X123035Y54991D01*
G01X123035Y54991D02*
G01X123035Y47236D01*
G01X117949Y42151D01*
G01X115811Y42151D01*
G01X105410Y31750D01*
G01X52654Y100426D02*
G01X32331Y80103D01*
G01X32331Y57429D01*
G01X32331Y57429D02*
G01X32331Y35501D01*
G01X28539Y31709D01*
G01X52654Y102476D02*
G01X52654Y100426D01*
G01X94749Y53588D02*
G01X94383Y53223D01*
G01X90309Y53223D01*
G01X86626Y56906D01*
G01X86626Y66128D01*
G01X89494Y68996D01*
G01X89494Y104373D01*
G01X40114Y53238D02*
G01X40114Y85453D01*
G01X73025Y118364D01*
G01X169679Y53588D02*
G01X169362Y53271D01*
G01X165066Y53271D01*
G01X131853Y86487D01*
G01X131853Y104373D01*
G01X203299Y53550D02*
G01X203299Y48097D01*
G01X203608Y47787D01*
G01X79375Y117612D02*
G01X89494Y107492D01*
G01X89494Y104373D01*
G01X190500Y101600D02*
G01X180901Y92001D01*
G01X180901Y84775D01*
G01X179953Y83827D01*
G01X179953Y75382D01*
G01X183024Y72311D01*
G01X183024Y24907D01*
G01X183741Y24190D01*
G01X210149Y17739D02*
G01X210149Y21569D01*
G01X209364Y22354D01*
G01X175260Y17780D02*
G01X175260Y22781D01*
G01X146644Y21810D02*
G01X155978Y12476D01*
G01X155978Y6804D01*
G01X70017Y15847D02*
G01X70017Y13335D01*
G01X62704Y6022D01*
G01X41559Y6022D01*
G01X33703Y13881D01*
G01X207609Y17739D02*
G01X207609Y17518D01*
G01X204696Y14602D01*
G01X196138Y14602D01*
G01X191091Y19649D01*
G01X191091Y74556D01*
G01X182321Y83327D01*
G01X182321Y90881D01*
G01X193040Y101600D01*
G01X97790Y15887D02*
G01X70058Y15887D01*
G01X70017Y15847D01*
G01X97790Y17780D02*
G01X97790Y15887D01*
G01X195580Y101600D02*
G01X196054Y101125D01*
G01X196054Y80266D01*
G01X193558Y77769D01*
G01X193558Y18862D01*
G01X196573Y15847D01*
G01X202529Y15847D01*
G01X202529Y17739D02*
G01X202529Y15847D01*
G01X203799Y31709D02*
G01X203949Y31709D01*
G01X216537Y19121D01*
G01X216537Y16250D01*
G01X216077Y15791D01*
G01X207921Y15791D01*
G01X204142Y12011D01*
G01X202529Y12011D01*
G01X202529Y10119D02*
G01X202529Y12011D01*
G01X196179Y31709D02*
G01X196179Y30210D01*
G01X196179Y30210D02*
G01X199989Y26400D01*
G01X199989Y17739D01*
G01X206700Y64749D02*
G01X209108Y64749D01*
G01X212133Y61724D01*
G01X212133Y40040D01*
G01X211419Y39329D01*
G01X208879Y39329D02*
G01X211002Y41452D01*
G01X211002Y60446D01*
G01X209100Y62349D01*
G01X163118Y29380D02*
G01X170632Y29380D01*
G01X180340Y19672D01*
G01X180340Y17780D02*
G01X180340Y19672D01*
G01X129540Y15887D02*
G01X123652Y15887D01*
G01X123151Y16388D01*
G01X123151Y20025D01*
G01X132158Y29029D01*
G01X129540Y17780D02*
G01X129540Y15887D01*
G01X123190Y31750D02*
G01X118559Y27117D01*
G01X118559Y16258D01*
G01X118435Y16136D01*
G01X52669Y39329D02*
G01X43621Y48376D01*
G01X43621Y53972D01*
G01X47640Y57990D01*
G01X47589Y31709D02*
G01X42735Y26855D01*
G01X42735Y13703D01*
G01X46319Y10119D01*
G01X50129Y31709D02*
G01X43886Y25466D01*
G01X43886Y15681D01*
G01X48859Y10708D01*
G01X48859Y10119D01*
G01X105410Y17780D02*
G01X105410Y19672D01*
G01X105410Y19672D02*
G01X104592Y19672D01*
G01X102054Y22209D01*
G01X51399Y17739D02*
G01X51399Y15847D01*
G01X64803Y22275D02*
G01X64803Y22009D01*
G01X65407Y21402D01*
G01X65407Y16228D01*
G01X65064Y15885D01*
G01X51437Y15885D01*
G01X51399Y15847D01*
G01X39192Y14676D02*
G01X39192Y31465D01*
G01X39436Y31709D01*
G01X175260Y10160D02*
G01X175260Y12052D01*
G01X176530Y31750D02*
G01X176530Y28000D01*
G01X182821Y21709D01*
G01X182821Y15882D01*
G01X180342Y13403D01*
G01X176611Y13403D01*
G01X175260Y12052D01*
G01X165100Y17780D02*
G01X165100Y25519D01*
G01X161290Y29329D01*
G01X161290Y30251D01*
G01X161290Y31750D02*
G01X161290Y30251D01*
G01X107530Y59971D02*
G01X107815Y59687D01*
G01X107815Y39657D01*
G01X106128Y37967D01*
G01X86492Y37967D01*
G01X85090Y39370D01*
G01X95250Y10160D02*
G01X95250Y10010D01*
G01X96893Y8366D01*
G01X106314Y8366D01*
G01X111130Y13182D01*
G01X111130Y23319D01*
G01X106680Y27767D01*
G01X95250Y31750D02*
G01X99232Y27767D01*
G01X100330Y12052D02*
G01X101978Y13700D01*
G01X107292Y13700D01*
G01X108922Y15331D01*
G01X108922Y22123D01*
G01X100330Y30716D01*
G01X100330Y31750D01*
G01X100330Y10160D02*
G01X100330Y12052D01*
G01X23459Y31709D02*
G01X30782Y24386D01*
G01X30782Y15290D01*
G01X28963Y13472D01*
G01X23649Y13472D01*
G01X22189Y12011D01*
G01X22189Y10119D02*
G01X22189Y12011D01*
G01X215900Y116840D02*
G01X221472Y111267D01*
G01X221472Y63822D01*
G01X217187Y59535D01*
G01X205894Y59641D02*
G01X206301Y59235D01*
G01X206301Y58150D01*
G01X12065Y98084D02*
G01X8930Y101219D01*
G01X8930Y110284D01*
G01X62865Y118364D02*
G01X64536Y120035D01*
G01X73710Y120035D01*
G01X74698Y119047D01*
G01X74698Y117586D01*
G01X67840Y110728D01*
G01X67840Y93134D01*
G01X60444Y110744D02*
G01X62865Y113164D01*
G01X62865Y118364D01*
G01X84495Y104373D02*
G01X69867Y89745D01*
G01X67840Y89745D01*
G01X84495Y104373D02*
G01X86995Y101874D01*
G01X176049Y87630D02*
G01X173990Y85570D01*
G01X173990Y81280D01*
G01X179070Y87630D02*
G01X176049Y87630D01*
G01X176049Y87630D02*
G01X176049Y102351D01*
G01X177048Y103350D01*
G01X196369Y103350D01*
G01X198120Y101600D01*
G01X200776Y87630D02*
G01X200776Y99174D01*
G01X203200Y101600D01*
G01X207010Y81280D02*
G01X206692Y81280D01*
G01X200776Y87195D01*
G01X200776Y87630D01*
G01X199390Y87630D02*
G01X200776Y87630D01*
G01X209550Y85902D02*
G01X203753Y85902D01*
G01X202712Y86944D01*
G01X202712Y98572D01*
G01X205740Y101600D01*
G01X209550Y85902D02*
G01X209550Y83820D01*
G01X212090Y81280D01*
G01X209550Y87630D02*
G01X209550Y85902D01*
G01X161290Y87630D02*
G01X170205Y96542D01*
G01X170205Y104162D01*
G01X182880Y116840D01*
G01X161290Y92710D02*
G01X162991Y94411D01*
G01X162991Y104493D01*
G01X177220Y118719D01*
G01X196240Y118719D01*
G01X198120Y116840D01*
G01X197449Y12011D02*
G01X196984Y12011D01*
G01X188749Y20246D01*
G01X188749Y26522D01*
G01X197449Y10119D02*
G01X197449Y12011D01*
G01X208879Y31709D02*
G01X217639Y22948D01*
G01X217639Y15796D01*
G01X216535Y14688D01*
G01X210286Y14688D01*
G01X207609Y12011D01*
G01X207609Y10119D02*
G01X207609Y12011D01*
G01X209301Y56949D02*
G01X209301Y42291D01*
G01X206339Y39329D01*
G01X198719Y39329D02*
G01X205003Y45610D01*
G01X205003Y52461D01*
G01X128270Y39370D02*
G01X134500Y45600D01*
G01X134500Y49298D01*
G01X118704Y46306D02*
G01X118704Y61902D01*
G01X119407Y62605D01*
G01X114386Y44698D02*
G01X114386Y63538D01*
G01X119029Y68178D01*
G01X125730Y31750D02*
G01X119844Y25864D01*
G01X119844Y14775D01*
G01X124460Y10160D01*
G01X128270Y31750D02*
G01X120947Y24427D01*
G01X120947Y15476D01*
G01X123863Y12560D01*
G01X124866Y12560D01*
G01X127000Y10424D01*
G01X127000Y10160D01*
G01X129540Y12052D02*
G01X127487Y12052D01*
G01X125879Y13662D01*
G01X124320Y13662D01*
G01X122049Y15930D01*
G01X122049Y22989D01*
G01X130810Y31750D01*
G01X129540Y10160D02*
G01X129540Y12052D01*
G01X132080Y12052D02*
G01X134622Y14594D01*
G01X141874Y14594D01*
G01X143548Y16268D01*
G01X143548Y19946D01*
G01X133350Y30144D01*
G01X133350Y31750D01*
G01X132080Y10160D02*
G01X132080Y12052D01*
G01X135890Y31750D02*
G01X134388Y33251D01*
G01X122273Y33251D01*
G01X117454Y28435D01*
G01X117454Y17137D01*
G01X117134Y16814D01*
G01X117134Y14546D01*
G01X123413Y8267D01*
G01X134620Y8267D01*
G01X134620Y10160D02*
G01X134620Y8267D01*
G01X47589Y39329D02*
G01X42519Y44399D01*
G01X42519Y58600D01*
G01X48110Y64190D01*
G01X49639Y64190D01*
G01X45049Y39329D02*
G01X41417Y42961D01*
G01X41417Y59118D01*
G01X48191Y65892D01*
G01X52537Y65892D01*
G01X52941Y65488D01*
G01X52669Y31709D02*
G01X51168Y33213D01*
G01X44150Y33213D01*
G01X43583Y32644D01*
G01X43583Y30208D01*
G01X41597Y28224D01*
G01X41597Y12136D01*
G01X45407Y8326D01*
G01X49756Y8326D01*
G01X51399Y9969D01*
G01X51399Y10119D01*
G01X53939Y10119D02*
G01X53939Y12011D01*
G01X53939Y12011D02*
G01X49349Y12011D01*
G01X45011Y16347D01*
G01X45011Y21511D01*
G01X55209Y31709D01*
G01X57749Y31709D02*
G01X57749Y31330D01*
G01X66103Y22974D01*
G01X66103Y22265D01*
G01X66509Y21859D01*
G01X66509Y15770D01*
G01X65519Y14782D01*
G01X59250Y14782D01*
G01X56479Y12011D01*
G01X56479Y10119D02*
G01X56479Y12011D01*
G01X59019Y8227D02*
G01X58016Y7223D01*
G01X44952Y7223D01*
G01X40495Y11681D01*
G01X40495Y29230D01*
G01X41597Y30332D01*
G01X41597Y32219D01*
G01X43693Y34315D01*
G01X57685Y34315D01*
G01X60289Y31709D01*
G01X59019Y10119D02*
G01X59019Y8227D01*
G01X62829Y31709D02*
G01X67612Y26926D01*
G01X67612Y15316D01*
G01X65976Y13677D01*
G01X63228Y13677D01*
G01X61559Y12011D01*
G01X61559Y10119D02*
G01X61559Y12011D01*
G01X171450Y39370D02*
G01X175679Y43599D01*
G01X175679Y56989D01*
G01X173080Y64790D02*
G01X175547Y64790D01*
G01X178592Y61742D01*
G01X178592Y41432D01*
G01X176530Y39370D01*
G01X175480Y62390D02*
G01X177469Y60398D01*
G01X177469Y42849D01*
G01X173990Y39370D01*
G01X179070Y31750D02*
G01X179070Y27020D01*
G01X183923Y22164D01*
G01X183923Y15427D01*
G01X180550Y12052D01*
G01X177800Y12052D01*
G01X177800Y10160D02*
G01X177800Y12052D01*
G01X95250Y39370D02*
G01X100749Y44869D01*
G01X100749Y56989D01*
G01X98150Y64790D02*
G01X100584Y64790D01*
G01X103705Y61668D01*
G01X103705Y42745D01*
G01X100330Y39370D01*
G01X97790Y39370D02*
G01X102504Y44084D01*
G01X102504Y60436D01*
G01X100550Y62390D01*
G01X109067Y33401D02*
G01X113334Y29133D01*
G01X113334Y12268D01*
G01X107127Y6062D01*
G01X89834Y6062D01*
G01X87630Y8267D01*
G01X87630Y10160D02*
G01X87630Y8267D01*
G01X90170Y10160D02*
G01X90170Y12052D01*
G01X90170Y31750D02*
G01X95788Y26131D01*
G01X100617Y26131D01*
G01X106718Y20030D01*
G01X106718Y16245D01*
G01X106459Y15986D01*
G01X100164Y15986D01*
G01X96230Y12052D01*
G01X90170Y12052D01*
G01X107929Y32235D02*
G01X112232Y27932D01*
G01X112232Y12725D01*
G01X106768Y7264D01*
G01X93713Y7264D01*
G01X92710Y8267D01*
G01X92710Y10160D02*
G01X92710Y8267D01*
G01X97790Y12052D02*
G01X100540Y14803D01*
G01X106834Y14803D01*
G01X107820Y15788D01*
G01X107820Y21666D01*
G01X97790Y31696D01*
G01X97790Y31750D01*
G01X97790Y10160D02*
G01X97790Y12052D01*
G01X102870Y12052D02*
G01X107203Y12052D01*
G01X110025Y14874D01*
G01X110025Y22580D01*
G01X102870Y29735D01*
G01X102870Y31750D01*
G01X102870Y10160D02*
G01X102870Y12052D01*
G01X18379Y39329D02*
G01X25151Y46101D01*
G01X25151Y56949D01*
G01X15951Y64150D02*
G01X15951Y64726D01*
G01X18453Y67231D01*
G01X24274Y67231D01*
G01X31028Y60474D01*
G01X31028Y39702D01*
G01X29250Y37924D01*
G01X12164Y37924D01*
G01X10759Y39329D01*
G01X8219Y39329D02*
G01X20947Y52057D01*
G01X20947Y54325D01*
G01X19250Y56022D01*
G01X19250Y65450D01*
G01X22550Y64749D02*
G01X25031Y64749D01*
G01X29926Y59855D01*
G01X29926Y45796D01*
G01X23459Y39329D01*
G01X20919Y39329D02*
G01X28823Y47233D01*
G01X28823Y58475D01*
G01X24950Y62349D01*
G01X10759Y31709D02*
G01X5844Y26794D01*
G01X5844Y13766D01*
G01X9489Y10119D01*
G01X17109Y10119D02*
G01X17109Y12011D01*
G01X18379Y31709D02*
G01X28577Y21511D01*
G01X28577Y16205D01*
G01X28321Y15946D01*
G01X21043Y15946D01*
G01X17109Y12011D01*
G01X20919Y31709D02*
G01X29679Y22948D01*
G01X29679Y15748D01*
G01X28506Y14574D01*
G01X22212Y14574D01*
G01X19649Y12011D01*
G01X19649Y10119D02*
G01X19649Y12011D01*
G01X25999Y31709D02*
G01X31887Y25824D01*
G01X31887Y14833D01*
G01X29062Y12011D01*
G01X24729Y12011D01*
G01X24729Y10119D02*
G01X24729Y12011D01*
G01X189230Y87630D02*
G01X189230Y86360D01*
G01X194310Y81280D01*
G01X213959Y31709D02*
G01X218869Y26799D01*
G01X218869Y15463D01*
G01X216992Y13586D01*
G01X214264Y13586D01*
G01X212689Y12011D01*
G01X212689Y10119D02*
G01X212689Y12011D01*
G01X167640Y17780D02*
G01X167640Y19672D01*
G01X167640Y19672D02*
G01X167838Y19672D01*
G01X169219Y21051D01*
G01X138430Y31750D02*
G01X135729Y34450D01*
G01X121912Y34450D01*
G01X116352Y28892D01*
G01X116352Y17594D01*
G01X115989Y17228D01*
G01X115989Y14076D01*
G01X122900Y7162D01*
G01X136055Y7162D01*
G01X137160Y8267D01*
G01X137160Y10160D02*
G01X137160Y8267D01*
G01X139700Y12052D02*
G01X141119Y13469D01*
G01X142308Y13469D01*
G01X144650Y15811D01*
G01X144650Y20403D01*
G01X140970Y24084D01*
G01X140970Y31750D01*
G01X139700Y10160D02*
G01X139700Y12052D01*
G01X142240Y17780D02*
G01X142240Y17630D01*
G01X140596Y15986D01*
G01X131297Y15986D01*
G01X128993Y13682D01*
G01X64099Y17739D02*
G01X64099Y19631D01*
G01X64099Y19631D02*
G01X61942Y21790D01*
G01X59306Y21790D01*
G01X162560Y12052D02*
G01X159666Y14945D01*
G01X159666Y32674D01*
G01X160144Y33149D01*
G01X162430Y33149D01*
G01X163830Y31750D01*
G01X162560Y10160D02*
G01X162560Y12052D01*
G01X167640Y8267D02*
G01X161762Y8267D01*
G01X158564Y11465D01*
G01X158564Y33131D01*
G01X159791Y34358D01*
G01X166301Y34358D01*
G01X168910Y31750D01*
G01X167640Y10160D02*
G01X167640Y8267D01*
G01X170180Y12052D02*
G01X172882Y14754D01*
G01X180134Y14754D01*
G01X181658Y16278D01*
G01X181658Y21315D01*
G01X171450Y31521D01*
G01X171450Y31750D01*
G01X170180Y10160D02*
G01X170180Y12052D01*
G01X85090Y31750D02*
G01X85090Y30251D01*
G01X85090Y30251D02*
G01X90170Y25171D01*
G01X90170Y17780D01*
G01X13299Y31709D02*
G01X7045Y25455D01*
G01X7045Y15577D01*
G01X12029Y10591D01*
G01X12029Y10119D01*
G01X15839Y31709D02*
G01X8181Y24051D01*
G01X8181Y16233D01*
G01X12405Y12011D01*
G01X14569Y12011D01*
G01X14569Y10119D02*
G01X14569Y12011D01*
G01X169230Y61188D02*
G01X169230Y57289D01*
G01X171477Y55041D01*
G01X171477Y52765D01*
G01X170563Y51851D01*
G01X157421Y51851D01*
G01X150553Y58719D01*
G01X131300Y58719D01*
G01X130769Y58188D01*
G01X167680Y61188D02*
G01X169230Y61188D01*
G01X119296Y66324D02*
G01X117297Y64325D01*
G01X117297Y45760D01*
G01X118099Y44958D01*
G01X119197Y44958D01*
G01X120096Y45857D01*
G01X120096Y53637D01*
G01X97749Y58188D02*
G01X97749Y56939D01*
G01X97995Y56692D01*
G01X125770Y61188D02*
G01X127660Y61188D01*
G01X127914Y61442D01*
G01X134084Y60327D02*
G01X135369Y61615D01*
G01X135369Y63144D01*
G01X131208Y67304D01*
G01X125427Y67304D01*
G01X124449Y66324D01*
G36*
G01X200550Y57651D02*
G01X202049Y57651D01*
G01X202049Y58649D01*
G01X200550Y58649D01*
G01X200550Y57651D01*
G37*
G36*
G01X200550Y60650D02*
G01X202049Y60650D01*
G01X202049Y61648D01*
G01X200550Y61648D01*
G01X200550Y60650D01*
G37*
G36*
G01X205549Y60650D02*
G01X207050Y60650D01*
G01X207050Y61648D01*
G01X205549Y61648D01*
G01X205549Y60650D01*
G37*
G36*
G01X205549Y57651D02*
G01X207050Y57651D01*
G01X207050Y58649D01*
G01X205549Y58649D01*
G01X205549Y57651D01*
G37*
G36*
G01X166930Y57691D02*
G01X168429Y57691D01*
G01X168429Y58689D01*
G01X166930Y58689D01*
G01X166930Y57691D01*
G37*
G36*
G01X166930Y60690D02*
G01X168429Y60690D01*
G01X168429Y61688D01*
G01X166930Y61688D01*
G01X166930Y60690D01*
G37*
G36*
G01X171929Y60690D02*
G01X173430Y60690D01*
G01X173430Y61688D01*
G01X171929Y61688D01*
G01X171929Y60690D01*
G37*
G36*
G01X171929Y57691D02*
G01X173430Y57691D01*
G01X173430Y58689D01*
G01X171929Y58689D01*
G01X171929Y57691D01*
G37*
G36*
G01X125020Y57691D02*
G01X126519Y57691D01*
G01X126519Y58689D01*
G01X125020Y58689D01*
G01X125020Y57691D01*
G37*
G36*
G01X125020Y60690D02*
G01X126519Y60690D01*
G01X126519Y61688D01*
G01X125020Y61688D01*
G01X125020Y60690D01*
G37*
G36*
G01X130019Y60690D02*
G01X131520Y60690D01*
G01X131520Y61688D01*
G01X130019Y61688D01*
G01X130019Y60690D01*
G37*
G36*
G01X130019Y57691D02*
G01X131520Y57691D01*
G01X131520Y58689D01*
G01X130019Y58689D01*
G01X130019Y57691D01*
G37*
G36*
G01X92000Y57691D02*
G01X93499Y57691D01*
G01X93499Y58689D01*
G01X92000Y58689D01*
G01X92000Y57691D01*
G37*
G36*
G01X92000Y60690D02*
G01X93499Y60690D01*
G01X93499Y61688D01*
G01X92000Y61688D01*
G01X92000Y60690D01*
G37*
G36*
G01X96999Y60690D02*
G01X98500Y60690D01*
G01X98500Y61688D01*
G01X96999Y61688D01*
G01X96999Y60690D01*
G37*
G36*
G01X96999Y57691D02*
G01X98500Y57691D01*
G01X98500Y58689D01*
G01X96999Y58689D01*
G01X96999Y57691D01*
G37*
G36*
G01X50090Y57691D02*
G01X51589Y57691D01*
G01X51589Y58689D01*
G01X50090Y58689D01*
G01X50090Y57691D01*
G37*
G36*
G01X50090Y60690D02*
G01X51589Y60690D01*
G01X51589Y61688D01*
G01X50090Y61688D01*
G01X50090Y60690D01*
G37*
G36*
G01X55089Y60690D02*
G01X56590Y60690D01*
G01X56590Y61688D01*
G01X55089Y61688D01*
G01X55089Y60690D01*
G37*
G36*
G01X55089Y57691D02*
G01X56590Y57691D01*
G01X56590Y58689D01*
G01X55089Y58689D01*
G01X55089Y57691D01*
G37*
G36*
G01X16400Y57650D02*
G01X17899Y57651D01*
G01X17899Y58649D01*
G01X16400Y58649D01*
G01X16400Y57650D01*
G37*
G36*
G01X16400Y60650D02*
G01X17899Y60650D01*
G01X17899Y61648D01*
G01X16400Y61648D01*
G01X16400Y60650D01*
G37*
G36*
G01X21399Y60650D02*
G01X22900Y60650D01*
G01X22900Y61648D01*
G01X21399Y61648D01*
G01X21399Y60650D01*
G37*
G36*
G01X21399Y57651D02*
G01X22900Y57651D01*
G01X22900Y58649D01*
G01X21399Y58649D01*
G01X21399Y57651D01*
G37*
G36*
G01X53902Y101227D02*
G01X51402Y101227D01*
G01X51402Y103727D01*
G01X53902Y103727D01*
G01X53902Y101227D01*
G37*
G36*
G01X23422Y101227D02*
G01X20922Y101227D01*
G01X20922Y103727D01*
G01X23422Y103727D01*
G01X23422Y101227D01*
G37*
G54D14*
G01X52652Y110097D03*
G01X22172Y110097D03*
G54D15*
G01X12065Y103083D03*
G01X12065Y98084D03*
G01X4445Y103083D03*
G01X4445Y98084D03*
G36*
G01X65240Y95825D02*
G01X65240Y93825D01*
G01X63240Y93825D01*
G01X63240Y95825D01*
G01X65240Y95825D01*
G37*
G54D17*
G01X67839Y93134D03*
G01X64240Y91440D03*
G01X67839Y89745D03*
G01X64240Y88054D03*
G54D18*
G01X86995Y119114D03*
G01X86995Y117613D03*
G01X79375Y119114D03*
G01X79375Y117613D03*
G54D19*
G01X86995Y101874D03*
G01X84495Y104373D03*
G01X89495Y104373D03*
G54D20*
G01X100330Y100330D03*
G01X100330Y107950D03*
G01X62865Y118364D03*
G01X73025Y118364D03*
G54D21*
G01X75445Y110744D03*
G01X60444Y110744D03*
G54D22*
G01X180340Y101600D03*
G54D23*
G01X182880Y101600D03*
G01X185420Y101600D03*
G01X187960Y101600D03*
G01X190500Y101600D03*
G01X193040Y101600D03*
G01X195580Y101600D03*
G01X198120Y101600D03*
G01X200660Y101600D03*
G01X203200Y101600D03*
G01X205740Y101600D03*
G01X208280Y101600D03*
G01X210820Y101600D03*
G01X213360Y101600D03*
G01X215900Y101600D03*
G01X180340Y116840D03*
G01X182880Y116840D03*
G01X185420Y116840D03*
G01X187960Y116840D03*
G01X190500Y116840D03*
G01X193040Y116840D03*
G01X195580Y116840D03*
G01X198120Y116840D03*
G01X200660Y116840D03*
G01X203200Y116840D03*
G01X205740Y116840D03*
G01X208280Y116840D03*
G01X210820Y116840D03*
G01X213360Y116840D03*
G01X215900Y116840D03*
G54D17*
G01X161290Y95250D03*
G01X161290Y92710D03*
G01X161290Y90170D03*
G01X161290Y87630D03*
G54D20*
G01X181610Y81280D03*
G01X173990Y81280D03*
G01X194310Y81280D03*
G01X186690Y81280D03*
G01X207010Y81280D03*
G01X199390Y81280D03*
G01X212090Y81280D03*
G01X219710Y81280D03*
G54D17*
G01X179070Y87630D03*
G01X184150Y87630D03*
G01X199390Y87630D03*
G01X204470Y87630D03*
G01X189230Y87630D03*
G01X194310Y87630D03*
G01X209550Y87630D03*
G01X214630Y87630D03*
G36*
G01X196844Y9029D02*
G01X196844Y11210D01*
G01X198055Y11210D01*
G01X198055Y9029D01*
G01X196844Y9029D01*
G37*
G36*
G01X199384Y9029D02*
G01X199384Y11210D01*
G01X200595Y11210D01*
G01X200595Y9029D01*
G01X199384Y9029D01*
G37*
G36*
G01X201924Y9029D02*
G01X201924Y11210D01*
G01X203135Y11210D01*
G01X203135Y9029D01*
G01X201924Y9029D01*
G37*
G36*
G01X204464Y9029D02*
G01X204464Y11210D01*
G01X205675Y11210D01*
G01X205675Y9029D01*
G01X204464Y9029D01*
G37*
G36*
G01X207004Y9029D02*
G01X207004Y11210D01*
G01X208215Y11210D01*
G01X208215Y9029D01*
G01X207004Y9029D01*
G37*
G36*
G01X209544Y9029D02*
G01X209544Y11210D01*
G01X210755Y11210D01*
G01X210755Y9029D01*
G01X209544Y9029D01*
G37*
G36*
G01X212084Y9029D02*
G01X212084Y11210D01*
G01X213295Y11210D01*
G01X213295Y9029D01*
G01X212084Y9029D01*
G37*
G36*
G01X214624Y9029D02*
G01X214624Y11210D01*
G01X215835Y11210D01*
G01X215835Y9029D01*
G01X214624Y9029D01*
G37*
G36*
G01X214624Y16649D02*
G01X214624Y18830D01*
G01X215835Y18830D01*
G01X215835Y16649D01*
G01X214624Y16649D01*
G37*
G36*
G01X212084Y16649D02*
G01X212084Y18830D01*
G01X213295Y18830D01*
G01X213295Y16649D01*
G01X212084Y16649D01*
G37*
G36*
G01X209544Y16649D02*
G01X209544Y18830D01*
G01X210755Y18830D01*
G01X210755Y16649D01*
G01X209544Y16649D01*
G37*
G36*
G01X207004Y16649D02*
G01X207004Y18830D01*
G01X208215Y18830D01*
G01X208215Y16649D01*
G01X207004Y16649D01*
G37*
G36*
G01X204464Y16649D02*
G01X204464Y18830D01*
G01X205675Y18830D01*
G01X205675Y16649D01*
G01X204464Y16649D01*
G37*
G36*
G01X201924Y16649D02*
G01X201924Y18830D01*
G01X203135Y18830D01*
G01X203135Y16649D01*
G01X201924Y16649D01*
G37*
G36*
G01X199384Y16649D02*
G01X199384Y18830D01*
G01X200595Y18830D01*
G01X200595Y16649D01*
G01X199384Y16649D01*
G37*
G36*
G01X196844Y16649D02*
G01X196844Y18830D01*
G01X198055Y18830D01*
G01X198055Y16649D01*
G01X196844Y16649D01*
G37*
G54D25*
G01X196179Y31709D03*
G54D26*
G01X198719Y31709D03*
G01X201259Y31709D03*
G01X203799Y31709D03*
G01X206339Y31709D03*
G01X208879Y31709D03*
G01X211419Y31709D03*
G01X213959Y31709D03*
G01X216499Y31709D03*
G01X216499Y39329D03*
G01X213959Y39329D03*
G01X211419Y39329D03*
G01X208879Y39329D03*
G01X206339Y39329D03*
G01X203799Y39329D03*
G01X201259Y39329D03*
G01X198719Y39329D03*
G01X196179Y39329D03*
G36*
G01X134770Y55990D02*
G01X132770Y55990D01*
G01X132770Y57990D01*
G01X134770Y57990D01*
G01X134770Y55990D01*
G37*
G54D17*
G01X131269Y54390D03*
G01X127769Y53589D03*
G01X124469Y54989D03*
G01X122570Y57989D03*
G01X122670Y61390D03*
G01X124569Y64190D03*
G01X127869Y65490D03*
G01X131170Y64789D03*
G01X133569Y62390D03*
G36*
G01X123854Y9069D02*
G01X123854Y11250D01*
G01X125065Y11250D01*
G01X125065Y9069D01*
G01X123854Y9069D01*
G37*
G36*
G01X126394Y9069D02*
G01X126394Y11250D01*
G01X127605Y11250D01*
G01X127605Y9069D01*
G01X126394Y9069D01*
G37*
G36*
G01X128934Y9069D02*
G01X128934Y11250D01*
G01X130145Y11250D01*
G01X130145Y9069D01*
G01X128934Y9069D01*
G37*
G36*
G01X131474Y9069D02*
G01X131474Y11250D01*
G01X132685Y11250D01*
G01X132685Y9069D01*
G01X131474Y9069D01*
G37*
G36*
G01X134014Y9069D02*
G01X134014Y11250D01*
G01X135225Y11250D01*
G01X135225Y9069D01*
G01X134014Y9069D01*
G37*
G36*
G01X136554Y9069D02*
G01X136554Y11250D01*
G01X137765Y11250D01*
G01X137765Y9069D01*
G01X136554Y9069D01*
G37*
G36*
G01X139094Y9069D02*
G01X139094Y11250D01*
G01X140305Y11250D01*
G01X140305Y9069D01*
G01X139094Y9069D01*
G37*
G36*
G01X141634Y9069D02*
G01X141634Y11250D01*
G01X142845Y11250D01*
G01X142845Y9069D01*
G01X141634Y9069D01*
G37*
G36*
G01X141634Y16689D02*
G01X141634Y18870D01*
G01X142845Y18870D01*
G01X142845Y16689D01*
G01X141634Y16689D01*
G37*
G36*
G01X139094Y16689D02*
G01X139094Y18870D01*
G01X140305Y18870D01*
G01X140305Y16689D01*
G01X139094Y16689D01*
G37*
G36*
G01X136554Y16689D02*
G01X136554Y18870D01*
G01X137765Y18870D01*
G01X137765Y16689D01*
G01X136554Y16689D01*
G37*
G36*
G01X134014Y16689D02*
G01X134014Y18870D01*
G01X135225Y18870D01*
G01X135225Y16689D01*
G01X134014Y16689D01*
G37*
G36*
G01X131474Y16689D02*
G01X131474Y18870D01*
G01X132685Y18870D01*
G01X132685Y16689D01*
G01X131474Y16689D01*
G37*
G36*
G01X128934Y16689D02*
G01X128934Y18870D01*
G01X130145Y18870D01*
G01X130145Y16689D01*
G01X128934Y16689D01*
G37*
G36*
G01X126394Y16689D02*
G01X126394Y18870D01*
G01X127605Y18870D01*
G01X127605Y16689D01*
G01X126394Y16689D01*
G37*
G36*
G01X123854Y16689D02*
G01X123854Y18870D01*
G01X125065Y18870D01*
G01X125065Y16689D01*
G01X123854Y16689D01*
G37*
G54D25*
G01X123190Y31750D03*
G54D26*
G01X125730Y31750D03*
G01X128270Y31750D03*
G01X130810Y31750D03*
G01X133350Y31750D03*
G01X135890Y31750D03*
G01X138430Y31750D03*
G01X140970Y31750D03*
G01X143510Y31750D03*
G01X143510Y39370D03*
G01X140970Y39370D03*
G01X138430Y39370D03*
G01X135890Y39370D03*
G01X133350Y39370D03*
G01X130810Y39370D03*
G01X128270Y39370D03*
G01X125730Y39370D03*
G01X123190Y39370D03*
G36*
G01X59840Y55990D02*
G01X57840Y55990D01*
G01X57840Y57990D01*
G01X59840Y57990D01*
G01X59840Y55990D01*
G37*
G54D17*
G01X56339Y54390D03*
G01X52839Y53589D03*
G01X49539Y54989D03*
G01X47640Y57989D03*
G01X47740Y61390D03*
G01X49639Y64190D03*
G01X52939Y65490D03*
G01X56240Y64789D03*
G01X58639Y62390D03*
G36*
G01X45714Y9029D02*
G01X45714Y11210D01*
G01X46925Y11210D01*
G01X46925Y9029D01*
G01X45714Y9029D01*
G37*
G36*
G01X48254Y9029D02*
G01X48254Y11210D01*
G01X49465Y11210D01*
G01X49465Y9029D01*
G01X48254Y9029D01*
G37*
G36*
G01X50794Y9029D02*
G01X50794Y11210D01*
G01X52005Y11210D01*
G01X52005Y9029D01*
G01X50794Y9029D01*
G37*
G36*
G01X53334Y9029D02*
G01X53334Y11210D01*
G01X54545Y11210D01*
G01X54545Y9029D01*
G01X53334Y9029D01*
G37*
G36*
G01X55874Y9029D02*
G01X55874Y11210D01*
G01X57085Y11210D01*
G01X57085Y9029D01*
G01X55874Y9029D01*
G37*
G36*
G01X58414Y9029D02*
G01X58414Y11210D01*
G01X59625Y11210D01*
G01X59625Y9029D01*
G01X58414Y9029D01*
G37*
G36*
G01X60954Y9029D02*
G01X60954Y11210D01*
G01X62165Y11210D01*
G01X62165Y9029D01*
G01X60954Y9029D01*
G37*
G36*
G01X63494Y9029D02*
G01X63494Y11210D01*
G01X64705Y11210D01*
G01X64705Y9029D01*
G01X63494Y9029D01*
G37*
G36*
G01X63494Y16649D02*
G01X63494Y18830D01*
G01X64705Y18830D01*
G01X64705Y16649D01*
G01X63494Y16649D01*
G37*
G36*
G01X60954Y16649D02*
G01X60954Y18830D01*
G01X62165Y18830D01*
G01X62165Y16649D01*
G01X60954Y16649D01*
G37*
G36*
G01X58414Y16649D02*
G01X58414Y18830D01*
G01X59625Y18830D01*
G01X59625Y16649D01*
G01X58414Y16649D01*
G37*
G36*
G01X55874Y16649D02*
G01X55874Y18830D01*
G01X57085Y18830D01*
G01X57085Y16649D01*
G01X55874Y16649D01*
G37*
G36*
G01X53334Y16649D02*
G01X53334Y18830D01*
G01X54545Y18830D01*
G01X54545Y16649D01*
G01X53334Y16649D01*
G37*
G36*
G01X50794Y16649D02*
G01X50794Y18830D01*
G01X52005Y18830D01*
G01X52005Y16649D01*
G01X50794Y16649D01*
G37*
G36*
G01X48254Y16649D02*
G01X48254Y18830D01*
G01X49465Y18830D01*
G01X49465Y16649D01*
G01X48254Y16649D01*
G37*
G36*
G01X45714Y16649D02*
G01X45714Y18830D01*
G01X46925Y18830D01*
G01X46925Y16649D01*
G01X45714Y16649D01*
G37*
G54D25*
G01X45049Y31709D03*
G54D26*
G01X47589Y31709D03*
G01X50129Y31709D03*
G01X52669Y31709D03*
G01X55209Y31709D03*
G01X57749Y31709D03*
G01X60289Y31709D03*
G01X62829Y31709D03*
G01X65369Y31709D03*
G01X65369Y39329D03*
G01X62829Y39329D03*
G01X60289Y39329D03*
G01X57749Y39329D03*
G01X55209Y39329D03*
G01X52669Y39329D03*
G01X50129Y39329D03*
G01X47589Y39329D03*
G01X45049Y39329D03*
G36*
G01X176680Y55990D02*
G01X174680Y55990D01*
G01X174680Y57990D01*
G01X176680Y57990D01*
G01X176680Y55990D01*
G37*
G54D17*
G01X173179Y54390D03*
G01X169679Y53589D03*
G01X166379Y54989D03*
G01X164480Y57989D03*
G01X164580Y61390D03*
G01X166479Y64190D03*
G01X169779Y65490D03*
G01X173080Y64789D03*
G01X175479Y62390D03*
G36*
G01X161954Y9069D02*
G01X161954Y11250D01*
G01X163165Y11250D01*
G01X163165Y9069D01*
G01X161954Y9069D01*
G37*
G36*
G01X164494Y9069D02*
G01X164494Y11250D01*
G01X165705Y11250D01*
G01X165705Y9069D01*
G01X164494Y9069D01*
G37*
G36*
G01X167034Y9069D02*
G01X167034Y11250D01*
G01X168245Y11250D01*
G01X168245Y9069D01*
G01X167034Y9069D01*
G37*
G36*
G01X169574Y9069D02*
G01X169574Y11250D01*
G01X170785Y11250D01*
G01X170785Y9069D01*
G01X169574Y9069D01*
G37*
G36*
G01X172114Y9069D02*
G01X172114Y11250D01*
G01X173325Y11250D01*
G01X173325Y9069D01*
G01X172114Y9069D01*
G37*
G36*
G01X174654Y9069D02*
G01X174654Y11250D01*
G01X175865Y11250D01*
G01X175865Y9069D01*
G01X174654Y9069D01*
G37*
G36*
G01X177194Y9069D02*
G01X177194Y11250D01*
G01X178405Y11250D01*
G01X178405Y9069D01*
G01X177194Y9069D01*
G37*
G36*
G01X179734Y9069D02*
G01X179734Y11250D01*
G01X180945Y11250D01*
G01X180945Y9069D01*
G01X179734Y9069D01*
G37*
G36*
G01X179734Y16689D02*
G01X179734Y18870D01*
G01X180945Y18870D01*
G01X180945Y16689D01*
G01X179734Y16689D01*
G37*
G36*
G01X177194Y16689D02*
G01X177194Y18870D01*
G01X178405Y18870D01*
G01X178405Y16689D01*
G01X177194Y16689D01*
G37*
G36*
G01X174654Y16689D02*
G01X174654Y18870D01*
G01X175865Y18870D01*
G01X175865Y16689D01*
G01X174654Y16689D01*
G37*
G36*
G01X172114Y16689D02*
G01X172114Y18870D01*
G01X173325Y18870D01*
G01X173325Y16689D01*
G01X172114Y16689D01*
G37*
G36*
G01X169574Y16689D02*
G01X169574Y18870D01*
G01X170785Y18870D01*
G01X170785Y16689D01*
G01X169574Y16689D01*
G37*
G36*
G01X167034Y16689D02*
G01X167034Y18870D01*
G01X168245Y18870D01*
G01X168245Y16689D01*
G01X167034Y16689D01*
G37*
G36*
G01X164494Y16689D02*
G01X164494Y18870D01*
G01X165705Y18870D01*
G01X165705Y16689D01*
G01X164494Y16689D01*
G37*
G36*
G01X161954Y16689D02*
G01X161954Y18870D01*
G01X163165Y18870D01*
G01X163165Y16689D01*
G01X161954Y16689D01*
G37*
G54D25*
G01X161290Y31750D03*
G54D26*
G01X163830Y31750D03*
G01X166370Y31750D03*
G01X168910Y31750D03*
G01X171450Y31750D03*
G01X173990Y31750D03*
G01X176530Y31750D03*
G01X179070Y31750D03*
G01X181610Y31750D03*
G01X181610Y39370D03*
G01X179070Y39370D03*
G01X176530Y39370D03*
G01X173990Y39370D03*
G01X171450Y39370D03*
G01X168910Y39370D03*
G01X166370Y39370D03*
G01X163830Y39370D03*
G01X161290Y39370D03*
G36*
G01X101750Y55990D02*
G01X99750Y55990D01*
G01X99750Y57990D01*
G01X101750Y57990D01*
G01X101750Y55990D01*
G37*
G54D17*
G01X98249Y54390D03*
G01X94749Y53589D03*
G01X91449Y54989D03*
G01X89550Y57989D03*
G01X89650Y61390D03*
G01X91549Y64190D03*
G01X94849Y65490D03*
G01X98150Y64789D03*
G01X100549Y62390D03*
G36*
G01X87024Y9069D02*
G01X87024Y11250D01*
G01X88235Y11250D01*
G01X88235Y9069D01*
G01X87024Y9069D01*
G37*
G36*
G01X89564Y9069D02*
G01X89564Y11250D01*
G01X90775Y11250D01*
G01X90775Y9069D01*
G01X89564Y9069D01*
G37*
G36*
G01X92104Y9069D02*
G01X92104Y11250D01*
G01X93315Y11250D01*
G01X93315Y9069D01*
G01X92104Y9069D01*
G37*
G36*
G01X94644Y9069D02*
G01X94644Y11250D01*
G01X95855Y11250D01*
G01X95855Y9069D01*
G01X94644Y9069D01*
G37*
G36*
G01X97184Y9069D02*
G01X97184Y11250D01*
G01X98395Y11250D01*
G01X98395Y9069D01*
G01X97184Y9069D01*
G37*
G36*
G01X99724Y9069D02*
G01X99724Y11250D01*
G01X100935Y11250D01*
G01X100935Y9069D01*
G01X99724Y9069D01*
G37*
G36*
G01X102264Y9069D02*
G01X102264Y11250D01*
G01X103475Y11250D01*
G01X103475Y9069D01*
G01X102264Y9069D01*
G37*
G36*
G01X104804Y9069D02*
G01X104804Y11250D01*
G01X106015Y11250D01*
G01X106015Y9069D01*
G01X104804Y9069D01*
G37*
G36*
G01X104804Y16689D02*
G01X104804Y18870D01*
G01X106015Y18870D01*
G01X106015Y16689D01*
G01X104804Y16689D01*
G37*
G36*
G01X102264Y16689D02*
G01X102264Y18870D01*
G01X103475Y18870D01*
G01X103475Y16689D01*
G01X102264Y16689D01*
G37*
G36*
G01X99724Y16689D02*
G01X99724Y18870D01*
G01X100935Y18870D01*
G01X100935Y16689D01*
G01X99724Y16689D01*
G37*
G36*
G01X97184Y16689D02*
G01X97184Y18870D01*
G01X98395Y18870D01*
G01X98395Y16689D01*
G01X97184Y16689D01*
G37*
G36*
G01X94644Y16689D02*
G01X94644Y18870D01*
G01X95855Y18870D01*
G01X95855Y16689D01*
G01X94644Y16689D01*
G37*
G36*
G01X92104Y16689D02*
G01X92104Y18870D01*
G01X93315Y18870D01*
G01X93315Y16689D01*
G01X92104Y16689D01*
G37*
G36*
G01X89564Y16689D02*
G01X89564Y18870D01*
G01X90775Y18870D01*
G01X90775Y16689D01*
G01X89564Y16689D01*
G37*
G36*
G01X87024Y16689D02*
G01X87024Y18870D01*
G01X88235Y18870D01*
G01X88235Y16689D01*
G01X87024Y16689D01*
G37*
G54D25*
G01X85090Y31750D03*
G54D26*
G01X87630Y31750D03*
G01X90170Y31750D03*
G01X92710Y31750D03*
G01X95250Y31750D03*
G01X97790Y31750D03*
G01X100330Y31750D03*
G01X102870Y31750D03*
G01X105410Y31750D03*
G01X105410Y39370D03*
G01X102870Y39370D03*
G01X100330Y39370D03*
G01X97790Y39370D03*
G01X95250Y39370D03*
G01X92710Y39370D03*
G01X90170Y39370D03*
G01X87630Y39370D03*
G01X85090Y39370D03*
G36*
G01X26150Y55950D02*
G01X24150Y55950D01*
G01X24150Y57949D01*
G01X26150Y57949D01*
G01X26150Y55950D01*
G37*
G54D17*
G01X22649Y54349D03*
G01X19149Y53549D03*
G01X15849Y54949D03*
G01X13950Y57949D03*
G01X14050Y61349D03*
G01X15949Y64149D03*
G01X19249Y65449D03*
G01X22550Y64749D03*
G01X24949Y62349D03*
G36*
G01X8884Y9029D02*
G01X8884Y11210D01*
G01X10095Y11210D01*
G01X10095Y9029D01*
G01X8884Y9029D01*
G37*
G36*
G01X11424Y9029D02*
G01X11424Y11210D01*
G01X12635Y11210D01*
G01X12635Y9029D01*
G01X11424Y9029D01*
G37*
G36*
G01X13964Y9029D02*
G01X13964Y11210D01*
G01X15175Y11210D01*
G01X15175Y9029D01*
G01X13964Y9029D01*
G37*
G36*
G01X16504Y9029D02*
G01X16504Y11210D01*
G01X17715Y11210D01*
G01X17715Y9029D01*
G01X16504Y9029D01*
G37*
G36*
G01X19044Y9029D02*
G01X19044Y11210D01*
G01X20255Y11210D01*
G01X20255Y9029D01*
G01X19044Y9029D01*
G37*
G36*
G01X21584Y9029D02*
G01X21584Y11210D01*
G01X22795Y11210D01*
G01X22795Y9029D01*
G01X21584Y9029D01*
G37*
G36*
G01X24124Y9029D02*
G01X24124Y11210D01*
G01X25335Y11210D01*
G01X25335Y9029D01*
G01X24124Y9029D01*
G37*
G36*
G01X26664Y9029D02*
G01X26664Y11210D01*
G01X27875Y11210D01*
G01X27875Y9029D01*
G01X26664Y9029D01*
G37*
G36*
G01X26664Y16649D02*
G01X26664Y18830D01*
G01X27875Y18830D01*
G01X27875Y16649D01*
G01X26664Y16649D01*
G37*
G36*
G01X24124Y16649D02*
G01X24124Y18830D01*
G01X25335Y18830D01*
G01X25335Y16649D01*
G01X24124Y16649D01*
G37*
G36*
G01X21584Y16649D02*
G01X21584Y18830D01*
G01X22795Y18830D01*
G01X22795Y16649D01*
G01X21584Y16649D01*
G37*
G36*
G01X19044Y16649D02*
G01X19044Y18830D01*
G01X20255Y18830D01*
G01X20255Y16649D01*
G01X19044Y16649D01*
G37*
G36*
G01X16504Y16649D02*
G01X16504Y18830D01*
G01X17715Y18830D01*
G01X17715Y16649D01*
G01X16504Y16649D01*
G37*
G36*
G01X13964Y16649D02*
G01X13964Y18830D01*
G01X15175Y18830D01*
G01X15175Y16649D01*
G01X13964Y16649D01*
G37*
G36*
G01X11424Y16649D02*
G01X11424Y18830D01*
G01X12635Y18830D01*
G01X12635Y16649D01*
G01X11424Y16649D01*
G37*
G36*
G01X8884Y16649D02*
G01X8884Y18830D01*
G01X10095Y18830D01*
G01X10095Y16649D01*
G01X8884Y16649D01*
G37*
G54D25*
G01X8219Y31709D03*
G54D26*
G01X10759Y31709D03*
G01X13299Y31709D03*
G01X15839Y31709D03*
G01X18379Y31709D03*
G01X20919Y31709D03*
G01X23459Y31709D03*
G01X25999Y31709D03*
G01X28539Y31709D03*
G01X28539Y39329D03*
G01X25999Y39329D03*
G01X23459Y39329D03*
G01X20919Y39329D03*
G01X18379Y39329D03*
G01X15839Y39329D03*
G01X13299Y39329D03*
G01X10759Y39329D03*
G01X8219Y39329D03*
G54D18*
G01X94615Y119114D03*
G01X94615Y117613D03*
G54D27*
G01X154940Y119380D03*
G01X154940Y116840D03*
G01X149860Y119380D03*
G01X149860Y116840D03*
G01X144780Y119380D03*
G01X144780Y116840D03*
G01X139700Y119380D03*
G01X139700Y116840D03*
G01X134620Y119380D03*
G01X134620Y116840D03*
G01X129540Y119380D03*
G01X129540Y116840D03*
G01X124460Y119380D03*
G01X124460Y116840D03*
G01X119380Y119380D03*
G01X119380Y116840D03*
G01X114300Y119380D03*
G01X114300Y116840D03*
G36*
G01X210300Y55950D02*
G01X208300Y55950D01*
G01X208300Y57949D01*
G01X210300Y57949D01*
G01X210300Y55950D01*
G37*
G54D17*
G01X206799Y54349D03*
G01X203299Y53549D03*
G01X199999Y54949D03*
G01X198100Y57949D03*
G01X198200Y61349D03*
G01X200099Y64149D03*
G01X203399Y65449D03*
G01X206700Y64749D03*
G01X209099Y62349D03*
G54D12*
G01X115051Y18133D03*
G01X160969Y27101D03*
G01X197421Y87774D03*
G01X96621Y19621D03*
G01X203931Y62364D03*
G01X174124Y59636D03*
G01X201383Y24744D03*
G01X185384Y24744D03*
G01X180751Y54780D03*
G01X184419Y54780D03*
G01X54155Y60957D03*
G01X106512Y54650D03*
G01X216090Y50327D03*
G01X66070Y108544D03*
G01X64419Y12377D03*
G01X87955Y65486D03*
G01X67602Y66159D03*
G01X44978Y51645D03*
G01X27520Y51645D03*
G01X32331Y57429D03*
G01X131853Y104373D03*
G01X203608Y47787D03*
G01X40114Y53238D03*
G01X209364Y22354D03*
G01X183741Y24190D03*
G01X175260Y22781D03*
G01X155978Y6804D03*
G01X146644Y21810D03*
G01X33703Y13881D03*
G01X70017Y15847D03*
G01X132158Y29029D03*
G01X163118Y29380D03*
G01X118435Y16136D03*
G01X64803Y22275D03*
G01X102054Y22209D03*
G01X39192Y14676D03*
G01X39436Y31709D03*
G01X107530Y59971D03*
G01X106680Y27767D03*
G01X99232Y27767D03*
G01X205894Y59641D03*
G01X217187Y59535D03*
G01X188749Y26522D03*
G01X205003Y52461D03*
G01X134500Y49298D03*
G01X119407Y62605D03*
G01X118704Y46306D03*
G01X119029Y68178D03*
G01X114386Y44698D03*
G01X109067Y33401D03*
G01X107929Y32235D03*
G01X169219Y21051D03*
G01X128993Y13682D03*
G01X59306Y21790D03*
G01X119296Y66324D03*
G01X124449Y66324D03*
G01X134084Y60327D03*
G01X127914Y61442D03*
G01X120096Y53637D03*
G01X97995Y56692D03*
G54D28*
G01X10079Y110284D02*
G01X7779Y110284D01*
G01X7779Y116283D02*
G01X10079Y116283D01*
G01X4278Y111833D02*
G01X4278Y113733D01*
M00*
M02*
