G04 Layer: BottomSolderMaskLayer*
G04 EasyEDA v6.1.52, Wed, 14 Aug 2019 16:00:45 GMT*
G04 61fb33ea13684dee95186c9376e4e459,bc0df6a87cf9400f99ff9c89e133bbb9,10*
G04 Gerber Generator version 0.2*
G04 Scale: 100 percent, Rotated: No, Reflected: No *
G04 Dimensions in millimeters *
G04 leading zeros omitted , absolute positions ,3 integer and 3 decimal *
%FSLAX33Y33*%
%MOMM*%
G90*
G71D02*

%ADD26C,1.397000*%
%ADD37C,1.703197*%
%ADD39C,2.703195*%
%ADD40C,1.403096*%
%ADD42C,2.203196*%
%ADD43C,1.203198*%
%ADD44C,1.727200*%
%ADD45C,2.082800*%
%ADD46C,3.003194*%
%ADD47R,1.981200X1.981200*%
%ADD48C,1.981200*%
%ADD50R,1.600200X1.600200*%
%ADD51C,1.600200*%

%LPD*%
G54D37*
G01X10079Y110284D02*
G01X7779Y110284D01*
G01X7779Y116283D02*
G01X10079Y116283D01*
G01X4278Y111833D02*
G01X4278Y113733D01*
G36*
G01X200449Y57548D02*
G01X200449Y58750D01*
G01X202150Y58750D01*
G01X202150Y57548D01*
G01X200449Y57548D01*
G37*
G36*
G01X200449Y60548D02*
G01X200449Y61749D01*
G01X202150Y61749D01*
G01X202150Y60548D01*
G01X200449Y60548D01*
G37*
G36*
G01X205447Y60548D02*
G01X205447Y61749D01*
G01X207152Y61749D01*
G01X207152Y60548D01*
G01X205447Y60548D01*
G37*
G36*
G01X205447Y57548D02*
G01X205447Y58750D01*
G01X207152Y58750D01*
G01X207152Y57548D01*
G01X205447Y57548D01*
G37*
G36*
G01X166829Y57589D02*
G01X166829Y58790D01*
G01X168531Y58790D01*
G01X168531Y57589D01*
G01X166829Y57589D01*
G37*
G36*
G01X166829Y60589D02*
G01X166829Y61790D01*
G01X168531Y61790D01*
G01X168531Y60589D01*
G01X166829Y60589D01*
G37*
G36*
G01X171828Y60589D02*
G01X171828Y61790D01*
G01X173532Y61790D01*
G01X173532Y60589D01*
G01X171828Y60589D01*
G37*
G36*
G01X171828Y57589D02*
G01X171828Y58790D01*
G01X173532Y58790D01*
G01X173532Y57589D01*
G01X171828Y57589D01*
G37*
G36*
G01X124919Y57589D02*
G01X124919Y58790D01*
G01X126621Y58790D01*
G01X126621Y57589D01*
G01X124919Y57589D01*
G37*
G36*
G01X124919Y60589D02*
G01X124919Y61790D01*
G01X126621Y61790D01*
G01X126621Y60589D01*
G01X124919Y60589D01*
G37*
G36*
G01X129918Y60589D02*
G01X129918Y61790D01*
G01X131622Y61790D01*
G01X131622Y60589D01*
G01X129918Y60589D01*
G37*
G36*
G01X129918Y57589D02*
G01X129918Y58790D01*
G01X131622Y58790D01*
G01X131622Y57589D01*
G01X129918Y57589D01*
G37*
G36*
G01X91899Y57589D02*
G01X91899Y58790D01*
G01X93601Y58790D01*
G01X93601Y57589D01*
G01X91899Y57589D01*
G37*
G36*
G01X91899Y60589D02*
G01X91899Y61790D01*
G01X93601Y61790D01*
G01X93601Y60589D01*
G01X91899Y60589D01*
G37*
G36*
G01X96898Y60589D02*
G01X96898Y61790D01*
G01X98602Y61790D01*
G01X98602Y60589D01*
G01X96898Y60589D01*
G37*
G36*
G01X96898Y57589D02*
G01X96898Y58790D01*
G01X98602Y58790D01*
G01X98602Y57589D01*
G01X96898Y57589D01*
G37*
G36*
G01X49989Y57589D02*
G01X49989Y58790D01*
G01X51691Y58790D01*
G01X51691Y57589D01*
G01X49989Y57589D01*
G37*
G36*
G01X49989Y60589D02*
G01X49989Y61790D01*
G01X51691Y61790D01*
G01X51691Y60589D01*
G01X49989Y60589D01*
G37*
G36*
G01X54988Y60589D02*
G01X54988Y61790D01*
G01X56692Y61790D01*
G01X56692Y60589D01*
G01X54988Y60589D01*
G37*
G36*
G01X54988Y57589D02*
G01X54988Y58790D01*
G01X56692Y58790D01*
G01X56692Y57589D01*
G01X54988Y57589D01*
G37*
G36*
G01X16299Y57548D02*
G01X16299Y58750D01*
G01X18000Y58750D01*
G01X18000Y57548D01*
G01X16299Y57548D01*
G37*
G36*
G01X16299Y60548D02*
G01X16299Y61749D01*
G01X18000Y61749D01*
G01X18000Y60548D01*
G01X16299Y60548D01*
G37*
G36*
G01X21297Y60548D02*
G01X21297Y61749D01*
G01X23002Y61749D01*
G01X23002Y60548D01*
G01X21297Y60548D01*
G37*
G36*
G01X21297Y57548D02*
G01X21297Y58750D01*
G01X23002Y58750D01*
G01X23002Y57548D01*
G01X21297Y57548D01*
G37*
G36*
G01X51300Y101125D02*
G01X51300Y103830D01*
G01X54005Y103830D01*
G01X54005Y101125D01*
G01X51300Y101125D01*
G37*
G36*
G01X20820Y101125D02*
G01X20820Y103830D01*
G01X23525Y103830D01*
G01X23525Y101125D01*
G01X20820Y101125D01*
G37*
G54D39*
G01X52652Y110097D03*
G01X22172Y110097D03*
G54D40*
G01X12065Y103083D03*
G01X12065Y98084D03*
G01X4445Y103083D03*
G01X4445Y98084D03*
G36*
G01X63139Y93723D02*
G01X63139Y95928D01*
G01X65341Y95928D01*
G01X65341Y93723D01*
G01X63139Y93723D01*
G37*
G54D42*
G01X67839Y93134D03*
G01X64240Y91440D03*
G01X67839Y89745D03*
G01X64240Y88054D03*
G54D43*
G01X86995Y119114D03*
G01X86995Y117613D03*
G01X79375Y119114D03*
G01X79375Y117613D03*
G54D44*
G01X86995Y101874D03*
G01X84495Y104373D03*
G01X89495Y104373D03*
G54D45*
G01X100330Y100330D03*
G01X100330Y107950D03*
G01X62865Y118364D03*
G01X73025Y118364D03*
G54D46*
G01X75445Y110744D03*
G01X60444Y110744D03*
G54D47*
G01X180340Y101600D03*
G54D48*
G01X182880Y101600D03*
G01X185420Y101600D03*
G01X187960Y101600D03*
G01X190500Y101600D03*
G01X193040Y101600D03*
G01X195580Y101600D03*
G01X198120Y101600D03*
G01X200660Y101600D03*
G01X203200Y101600D03*
G01X205740Y101600D03*
G01X208280Y101600D03*
G01X210820Y101600D03*
G01X213360Y101600D03*
G01X215900Y101600D03*
G01X180340Y116840D03*
G01X182880Y116840D03*
G01X185420Y116840D03*
G01X187960Y116840D03*
G01X190500Y116840D03*
G01X193040Y116840D03*
G01X195580Y116840D03*
G01X198120Y116840D03*
G01X200660Y116840D03*
G01X203200Y116840D03*
G01X205740Y116840D03*
G01X208280Y116840D03*
G01X210820Y116840D03*
G01X213360Y116840D03*
G01X215900Y116840D03*
G54D42*
G01X161290Y95250D03*
G01X161290Y92710D03*
G01X161290Y90170D03*
G01X161290Y87630D03*
G54D45*
G01X181610Y81280D03*
G01X173990Y81280D03*
G01X194310Y81280D03*
G01X186690Y81280D03*
G01X207010Y81280D03*
G01X199390Y81280D03*
G01X212090Y81280D03*
G01X219710Y81280D03*
G54D42*
G01X179070Y87630D03*
G01X184150Y87630D03*
G01X199390Y87630D03*
G01X204470Y87630D03*
G01X189230Y87630D03*
G01X194310Y87630D03*
G01X209550Y87630D03*
G01X214630Y87630D03*
G36*
G01X196743Y8928D02*
G01X196743Y11313D01*
G01X198158Y11313D01*
G01X198158Y8928D01*
G01X196743Y8928D01*
G37*
G36*
G01X199283Y8928D02*
G01X199283Y11313D01*
G01X200698Y11313D01*
G01X200698Y8928D01*
G01X199283Y8928D01*
G37*
G36*
G01X201823Y8928D02*
G01X201823Y11313D01*
G01X203238Y11313D01*
G01X203238Y8928D01*
G01X201823Y8928D01*
G37*
G36*
G01X204363Y8928D02*
G01X204363Y11313D01*
G01X205778Y11313D01*
G01X205778Y8928D01*
G01X204363Y8928D01*
G37*
G36*
G01X206903Y8928D02*
G01X206903Y11313D01*
G01X208318Y11313D01*
G01X208318Y8928D01*
G01X206903Y8928D01*
G37*
G36*
G01X209443Y8928D02*
G01X209443Y11313D01*
G01X210858Y11313D01*
G01X210858Y8928D01*
G01X209443Y8928D01*
G37*
G36*
G01X211983Y8928D02*
G01X211983Y11313D01*
G01X213398Y11313D01*
G01X213398Y8928D01*
G01X211983Y8928D01*
G37*
G36*
G01X214523Y8928D02*
G01X214523Y11313D01*
G01X215938Y11313D01*
G01X215938Y8928D01*
G01X214523Y8928D01*
G37*
G36*
G01X214523Y16548D02*
G01X214523Y18933D01*
G01X215938Y18933D01*
G01X215938Y16548D01*
G01X214523Y16548D01*
G37*
G36*
G01X211983Y16548D02*
G01X211983Y18933D01*
G01X213398Y18933D01*
G01X213398Y16548D01*
G01X211983Y16548D01*
G37*
G36*
G01X209443Y16548D02*
G01X209443Y18933D01*
G01X210858Y18933D01*
G01X210858Y16548D01*
G01X209443Y16548D01*
G37*
G36*
G01X206903Y16548D02*
G01X206903Y18933D01*
G01X208318Y18933D01*
G01X208318Y16548D01*
G01X206903Y16548D01*
G37*
G36*
G01X204363Y16548D02*
G01X204363Y18933D01*
G01X205778Y18933D01*
G01X205778Y16548D01*
G01X204363Y16548D01*
G37*
G36*
G01X201823Y16548D02*
G01X201823Y18933D01*
G01X203238Y18933D01*
G01X203238Y16548D01*
G01X201823Y16548D01*
G37*
G36*
G01X199283Y16548D02*
G01X199283Y18933D01*
G01X200698Y18933D01*
G01X200698Y16548D01*
G01X199283Y16548D01*
G37*
G36*
G01X196743Y16548D02*
G01X196743Y18933D01*
G01X198158Y18933D01*
G01X198158Y16548D01*
G01X196743Y16548D01*
G37*
G54D50*
G01X196179Y31709D03*
G54D51*
G01X198719Y31709D03*
G01X201259Y31709D03*
G01X203799Y31709D03*
G01X206339Y31709D03*
G01X208879Y31709D03*
G01X211419Y31709D03*
G01X213959Y31709D03*
G01X216499Y31709D03*
G01X216499Y39329D03*
G01X213959Y39329D03*
G01X211419Y39329D03*
G01X208879Y39329D03*
G01X206339Y39329D03*
G01X203799Y39329D03*
G01X201259Y39329D03*
G01X198719Y39329D03*
G01X196179Y39329D03*
G36*
G01X132669Y55887D02*
G01X132669Y58092D01*
G01X134871Y58092D01*
G01X134871Y55887D01*
G01X132669Y55887D01*
G37*
G54D42*
G01X131269Y54390D03*
G01X127769Y53589D03*
G01X124469Y54989D03*
G01X122570Y57989D03*
G01X122670Y61390D03*
G01X124569Y64190D03*
G01X127869Y65490D03*
G01X131170Y64789D03*
G01X133569Y62390D03*
G36*
G01X123753Y8966D02*
G01X123753Y11351D01*
G01X125168Y11351D01*
G01X125168Y8966D01*
G01X123753Y8966D01*
G37*
G36*
G01X126293Y8966D02*
G01X126293Y11351D01*
G01X127708Y11351D01*
G01X127708Y8966D01*
G01X126293Y8966D01*
G37*
G36*
G01X128833Y8966D02*
G01X128833Y11351D01*
G01X130248Y11351D01*
G01X130248Y8966D01*
G01X128833Y8966D01*
G37*
G36*
G01X131373Y8966D02*
G01X131373Y11351D01*
G01X132788Y11351D01*
G01X132788Y8966D01*
G01X131373Y8966D01*
G37*
G36*
G01X133913Y8966D02*
G01X133913Y11351D01*
G01X135328Y11351D01*
G01X135328Y8966D01*
G01X133913Y8966D01*
G37*
G36*
G01X136453Y8966D02*
G01X136453Y11351D01*
G01X137868Y11351D01*
G01X137868Y8966D01*
G01X136453Y8966D01*
G37*
G36*
G01X138993Y8966D02*
G01X138993Y11351D01*
G01X140408Y11351D01*
G01X140408Y8966D01*
G01X138993Y8966D01*
G37*
G36*
G01X141533Y8966D02*
G01X141533Y11351D01*
G01X142948Y11351D01*
G01X142948Y8966D01*
G01X141533Y8966D01*
G37*
G36*
G01X141533Y16586D02*
G01X141533Y18971D01*
G01X142948Y18971D01*
G01X142948Y16586D01*
G01X141533Y16586D01*
G37*
G36*
G01X138993Y16586D02*
G01X138993Y18971D01*
G01X140408Y18971D01*
G01X140408Y16586D01*
G01X138993Y16586D01*
G37*
G36*
G01X136453Y16586D02*
G01X136453Y18971D01*
G01X137868Y18971D01*
G01X137868Y16586D01*
G01X136453Y16586D01*
G37*
G36*
G01X133913Y16586D02*
G01X133913Y18971D01*
G01X135328Y18971D01*
G01X135328Y16586D01*
G01X133913Y16586D01*
G37*
G36*
G01X131373Y16586D02*
G01X131373Y18971D01*
G01X132788Y18971D01*
G01X132788Y16586D01*
G01X131373Y16586D01*
G37*
G36*
G01X128833Y16586D02*
G01X128833Y18971D01*
G01X130248Y18971D01*
G01X130248Y16586D01*
G01X128833Y16586D01*
G37*
G36*
G01X126293Y16586D02*
G01X126293Y18971D01*
G01X127708Y18971D01*
G01X127708Y16586D01*
G01X126293Y16586D01*
G37*
G36*
G01X123753Y16586D02*
G01X123753Y18971D01*
G01X125168Y18971D01*
G01X125168Y16586D01*
G01X123753Y16586D01*
G37*
G54D50*
G01X123190Y31750D03*
G54D51*
G01X125730Y31750D03*
G01X128270Y31750D03*
G01X130810Y31750D03*
G01X133350Y31750D03*
G01X135890Y31750D03*
G01X138430Y31750D03*
G01X140970Y31750D03*
G01X143510Y31750D03*
G01X143510Y39370D03*
G01X140970Y39370D03*
G01X138430Y39370D03*
G01X135890Y39370D03*
G01X133350Y39370D03*
G01X130810Y39370D03*
G01X128270Y39370D03*
G01X125730Y39370D03*
G01X123190Y39370D03*
G36*
G01X57739Y55887D02*
G01X57739Y58092D01*
G01X59941Y58092D01*
G01X59941Y55887D01*
G01X57739Y55887D01*
G37*
G54D42*
G01X56339Y54390D03*
G01X52839Y53589D03*
G01X49539Y54989D03*
G01X47640Y57989D03*
G01X47740Y61390D03*
G01X49639Y64190D03*
G01X52939Y65490D03*
G01X56240Y64789D03*
G01X58639Y62390D03*
G36*
G01X45613Y8928D02*
G01X45613Y11313D01*
G01X47028Y11313D01*
G01X47028Y8928D01*
G01X45613Y8928D01*
G37*
G36*
G01X48153Y8928D02*
G01X48153Y11313D01*
G01X49568Y11313D01*
G01X49568Y8928D01*
G01X48153Y8928D01*
G37*
G36*
G01X50693Y8928D02*
G01X50693Y11313D01*
G01X52108Y11313D01*
G01X52108Y8928D01*
G01X50693Y8928D01*
G37*
G36*
G01X53233Y8928D02*
G01X53233Y11313D01*
G01X54648Y11313D01*
G01X54648Y8928D01*
G01X53233Y8928D01*
G37*
G36*
G01X55773Y8928D02*
G01X55773Y11313D01*
G01X57188Y11313D01*
G01X57188Y8928D01*
G01X55773Y8928D01*
G37*
G36*
G01X58313Y8928D02*
G01X58313Y11313D01*
G01X59728Y11313D01*
G01X59728Y8928D01*
G01X58313Y8928D01*
G37*
G36*
G01X60853Y8928D02*
G01X60853Y11313D01*
G01X62268Y11313D01*
G01X62268Y8928D01*
G01X60853Y8928D01*
G37*
G36*
G01X63393Y8928D02*
G01X63393Y11313D01*
G01X64808Y11313D01*
G01X64808Y8928D01*
G01X63393Y8928D01*
G37*
G36*
G01X63393Y16548D02*
G01X63393Y18933D01*
G01X64808Y18933D01*
G01X64808Y16548D01*
G01X63393Y16548D01*
G37*
G36*
G01X60853Y16548D02*
G01X60853Y18933D01*
G01X62268Y18933D01*
G01X62268Y16548D01*
G01X60853Y16548D01*
G37*
G36*
G01X58313Y16548D02*
G01X58313Y18933D01*
G01X59728Y18933D01*
G01X59728Y16548D01*
G01X58313Y16548D01*
G37*
G36*
G01X55773Y16548D02*
G01X55773Y18933D01*
G01X57188Y18933D01*
G01X57188Y16548D01*
G01X55773Y16548D01*
G37*
G36*
G01X53233Y16548D02*
G01X53233Y18933D01*
G01X54648Y18933D01*
G01X54648Y16548D01*
G01X53233Y16548D01*
G37*
G36*
G01X50693Y16548D02*
G01X50693Y18933D01*
G01X52108Y18933D01*
G01X52108Y16548D01*
G01X50693Y16548D01*
G37*
G36*
G01X48153Y16548D02*
G01X48153Y18933D01*
G01X49568Y18933D01*
G01X49568Y16548D01*
G01X48153Y16548D01*
G37*
G36*
G01X45613Y16548D02*
G01X45613Y18933D01*
G01X47028Y18933D01*
G01X47028Y16548D01*
G01X45613Y16548D01*
G37*
G54D50*
G01X45049Y31709D03*
G54D51*
G01X47589Y31709D03*
G01X50129Y31709D03*
G01X52669Y31709D03*
G01X55209Y31709D03*
G01X57749Y31709D03*
G01X60289Y31709D03*
G01X62829Y31709D03*
G01X65369Y31709D03*
G01X65369Y39329D03*
G01X62829Y39329D03*
G01X60289Y39329D03*
G01X57749Y39329D03*
G01X55209Y39329D03*
G01X52669Y39329D03*
G01X50129Y39329D03*
G01X47589Y39329D03*
G01X45049Y39329D03*
G36*
G01X174579Y55887D02*
G01X174579Y58092D01*
G01X176781Y58092D01*
G01X176781Y55887D01*
G01X174579Y55887D01*
G37*
G54D42*
G01X173179Y54390D03*
G01X169679Y53589D03*
G01X166379Y54989D03*
G01X164480Y57989D03*
G01X164580Y61390D03*
G01X166479Y64190D03*
G01X169779Y65490D03*
G01X173080Y64789D03*
G01X175479Y62390D03*
G36*
G01X161853Y8966D02*
G01X161853Y11351D01*
G01X163268Y11351D01*
G01X163268Y8966D01*
G01X161853Y8966D01*
G37*
G36*
G01X164393Y8966D02*
G01X164393Y11351D01*
G01X165808Y11351D01*
G01X165808Y8966D01*
G01X164393Y8966D01*
G37*
G36*
G01X166933Y8966D02*
G01X166933Y11351D01*
G01X168348Y11351D01*
G01X168348Y8966D01*
G01X166933Y8966D01*
G37*
G36*
G01X169473Y8966D02*
G01X169473Y11351D01*
G01X170888Y11351D01*
G01X170888Y8966D01*
G01X169473Y8966D01*
G37*
G36*
G01X172013Y8966D02*
G01X172013Y11351D01*
G01X173428Y11351D01*
G01X173428Y8966D01*
G01X172013Y8966D01*
G37*
G36*
G01X174553Y8966D02*
G01X174553Y11351D01*
G01X175968Y11351D01*
G01X175968Y8966D01*
G01X174553Y8966D01*
G37*
G36*
G01X177093Y8966D02*
G01X177093Y11351D01*
G01X178508Y11351D01*
G01X178508Y8966D01*
G01X177093Y8966D01*
G37*
G36*
G01X179633Y8966D02*
G01X179633Y11351D01*
G01X181048Y11351D01*
G01X181048Y8966D01*
G01X179633Y8966D01*
G37*
G36*
G01X179633Y16586D02*
G01X179633Y18971D01*
G01X181048Y18971D01*
G01X181048Y16586D01*
G01X179633Y16586D01*
G37*
G36*
G01X177093Y16586D02*
G01X177093Y18971D01*
G01X178508Y18971D01*
G01X178508Y16586D01*
G01X177093Y16586D01*
G37*
G36*
G01X174553Y16586D02*
G01X174553Y18971D01*
G01X175968Y18971D01*
G01X175968Y16586D01*
G01X174553Y16586D01*
G37*
G36*
G01X172013Y16586D02*
G01X172013Y18971D01*
G01X173428Y18971D01*
G01X173428Y16586D01*
G01X172013Y16586D01*
G37*
G36*
G01X169473Y16586D02*
G01X169473Y18971D01*
G01X170888Y18971D01*
G01X170888Y16586D01*
G01X169473Y16586D01*
G37*
G36*
G01X166933Y16586D02*
G01X166933Y18971D01*
G01X168348Y18971D01*
G01X168348Y16586D01*
G01X166933Y16586D01*
G37*
G36*
G01X164393Y16586D02*
G01X164393Y18971D01*
G01X165808Y18971D01*
G01X165808Y16586D01*
G01X164393Y16586D01*
G37*
G36*
G01X161853Y16586D02*
G01X161853Y18971D01*
G01X163268Y18971D01*
G01X163268Y16586D01*
G01X161853Y16586D01*
G37*
G54D50*
G01X161290Y31750D03*
G54D51*
G01X163830Y31750D03*
G01X166370Y31750D03*
G01X168910Y31750D03*
G01X171450Y31750D03*
G01X173990Y31750D03*
G01X176530Y31750D03*
G01X179070Y31750D03*
G01X181610Y31750D03*
G01X181610Y39370D03*
G01X179070Y39370D03*
G01X176530Y39370D03*
G01X173990Y39370D03*
G01X171450Y39370D03*
G01X168910Y39370D03*
G01X166370Y39370D03*
G01X163830Y39370D03*
G01X161290Y39370D03*
G36*
G01X99649Y55887D02*
G01X99649Y58092D01*
G01X101851Y58092D01*
G01X101851Y55887D01*
G01X99649Y55887D01*
G37*
G54D42*
G01X98249Y54390D03*
G01X94749Y53589D03*
G01X91449Y54989D03*
G01X89550Y57989D03*
G01X89650Y61390D03*
G01X91549Y64190D03*
G01X94849Y65490D03*
G01X98150Y64789D03*
G01X100549Y62390D03*
G36*
G01X86923Y8966D02*
G01X86923Y11351D01*
G01X88338Y11351D01*
G01X88338Y8966D01*
G01X86923Y8966D01*
G37*
G36*
G01X89463Y8966D02*
G01X89463Y11351D01*
G01X90878Y11351D01*
G01X90878Y8966D01*
G01X89463Y8966D01*
G37*
G36*
G01X92003Y8966D02*
G01X92003Y11351D01*
G01X93418Y11351D01*
G01X93418Y8966D01*
G01X92003Y8966D01*
G37*
G36*
G01X94543Y8966D02*
G01X94543Y11351D01*
G01X95958Y11351D01*
G01X95958Y8966D01*
G01X94543Y8966D01*
G37*
G36*
G01X97083Y8966D02*
G01X97083Y11351D01*
G01X98498Y11351D01*
G01X98498Y8966D01*
G01X97083Y8966D01*
G37*
G36*
G01X99623Y8966D02*
G01X99623Y11351D01*
G01X101038Y11351D01*
G01X101038Y8966D01*
G01X99623Y8966D01*
G37*
G36*
G01X102163Y8966D02*
G01X102163Y11351D01*
G01X103578Y11351D01*
G01X103578Y8966D01*
G01X102163Y8966D01*
G37*
G36*
G01X104703Y8966D02*
G01X104703Y11351D01*
G01X106118Y11351D01*
G01X106118Y8966D01*
G01X104703Y8966D01*
G37*
G36*
G01X104703Y16586D02*
G01X104703Y18971D01*
G01X106118Y18971D01*
G01X106118Y16586D01*
G01X104703Y16586D01*
G37*
G36*
G01X102163Y16586D02*
G01X102163Y18971D01*
G01X103578Y18971D01*
G01X103578Y16586D01*
G01X102163Y16586D01*
G37*
G36*
G01X99623Y16586D02*
G01X99623Y18971D01*
G01X101038Y18971D01*
G01X101038Y16586D01*
G01X99623Y16586D01*
G37*
G36*
G01X97083Y16586D02*
G01X97083Y18971D01*
G01X98498Y18971D01*
G01X98498Y16586D01*
G01X97083Y16586D01*
G37*
G36*
G01X94543Y16586D02*
G01X94543Y18971D01*
G01X95958Y18971D01*
G01X95958Y16586D01*
G01X94543Y16586D01*
G37*
G36*
G01X92003Y16586D02*
G01X92003Y18971D01*
G01X93418Y18971D01*
G01X93418Y16586D01*
G01X92003Y16586D01*
G37*
G36*
G01X89463Y16586D02*
G01X89463Y18971D01*
G01X90878Y18971D01*
G01X90878Y16586D01*
G01X89463Y16586D01*
G37*
G36*
G01X86923Y16586D02*
G01X86923Y18971D01*
G01X88338Y18971D01*
G01X88338Y16586D01*
G01X86923Y16586D01*
G37*
G54D50*
G01X85090Y31750D03*
G54D51*
G01X87630Y31750D03*
G01X90170Y31750D03*
G01X92710Y31750D03*
G01X95250Y31750D03*
G01X97790Y31750D03*
G01X100330Y31750D03*
G01X102870Y31750D03*
G01X105410Y31750D03*
G01X105410Y39370D03*
G01X102870Y39370D03*
G01X100330Y39370D03*
G01X97790Y39370D03*
G01X95250Y39370D03*
G01X92710Y39370D03*
G01X90170Y39370D03*
G01X87630Y39370D03*
G01X85090Y39370D03*
G36*
G01X24048Y55849D02*
G01X24048Y58051D01*
G01X26250Y58051D01*
G01X26250Y55849D01*
G01X24048Y55849D01*
G37*
G54D42*
G01X22649Y54349D03*
G01X19149Y53549D03*
G01X15849Y54949D03*
G01X13950Y57949D03*
G01X14050Y61349D03*
G01X15949Y64149D03*
G01X19249Y65449D03*
G01X22550Y64749D03*
G01X24949Y62349D03*
G36*
G01X8783Y8928D02*
G01X8783Y11313D01*
G01X10198Y11313D01*
G01X10198Y8928D01*
G01X8783Y8928D01*
G37*
G36*
G01X11323Y8928D02*
G01X11323Y11313D01*
G01X12738Y11313D01*
G01X12738Y8928D01*
G01X11323Y8928D01*
G37*
G36*
G01X13863Y8928D02*
G01X13863Y11313D01*
G01X15278Y11313D01*
G01X15278Y8928D01*
G01X13863Y8928D01*
G37*
G36*
G01X16403Y8928D02*
G01X16403Y11313D01*
G01X17818Y11313D01*
G01X17818Y8928D01*
G01X16403Y8928D01*
G37*
G36*
G01X18943Y8928D02*
G01X18943Y11313D01*
G01X20358Y11313D01*
G01X20358Y8928D01*
G01X18943Y8928D01*
G37*
G36*
G01X21483Y8928D02*
G01X21483Y11313D01*
G01X22898Y11313D01*
G01X22898Y8928D01*
G01X21483Y8928D01*
G37*
G36*
G01X24023Y8928D02*
G01X24023Y11313D01*
G01X25438Y11313D01*
G01X25438Y8928D01*
G01X24023Y8928D01*
G37*
G36*
G01X26563Y8928D02*
G01X26563Y11313D01*
G01X27978Y11313D01*
G01X27978Y8928D01*
G01X26563Y8928D01*
G37*
G36*
G01X26563Y16548D02*
G01X26563Y18933D01*
G01X27978Y18933D01*
G01X27978Y16548D01*
G01X26563Y16548D01*
G37*
G36*
G01X24023Y16548D02*
G01X24023Y18933D01*
G01X25438Y18933D01*
G01X25438Y16548D01*
G01X24023Y16548D01*
G37*
G36*
G01X21483Y16548D02*
G01X21483Y18933D01*
G01X22898Y18933D01*
G01X22898Y16548D01*
G01X21483Y16548D01*
G37*
G36*
G01X18943Y16548D02*
G01X18943Y18933D01*
G01X20358Y18933D01*
G01X20358Y16548D01*
G01X18943Y16548D01*
G37*
G36*
G01X16403Y16548D02*
G01X16403Y18933D01*
G01X17818Y18933D01*
G01X17818Y16548D01*
G01X16403Y16548D01*
G37*
G36*
G01X13863Y16548D02*
G01X13863Y18933D01*
G01X15278Y18933D01*
G01X15278Y16548D01*
G01X13863Y16548D01*
G37*
G36*
G01X11323Y16548D02*
G01X11323Y18933D01*
G01X12738Y18933D01*
G01X12738Y16548D01*
G01X11323Y16548D01*
G37*
G36*
G01X8783Y16548D02*
G01X8783Y18933D01*
G01X10198Y18933D01*
G01X10198Y16548D01*
G01X8783Y16548D01*
G37*
G54D50*
G01X8219Y31709D03*
G54D51*
G01X10759Y31709D03*
G01X13299Y31709D03*
G01X15839Y31709D03*
G01X18379Y31709D03*
G01X20919Y31709D03*
G01X23459Y31709D03*
G01X25999Y31709D03*
G01X28539Y31709D03*
G01X28539Y39329D03*
G01X25999Y39329D03*
G01X23459Y39329D03*
G01X20919Y39329D03*
G01X18379Y39329D03*
G01X15839Y39329D03*
G01X13299Y39329D03*
G01X10759Y39329D03*
G01X8219Y39329D03*
G54D43*
G01X94615Y119114D03*
G01X94615Y117613D03*
G54D26*
G01X154940Y119380D03*
G01X154940Y116840D03*
G01X149860Y119380D03*
G01X149860Y116840D03*
G01X144780Y119380D03*
G01X144780Y116840D03*
G01X139700Y119380D03*
G01X139700Y116840D03*
G01X134620Y119380D03*
G01X134620Y116840D03*
G01X129540Y119380D03*
G01X129540Y116840D03*
G01X124460Y119380D03*
G01X124460Y116840D03*
G01X119380Y119380D03*
G01X119380Y116840D03*
G01X114300Y119380D03*
G01X114300Y116840D03*
G36*
G01X208198Y55849D02*
G01X208198Y58051D01*
G01X210400Y58051D01*
G01X210400Y55849D01*
G01X208198Y55849D01*
G37*
G54D42*
G01X206799Y54349D03*
G01X203299Y53549D03*
G01X199999Y54949D03*
G01X198100Y57949D03*
G01X198200Y61349D03*
G01X200099Y64149D03*
G01X203399Y65449D03*
G01X206700Y64749D03*
G01X209099Y62349D03*
M00*
M02*
