G04 Layer: BottomSilkLayer*
G04 EasyEDA v6.1.52, Wed, 14 Aug 2019 16:00:45 GMT*
G04 61fb33ea13684dee95186c9376e4e459,bc0df6a87cf9400f99ff9c89e133bbb9,10*
G04 Gerber Generator version 0.2*
G04 Scale: 100 percent, Rotated: No, Reflected: No *
G04 Dimensions in millimeters *
G04 leading zeros omitted , absolute positions ,3 integer and 3 decimal *
%FSLAX33Y33*%
%MOMM*%
G90*
G71D02*

%ADD10C,0.254000*%
%ADD31C,0.203200*%
%ADD36C,0.152400*%

%LPD*%
G54D10*
G01X201299Y57150D02*
G01X206299Y57150D01*
G01X206299Y62150D01*
G01X201299Y62150D01*
G01X201299Y57150D01*
G01X206499Y61550D02*
G01X206499Y62300D01*
G01X205749Y62300D01*
G01X206499Y61550D01*
G01X205199Y61450D02*
G01X205199Y61850D01*
G01X204799Y61850D01*
G01X205199Y61450D01*
G01X167679Y57190D02*
G01X172679Y57190D01*
G01X172679Y62190D01*
G01X167679Y62190D01*
G01X167679Y57190D01*
G01X172879Y61590D02*
G01X172879Y62340D01*
G01X172129Y62340D01*
G01X172879Y61590D01*
G01X171579Y61490D02*
G01X171579Y61890D01*
G01X171179Y61890D01*
G01X171579Y61490D01*
G01X125769Y57190D02*
G01X130769Y57190D01*
G01X130769Y62190D01*
G01X125769Y62190D01*
G01X125769Y57190D01*
G01X130969Y61590D02*
G01X130969Y62340D01*
G01X130219Y62340D01*
G01X130969Y61590D01*
G01X129669Y61490D02*
G01X129669Y61890D01*
G01X129269Y61890D01*
G01X129669Y61490D01*
G01X92749Y57190D02*
G01X97749Y57190D01*
G01X97749Y62190D01*
G01X92749Y62190D01*
G01X92749Y57190D01*
G01X97949Y61590D02*
G01X97949Y62340D01*
G01X97199Y62340D01*
G01X97949Y61590D01*
G01X96649Y61490D02*
G01X96649Y61890D01*
G01X96249Y61890D01*
G01X96649Y61490D01*
G01X50839Y57190D02*
G01X55839Y57190D01*
G01X55839Y62190D01*
G01X50839Y62190D01*
G01X50839Y57190D01*
G01X56039Y61590D02*
G01X56039Y62340D01*
G01X55289Y62340D01*
G01X56039Y61590D01*
G01X54739Y61490D02*
G01X54739Y61890D01*
G01X54339Y61890D01*
G01X54739Y61490D01*
G01X17149Y57150D02*
G01X22149Y57150D01*
G01X22149Y62150D01*
G01X17149Y62150D01*
G01X17149Y57150D01*
G01X22349Y61550D02*
G01X22349Y62300D01*
G01X21599Y62300D01*
G01X22349Y61550D01*
G01X21049Y61450D02*
G01X21049Y61850D01*
G01X20649Y61850D01*
G01X21049Y61450D01*
G54D36*
G01X207835Y63489D02*
G01X207835Y62397D01*
G01X207835Y62397D02*
G01X207213Y62397D01*
G01X206870Y63489D02*
G01X206870Y62397D01*
G01X206870Y63489D02*
G01X206194Y63489D01*
G01X206870Y62969D02*
G01X206453Y62969D01*
G01X206870Y62397D02*
G01X206194Y62397D01*
G01X205851Y63489D02*
G01X205851Y62397D01*
G01X205851Y63489D02*
G01X205486Y63489D01*
G01X205331Y63436D01*
G01X205226Y63332D01*
G01X205176Y63230D01*
G01X205122Y63073D01*
G01X205122Y62814D01*
G01X205176Y62659D01*
G01X205226Y62555D01*
G01X205331Y62451D01*
G01X205486Y62397D01*
G01X205851Y62397D01*
G01X204053Y63489D02*
G01X204571Y62397D01*
G01X204779Y63489D02*
G01X204053Y63489D01*
G01X174215Y63529D02*
G01X174215Y62437D01*
G01X174215Y62437D02*
G01X173593Y62437D01*
G01X173250Y63529D02*
G01X173250Y62437D01*
G01X173250Y63529D02*
G01X172574Y63529D01*
G01X173250Y63008D02*
G01X172833Y63008D01*
G01X173250Y62437D02*
G01X172574Y62437D01*
G01X172231Y63529D02*
G01X172231Y62437D01*
G01X172231Y63529D02*
G01X171866Y63529D01*
G01X171711Y63476D01*
G01X171607Y63372D01*
G01X171556Y63270D01*
G01X171502Y63113D01*
G01X171502Y62854D01*
G01X171556Y62699D01*
G01X171607Y62594D01*
G01X171711Y62490D01*
G01X171866Y62437D01*
G01X172231Y62437D01*
G01X170900Y63529D02*
G01X171055Y63476D01*
G01X171109Y63372D01*
G01X171109Y63270D01*
G01X171055Y63166D01*
G01X170951Y63113D01*
G01X170746Y63062D01*
G01X170588Y63008D01*
G01X170484Y62904D01*
G01X170433Y62800D01*
G01X170433Y62645D01*
G01X170484Y62541D01*
G01X170537Y62490D01*
G01X170692Y62437D01*
G01X170900Y62437D01*
G01X171055Y62490D01*
G01X171109Y62541D01*
G01X171160Y62645D01*
G01X171160Y62800D01*
G01X171109Y62904D01*
G01X171005Y63008D01*
G01X170850Y63062D01*
G01X170641Y63113D01*
G01X170537Y63166D01*
G01X170484Y63270D01*
G01X170484Y63372D01*
G01X170537Y63476D01*
G01X170692Y63529D01*
G01X170900Y63529D01*
G01X132254Y63529D02*
G01X132254Y62437D01*
G01X132254Y62437D02*
G01X131632Y62437D01*
G01X131289Y63529D02*
G01X131289Y62437D01*
G01X131289Y63529D02*
G01X130614Y63529D01*
G01X131289Y63008D02*
G01X130873Y63008D01*
G01X131289Y62437D02*
G01X130614Y62437D01*
G01X130271Y63529D02*
G01X130271Y62437D01*
G01X130271Y63529D02*
G01X129905Y63529D01*
G01X129750Y63476D01*
G01X129646Y63372D01*
G01X129595Y63270D01*
G01X129542Y63113D01*
G01X129542Y62854D01*
G01X129595Y62699D01*
G01X129646Y62594D01*
G01X129750Y62490D01*
G01X129905Y62437D01*
G01X130271Y62437D01*
G01X128523Y63166D02*
G01X128576Y63008D01*
G01X128681Y62904D01*
G01X128836Y62854D01*
G01X128889Y62854D01*
G01X129044Y62904D01*
G01X129148Y63008D01*
G01X129199Y63166D01*
G01X129199Y63217D01*
G01X129148Y63372D01*
G01X129044Y63476D01*
G01X128889Y63529D01*
G01X128836Y63529D01*
G01X128681Y63476D01*
G01X128576Y63372D01*
G01X128523Y63166D01*
G01X128523Y62904D01*
G01X128576Y62645D01*
G01X128681Y62490D01*
G01X128836Y62437D01*
G01X128940Y62437D01*
G01X129095Y62490D01*
G01X129148Y62594D01*
G01X99887Y63529D02*
G01X99887Y62437D01*
G01X99887Y62437D02*
G01X99265Y62437D01*
G01X98922Y63529D02*
G01X98922Y62437D01*
G01X98922Y63529D02*
G01X98246Y63529D01*
G01X98922Y63008D02*
G01X98505Y63008D01*
G01X98922Y62437D02*
G01X98246Y62437D01*
G01X97903Y63529D02*
G01X97903Y62437D01*
G01X97903Y63529D02*
G01X97538Y63529D01*
G01X97383Y63476D01*
G01X97279Y63372D01*
G01X97228Y63270D01*
G01X97174Y63113D01*
G01X97174Y62854D01*
G01X97228Y62699D01*
G01X97279Y62594D01*
G01X97383Y62490D01*
G01X97538Y62437D01*
G01X97903Y62437D01*
G01X96832Y63321D02*
G01X96727Y63372D01*
G01X96572Y63529D01*
G01X96572Y62437D01*
G01X95917Y63529D02*
G01X96075Y63476D01*
G01X96179Y63321D01*
G01X96230Y63062D01*
G01X96230Y62904D01*
G01X96179Y62645D01*
G01X96075Y62490D01*
G01X95917Y62437D01*
G01X95813Y62437D01*
G01X95658Y62490D01*
G01X95554Y62645D01*
G01X95503Y62904D01*
G01X95503Y63062D01*
G01X95554Y63321D01*
G01X95658Y63476D01*
G01X95813Y63529D01*
G01X95917Y63529D01*
G01X57510Y63529D02*
G01X57510Y62437D01*
G01X57510Y62437D02*
G01X56887Y62437D01*
G01X56544Y63529D02*
G01X56544Y62437D01*
G01X56544Y63529D02*
G01X55869Y63529D01*
G01X56544Y63009D02*
G01X56128Y63009D01*
G01X56544Y62437D02*
G01X55869Y62437D01*
G01X55526Y63529D02*
G01X55526Y62437D01*
G01X55526Y63529D02*
G01X55160Y63529D01*
G01X55005Y63476D01*
G01X54901Y63372D01*
G01X54850Y63270D01*
G01X54797Y63113D01*
G01X54797Y62854D01*
G01X54850Y62699D01*
G01X54901Y62595D01*
G01X55005Y62491D01*
G01X55160Y62437D01*
G01X55526Y62437D01*
G01X54454Y63321D02*
G01X54350Y63372D01*
G01X54195Y63529D01*
G01X54195Y62437D01*
G01X53852Y63321D02*
G01X53748Y63372D01*
G01X53593Y63529D01*
G01X53593Y62437D01*
G01X24287Y63489D02*
G01X24287Y62397D01*
G01X24287Y62397D02*
G01X23665Y62397D01*
G01X23322Y63489D02*
G01X23322Y62397D01*
G01X23322Y63489D02*
G01X22646Y63489D01*
G01X23322Y62969D02*
G01X22905Y62969D01*
G01X23322Y62397D02*
G01X22646Y62397D01*
G01X22303Y63489D02*
G01X22303Y62397D01*
G01X22303Y63489D02*
G01X21938Y63489D01*
G01X21783Y63436D01*
G01X21678Y63332D01*
G01X21628Y63230D01*
G01X21574Y63073D01*
G01X21574Y62814D01*
G01X21628Y62659D01*
G01X21678Y62555D01*
G01X21783Y62451D01*
G01X21938Y62397D01*
G01X22303Y62397D01*
G01X21231Y63281D02*
G01X21127Y63332D01*
G01X20972Y63489D01*
G01X20972Y62397D01*
G01X20579Y63230D02*
G01X20579Y63281D01*
G01X20525Y63385D01*
G01X20474Y63436D01*
G01X20370Y63489D01*
G01X20162Y63489D01*
G01X20058Y63436D01*
G01X20007Y63385D01*
G01X19954Y63281D01*
G01X19954Y63177D01*
G01X20007Y63073D01*
G01X20109Y62918D01*
G01X20629Y62397D01*
G01X19903Y62397D01*
G54D31*
G01X125639Y60406D02*
G01X125639Y58467D01*
G01X125030Y60406D02*
G01X124291Y58467D01*
G01X123552Y60406D02*
G01X124291Y58467D01*
G01X122942Y60037D02*
G01X122758Y60129D01*
G01X122481Y60406D01*
G01X122481Y58467D01*
G01X121779Y59944D02*
G01X121779Y60037D01*
G01X121686Y60221D01*
G01X121594Y60314D01*
G01X121409Y60406D01*
G01X121040Y60406D01*
G01X120855Y60314D01*
G01X120763Y60221D01*
G01X120670Y60037D01*
G01X120670Y59852D01*
G01X120763Y59667D01*
G01X120947Y59390D01*
G01X121871Y58467D01*
G01X120578Y58467D01*
G01X131808Y57059D02*
G01X131992Y56967D01*
G01X132270Y56689D01*
G01X132270Y58629D01*
G01X129769Y55851D02*
G01X129769Y55759D01*
G01X129861Y55574D01*
G01X129953Y55482D01*
G01X130138Y55390D01*
G01X130508Y55390D01*
G01X130692Y55482D01*
G01X130785Y55574D01*
G01X130877Y55759D01*
G01X130877Y55944D01*
G01X130785Y56128D01*
G01X130600Y56406D01*
G01X129676Y57329D01*
G01X130969Y57329D01*
G01X127254Y54981D02*
G01X128270Y54981D01*
G01X127716Y55720D01*
G01X127993Y55720D01*
G01X128178Y55812D01*
G01X128270Y55905D01*
G01X128363Y56182D01*
G01X128363Y56367D01*
G01X128270Y56644D01*
G01X128086Y56828D01*
G01X127808Y56921D01*
G01X127531Y56921D01*
G01X127254Y56828D01*
G01X127162Y56736D01*
G01X127070Y56551D01*
G01X125808Y55589D02*
G01X124884Y56883D01*
G01X126269Y56883D01*
G01X125808Y55589D02*
G01X125808Y57529D01*
G01X124885Y57790D02*
G01X123961Y57790D01*
G01X123869Y58621D01*
G01X123961Y58528D01*
G01X124238Y58436D01*
G01X124515Y58436D01*
G01X124792Y58528D01*
G01X124977Y58713D01*
G01X125070Y58990D01*
G01X125070Y59175D01*
G01X124977Y59452D01*
G01X124792Y59637D01*
G01X124515Y59729D01*
G01X124238Y59729D01*
G01X123961Y59637D01*
G01X123869Y59544D01*
G01X123776Y59360D01*
G01X125077Y60867D02*
G01X124985Y60682D01*
G01X124708Y60589D01*
G01X124523Y60589D01*
G01X124246Y60682D01*
G01X124061Y60959D01*
G01X123969Y61421D01*
G01X123969Y61883D01*
G01X124061Y62252D01*
G01X124246Y62437D01*
G01X124523Y62529D01*
G01X124615Y62529D01*
G01X124892Y62437D01*
G01X125077Y62252D01*
G01X125170Y61975D01*
G01X125170Y61883D01*
G01X125077Y61605D01*
G01X124892Y61421D01*
G01X124615Y61328D01*
G01X124523Y61328D01*
G01X124246Y61421D01*
G01X124061Y61605D01*
G01X123969Y61883D01*
G01X126870Y62290D02*
G01X125946Y64229D01*
G01X125576Y62290D02*
G01X126870Y62290D01*
G01X128038Y62190D02*
G01X127761Y62282D01*
G01X127669Y62467D01*
G01X127669Y62651D01*
G01X127761Y62836D01*
G01X127946Y62928D01*
G01X128315Y63021D01*
G01X128592Y63113D01*
G01X128777Y63298D01*
G01X128870Y63483D01*
G01X128870Y63760D01*
G01X128777Y63944D01*
G01X128685Y64037D01*
G01X128408Y64129D01*
G01X128038Y64129D01*
G01X127761Y64037D01*
G01X127669Y63944D01*
G01X127576Y63760D01*
G01X127576Y63483D01*
G01X127669Y63298D01*
G01X127854Y63113D01*
G01X128131Y63021D01*
G01X128500Y62928D01*
G01X128685Y62836D01*
G01X128777Y62651D01*
G01X128777Y62467D01*
G01X128685Y62282D01*
G01X128408Y62190D01*
G01X128038Y62190D01*
G01X131269Y62436D02*
G01X131177Y62713D01*
G01X130992Y62898D01*
G01X130715Y62990D01*
G01X130623Y62990D01*
G01X130346Y62898D01*
G01X130161Y62713D01*
G01X130069Y62436D01*
G01X130069Y62344D01*
G01X130161Y62067D01*
G01X130346Y61882D01*
G01X130623Y61789D01*
G01X130715Y61789D01*
G01X130992Y61882D01*
G01X131177Y62067D01*
G01X131269Y62436D01*
G01X131269Y62898D01*
G01X131177Y63360D01*
G01X130992Y63637D01*
G01X130715Y63729D01*
G01X130531Y63729D01*
G01X130253Y63637D01*
G01X130161Y63452D01*
G01X131605Y59659D02*
G01X131790Y59567D01*
G01X132067Y59290D01*
G01X132067Y61229D01*
G01X133231Y59290D02*
G01X132953Y59382D01*
G01X132769Y59659D01*
G01X132676Y60121D01*
G01X132676Y60398D01*
G01X132769Y60860D01*
G01X132953Y61137D01*
G01X133231Y61229D01*
G01X133415Y61229D01*
G01X133692Y61137D01*
G01X133877Y60860D01*
G01X133969Y60398D01*
G01X133969Y60121D01*
G01X133877Y59659D01*
G01X133692Y59382D01*
G01X133415Y59290D01*
G01X133231Y59290D01*
G01X50818Y60636D02*
G01X50818Y58696D01*
G01X50209Y60636D02*
G01X49470Y58696D01*
G01X48731Y60636D02*
G01X49470Y58696D01*
G01X48121Y60266D02*
G01X47936Y60359D01*
G01X47659Y60636D01*
G01X47659Y58696D01*
G01X46957Y60174D02*
G01X46957Y60266D01*
G01X46865Y60451D01*
G01X46773Y60544D01*
G01X46588Y60636D01*
G01X46218Y60636D01*
G01X46034Y60544D01*
G01X45941Y60451D01*
G01X45849Y60266D01*
G01X45849Y60082D01*
G01X45941Y59897D01*
G01X46126Y59620D01*
G01X47050Y58696D01*
G01X45757Y58696D01*
G01X56878Y57059D02*
G01X57062Y56967D01*
G01X57340Y56689D01*
G01X57340Y58629D01*
G01X54839Y55851D02*
G01X54839Y55759D01*
G01X54931Y55574D01*
G01X55023Y55482D01*
G01X55208Y55390D01*
G01X55578Y55390D01*
G01X55762Y55482D01*
G01X55855Y55574D01*
G01X55947Y55759D01*
G01X55947Y55944D01*
G01X55855Y56128D01*
G01X55670Y56406D01*
G01X54746Y57329D01*
G01X56039Y57329D01*
G01X52324Y54981D02*
G01X53340Y54981D01*
G01X52786Y55720D01*
G01X53063Y55720D01*
G01X53248Y55812D01*
G01X53340Y55905D01*
G01X53433Y56182D01*
G01X53433Y56367D01*
G01X53340Y56644D01*
G01X53156Y56828D01*
G01X52878Y56921D01*
G01X52601Y56921D01*
G01X52324Y56828D01*
G01X52232Y56736D01*
G01X52140Y56551D01*
G01X50878Y55589D02*
G01X49954Y56883D01*
G01X51339Y56883D01*
G01X50878Y55589D02*
G01X50878Y57529D01*
G01X49955Y57790D02*
G01X49031Y57790D01*
G01X48939Y58621D01*
G01X49031Y58528D01*
G01X49308Y58436D01*
G01X49585Y58436D01*
G01X49862Y58528D01*
G01X50047Y58713D01*
G01X50140Y58990D01*
G01X50140Y59175D01*
G01X50047Y59452D01*
G01X49862Y59637D01*
G01X49585Y59729D01*
G01X49308Y59729D01*
G01X49031Y59637D01*
G01X48939Y59544D01*
G01X48846Y59360D01*
G01X50147Y60867D02*
G01X50055Y60682D01*
G01X49778Y60589D01*
G01X49593Y60589D01*
G01X49316Y60682D01*
G01X49131Y60959D01*
G01X49039Y61421D01*
G01X49039Y61883D01*
G01X49131Y62252D01*
G01X49316Y62437D01*
G01X49593Y62529D01*
G01X49685Y62529D01*
G01X49962Y62437D01*
G01X50147Y62252D01*
G01X50240Y61975D01*
G01X50240Y61883D01*
G01X50147Y61605D01*
G01X49962Y61421D01*
G01X49685Y61328D01*
G01X49593Y61328D01*
G01X49316Y61421D01*
G01X49131Y61605D01*
G01X49039Y61883D01*
G01X51940Y62290D02*
G01X51016Y64229D01*
G01X50646Y62290D02*
G01X51940Y62290D01*
G01X53108Y62190D02*
G01X52831Y62282D01*
G01X52739Y62467D01*
G01X52739Y62651D01*
G01X52831Y62836D01*
G01X53016Y62928D01*
G01X53385Y63021D01*
G01X53662Y63113D01*
G01X53847Y63298D01*
G01X53940Y63483D01*
G01X53940Y63760D01*
G01X53847Y63944D01*
G01X53755Y64037D01*
G01X53478Y64129D01*
G01X53108Y64129D01*
G01X52831Y64037D01*
G01X52739Y63944D01*
G01X52646Y63760D01*
G01X52646Y63483D01*
G01X52739Y63298D01*
G01X52924Y63113D01*
G01X53201Y63021D01*
G01X53570Y62928D01*
G01X53755Y62836D01*
G01X53847Y62651D01*
G01X53847Y62467D01*
G01X53755Y62282D01*
G01X53478Y62190D01*
G01X53108Y62190D01*
G01X56339Y62436D02*
G01X56247Y62713D01*
G01X56062Y62898D01*
G01X55785Y62990D01*
G01X55693Y62990D01*
G01X55416Y62898D01*
G01X55231Y62713D01*
G01X55139Y62436D01*
G01X55139Y62344D01*
G01X55231Y62067D01*
G01X55416Y61882D01*
G01X55693Y61789D01*
G01X55785Y61789D01*
G01X56062Y61882D01*
G01X56247Y62067D01*
G01X56339Y62436D01*
G01X56339Y62898D01*
G01X56247Y63360D01*
G01X56062Y63637D01*
G01X55785Y63729D01*
G01X55601Y63729D01*
G01X55323Y63637D01*
G01X55231Y63452D01*
G01X56675Y59659D02*
G01X56860Y59567D01*
G01X57137Y59290D01*
G01X57137Y61229D01*
G01X58301Y59290D02*
G01X58023Y59382D01*
G01X57839Y59659D01*
G01X57746Y60121D01*
G01X57746Y60398D01*
G01X57839Y60860D01*
G01X58023Y61137D01*
G01X58301Y61229D01*
G01X58485Y61229D01*
G01X58762Y61137D01*
G01X58947Y60860D01*
G01X59039Y60398D01*
G01X59039Y60121D01*
G01X58947Y59659D01*
G01X58762Y59382D01*
G01X58485Y59290D01*
G01X58301Y59290D01*
G01X167549Y60406D02*
G01X167549Y58467D01*
G01X166940Y60406D02*
G01X166201Y58467D01*
G01X165462Y60406D02*
G01X166201Y58467D01*
G01X164852Y60037D02*
G01X164668Y60129D01*
G01X164391Y60406D01*
G01X164391Y58467D01*
G01X163689Y59944D02*
G01X163689Y60037D01*
G01X163596Y60221D01*
G01X163504Y60314D01*
G01X163319Y60406D01*
G01X162950Y60406D01*
G01X162765Y60314D01*
G01X162673Y60221D01*
G01X162580Y60037D01*
G01X162580Y59852D01*
G01X162673Y59667D01*
G01X162857Y59390D01*
G01X163781Y58467D01*
G01X162488Y58467D01*
G01X173718Y57059D02*
G01X173902Y56967D01*
G01X174180Y56689D01*
G01X174180Y58629D01*
G01X171679Y55851D02*
G01X171679Y55759D01*
G01X171771Y55574D01*
G01X171863Y55482D01*
G01X172048Y55390D01*
G01X172418Y55390D01*
G01X172602Y55482D01*
G01X172695Y55574D01*
G01X172787Y55759D01*
G01X172787Y55944D01*
G01X172695Y56128D01*
G01X172510Y56406D01*
G01X171586Y57329D01*
G01X172879Y57329D01*
G01X169164Y54981D02*
G01X170180Y54981D01*
G01X169626Y55720D01*
G01X169903Y55720D01*
G01X170088Y55812D01*
G01X170180Y55905D01*
G01X170273Y56182D01*
G01X170273Y56367D01*
G01X170180Y56644D01*
G01X169996Y56828D01*
G01X169718Y56921D01*
G01X169441Y56921D01*
G01X169164Y56828D01*
G01X169072Y56736D01*
G01X168980Y56551D01*
G01X167718Y55589D02*
G01X166794Y56883D01*
G01X168179Y56883D01*
G01X167718Y55589D02*
G01X167718Y57529D01*
G01X166795Y57790D02*
G01X165871Y57790D01*
G01X165779Y58621D01*
G01X165871Y58528D01*
G01X166148Y58436D01*
G01X166425Y58436D01*
G01X166702Y58528D01*
G01X166887Y58713D01*
G01X166980Y58990D01*
G01X166980Y59175D01*
G01X166887Y59452D01*
G01X166702Y59637D01*
G01X166425Y59729D01*
G01X166148Y59729D01*
G01X165871Y59637D01*
G01X165779Y59544D01*
G01X165686Y59360D01*
G01X166987Y60867D02*
G01X166895Y60682D01*
G01X166618Y60589D01*
G01X166433Y60589D01*
G01X166156Y60682D01*
G01X165971Y60959D01*
G01X165879Y61421D01*
G01X165879Y61883D01*
G01X165971Y62252D01*
G01X166156Y62437D01*
G01X166433Y62529D01*
G01X166525Y62529D01*
G01X166802Y62437D01*
G01X166987Y62252D01*
G01X167080Y61975D01*
G01X167080Y61883D01*
G01X166987Y61605D01*
G01X166802Y61421D01*
G01X166525Y61328D01*
G01X166433Y61328D01*
G01X166156Y61421D01*
G01X165971Y61605D01*
G01X165879Y61883D01*
G01X168780Y62290D02*
G01X167856Y64229D01*
G01X167486Y62290D02*
G01X168780Y62290D01*
G01X169948Y62190D02*
G01X169671Y62282D01*
G01X169579Y62467D01*
G01X169579Y62651D01*
G01X169671Y62836D01*
G01X169856Y62928D01*
G01X170225Y63021D01*
G01X170502Y63113D01*
G01X170687Y63298D01*
G01X170780Y63483D01*
G01X170780Y63760D01*
G01X170687Y63944D01*
G01X170595Y64037D01*
G01X170318Y64129D01*
G01X169948Y64129D01*
G01X169671Y64037D01*
G01X169579Y63944D01*
G01X169486Y63760D01*
G01X169486Y63483D01*
G01X169579Y63298D01*
G01X169764Y63113D01*
G01X170041Y63021D01*
G01X170410Y62928D01*
G01X170595Y62836D01*
G01X170687Y62651D01*
G01X170687Y62467D01*
G01X170595Y62282D01*
G01X170318Y62190D01*
G01X169948Y62190D01*
G01X173179Y62436D02*
G01X173087Y62713D01*
G01X172902Y62898D01*
G01X172625Y62990D01*
G01X172533Y62990D01*
G01X172256Y62898D01*
G01X172071Y62713D01*
G01X171979Y62436D01*
G01X171979Y62344D01*
G01X172071Y62067D01*
G01X172256Y61882D01*
G01X172533Y61789D01*
G01X172625Y61789D01*
G01X172902Y61882D01*
G01X173087Y62067D01*
G01X173179Y62436D01*
G01X173179Y62898D01*
G01X173087Y63360D01*
G01X172902Y63637D01*
G01X172625Y63729D01*
G01X172441Y63729D01*
G01X172163Y63637D01*
G01X172071Y63452D01*
G01X173515Y59659D02*
G01X173700Y59567D01*
G01X173977Y59290D01*
G01X173977Y61229D01*
G01X175141Y59290D02*
G01X174863Y59382D01*
G01X174679Y59659D01*
G01X174586Y60121D01*
G01X174586Y60398D01*
G01X174679Y60860D01*
G01X174863Y61137D01*
G01X175141Y61229D01*
G01X175325Y61229D01*
G01X175602Y61137D01*
G01X175787Y60860D01*
G01X175879Y60398D01*
G01X175879Y60121D01*
G01X175787Y59659D01*
G01X175602Y59382D01*
G01X175325Y59290D01*
G01X175141Y59290D01*
G01X92619Y60406D02*
G01X92619Y58467D01*
G01X92010Y60406D02*
G01X91271Y58467D01*
G01X90532Y60406D02*
G01X91271Y58467D01*
G01X89922Y60037D02*
G01X89738Y60129D01*
G01X89461Y60406D01*
G01X89461Y58467D01*
G01X88759Y59944D02*
G01X88759Y60037D01*
G01X88666Y60221D01*
G01X88574Y60314D01*
G01X88389Y60406D01*
G01X88020Y60406D01*
G01X87835Y60314D01*
G01X87743Y60221D01*
G01X87650Y60037D01*
G01X87650Y59852D01*
G01X87743Y59667D01*
G01X87927Y59390D01*
G01X88851Y58467D01*
G01X87558Y58467D01*
G01X98788Y57059D02*
G01X98972Y56967D01*
G01X99250Y56689D01*
G01X99250Y58629D01*
G01X96749Y55851D02*
G01X96749Y55759D01*
G01X96841Y55574D01*
G01X96933Y55482D01*
G01X97118Y55390D01*
G01X97488Y55390D01*
G01X97672Y55482D01*
G01X97765Y55574D01*
G01X97857Y55759D01*
G01X97857Y55944D01*
G01X97765Y56128D01*
G01X97580Y56406D01*
G01X96656Y57329D01*
G01X97949Y57329D01*
G01X94234Y54981D02*
G01X95250Y54981D01*
G01X94696Y55720D01*
G01X94973Y55720D01*
G01X95158Y55812D01*
G01X95250Y55905D01*
G01X95343Y56182D01*
G01X95343Y56367D01*
G01X95250Y56644D01*
G01X95066Y56828D01*
G01X94788Y56921D01*
G01X94511Y56921D01*
G01X94234Y56828D01*
G01X94142Y56736D01*
G01X94050Y56551D01*
G01X92788Y55589D02*
G01X91864Y56883D01*
G01X93249Y56883D01*
G01X92788Y55589D02*
G01X92788Y57529D01*
G01X91865Y57790D02*
G01X90941Y57790D01*
G01X90849Y58621D01*
G01X90941Y58528D01*
G01X91218Y58436D01*
G01X91495Y58436D01*
G01X91772Y58528D01*
G01X91957Y58713D01*
G01X92050Y58990D01*
G01X92050Y59175D01*
G01X91957Y59452D01*
G01X91772Y59637D01*
G01X91495Y59729D01*
G01X91218Y59729D01*
G01X90941Y59637D01*
G01X90849Y59544D01*
G01X90756Y59360D01*
G01X92057Y60867D02*
G01X91965Y60682D01*
G01X91688Y60589D01*
G01X91503Y60589D01*
G01X91226Y60682D01*
G01X91041Y60959D01*
G01X90949Y61421D01*
G01X90949Y61883D01*
G01X91041Y62252D01*
G01X91226Y62437D01*
G01X91503Y62529D01*
G01X91595Y62529D01*
G01X91872Y62437D01*
G01X92057Y62252D01*
G01X92150Y61975D01*
G01X92150Y61883D01*
G01X92057Y61605D01*
G01X91872Y61421D01*
G01X91595Y61328D01*
G01X91503Y61328D01*
G01X91226Y61421D01*
G01X91041Y61605D01*
G01X90949Y61883D01*
G01X93850Y62290D02*
G01X92926Y64229D01*
G01X92556Y62290D02*
G01X93850Y62290D01*
G01X95018Y62190D02*
G01X94741Y62282D01*
G01X94649Y62467D01*
G01X94649Y62651D01*
G01X94741Y62836D01*
G01X94926Y62928D01*
G01X95295Y63021D01*
G01X95572Y63113D01*
G01X95757Y63298D01*
G01X95850Y63483D01*
G01X95850Y63760D01*
G01X95757Y63944D01*
G01X95665Y64037D01*
G01X95388Y64129D01*
G01X95018Y64129D01*
G01X94741Y64037D01*
G01X94649Y63944D01*
G01X94556Y63760D01*
G01X94556Y63483D01*
G01X94649Y63298D01*
G01X94834Y63113D01*
G01X95111Y63021D01*
G01X95480Y62928D01*
G01X95665Y62836D01*
G01X95757Y62651D01*
G01X95757Y62467D01*
G01X95665Y62282D01*
G01X95388Y62190D01*
G01X95018Y62190D01*
G01X98249Y62436D02*
G01X98157Y62713D01*
G01X97972Y62898D01*
G01X97695Y62990D01*
G01X97603Y62990D01*
G01X97326Y62898D01*
G01X97141Y62713D01*
G01X97049Y62436D01*
G01X97049Y62344D01*
G01X97141Y62067D01*
G01X97326Y61882D01*
G01X97603Y61789D01*
G01X97695Y61789D01*
G01X97972Y61882D01*
G01X98157Y62067D01*
G01X98249Y62436D01*
G01X98249Y62898D01*
G01X98157Y63360D01*
G01X97972Y63637D01*
G01X97695Y63729D01*
G01X97511Y63729D01*
G01X97233Y63637D01*
G01X97141Y63452D01*
G01X98585Y59659D02*
G01X98770Y59567D01*
G01X99047Y59290D01*
G01X99047Y61229D01*
G01X100211Y59290D02*
G01X99933Y59382D01*
G01X99749Y59659D01*
G01X99656Y60121D01*
G01X99656Y60398D01*
G01X99749Y60860D01*
G01X99933Y61137D01*
G01X100211Y61229D01*
G01X100395Y61229D01*
G01X100672Y61137D01*
G01X100857Y60860D01*
G01X100949Y60398D01*
G01X100949Y60121D01*
G01X100857Y59659D01*
G01X100672Y59382D01*
G01X100395Y59290D01*
G01X100211Y59290D01*
G01X17019Y60366D02*
G01X17019Y58427D01*
G01X16410Y60366D02*
G01X15671Y58427D01*
G01X14932Y60366D02*
G01X15671Y58427D01*
G01X14322Y59997D02*
G01X14138Y60089D01*
G01X13861Y60366D01*
G01X13861Y58427D01*
G01X13159Y59904D02*
G01X13159Y59997D01*
G01X13066Y60181D01*
G01X12974Y60274D01*
G01X12789Y60366D01*
G01X12420Y60366D01*
G01X12235Y60274D01*
G01X12143Y60181D01*
G01X12050Y59997D01*
G01X12050Y59812D01*
G01X12143Y59627D01*
G01X12327Y59350D01*
G01X13251Y58427D01*
G01X11958Y58427D01*
G01X23188Y57019D02*
G01X23372Y56927D01*
G01X23650Y56649D01*
G01X23650Y58589D01*
G01X21149Y55811D02*
G01X21149Y55719D01*
G01X21241Y55534D01*
G01X21333Y55442D01*
G01X21518Y55350D01*
G01X21888Y55350D01*
G01X22072Y55442D01*
G01X22165Y55534D01*
G01X22257Y55719D01*
G01X22257Y55904D01*
G01X22165Y56088D01*
G01X21980Y56366D01*
G01X21056Y57289D01*
G01X22349Y57289D01*
G01X18634Y54941D02*
G01X19650Y54941D01*
G01X19096Y55680D01*
G01X19373Y55680D01*
G01X19558Y55772D01*
G01X19650Y55865D01*
G01X19743Y56142D01*
G01X19743Y56327D01*
G01X19650Y56604D01*
G01X19466Y56788D01*
G01X19188Y56881D01*
G01X18911Y56881D01*
G01X18634Y56788D01*
G01X18542Y56696D01*
G01X18450Y56511D01*
G01X17188Y55549D02*
G01X16264Y56843D01*
G01X17650Y56843D01*
G01X17188Y55549D02*
G01X17188Y57489D01*
G01X16265Y57749D02*
G01X15341Y57749D01*
G01X15249Y58581D01*
G01X15341Y58488D01*
G01X15618Y58396D01*
G01X15895Y58396D01*
G01X16172Y58488D01*
G01X16357Y58673D01*
G01X16450Y58950D01*
G01X16450Y59135D01*
G01X16357Y59412D01*
G01X16172Y59597D01*
G01X15895Y59689D01*
G01X15618Y59689D01*
G01X15341Y59597D01*
G01X15249Y59504D01*
G01X15156Y59320D01*
G01X16457Y60827D02*
G01X16365Y60642D01*
G01X16088Y60549D01*
G01X15903Y60549D01*
G01X15626Y60642D01*
G01X15441Y60919D01*
G01X15349Y61381D01*
G01X15349Y61843D01*
G01X15441Y62212D01*
G01X15626Y62397D01*
G01X15903Y62489D01*
G01X15995Y62489D01*
G01X16272Y62397D01*
G01X16457Y62212D01*
G01X16550Y61935D01*
G01X16550Y61843D01*
G01X16457Y61565D01*
G01X16272Y61381D01*
G01X15995Y61288D01*
G01X15903Y61288D01*
G01X15626Y61381D01*
G01X15441Y61565D01*
G01X15349Y61843D01*
G01X18250Y62250D02*
G01X17326Y64189D01*
G01X16956Y62250D02*
G01X18250Y62250D01*
G01X19418Y62150D02*
G01X19141Y62242D01*
G01X19049Y62427D01*
G01X19049Y62611D01*
G01X19141Y62796D01*
G01X19326Y62888D01*
G01X19695Y62981D01*
G01X19972Y63073D01*
G01X20157Y63258D01*
G01X20250Y63443D01*
G01X20250Y63720D01*
G01X20157Y63904D01*
G01X20065Y63997D01*
G01X19788Y64089D01*
G01X19418Y64089D01*
G01X19141Y63997D01*
G01X19049Y63904D01*
G01X18956Y63720D01*
G01X18956Y63443D01*
G01X19049Y63258D01*
G01X19234Y63073D01*
G01X19511Y62981D01*
G01X19880Y62888D01*
G01X20065Y62796D01*
G01X20157Y62611D01*
G01X20157Y62427D01*
G01X20065Y62242D01*
G01X19788Y62150D01*
G01X19418Y62150D01*
G01X22650Y62396D02*
G01X22557Y62673D01*
G01X22372Y62858D01*
G01X22095Y62950D01*
G01X22003Y62950D01*
G01X21726Y62858D01*
G01X21541Y62673D01*
G01X21449Y62396D01*
G01X21449Y62304D01*
G01X21541Y62027D01*
G01X21726Y61842D01*
G01X22003Y61749D01*
G01X22095Y61749D01*
G01X22372Y61842D01*
G01X22557Y62027D01*
G01X22650Y62396D01*
G01X22650Y62858D01*
G01X22557Y63320D01*
G01X22372Y63597D01*
G01X22095Y63689D01*
G01X21911Y63689D01*
G01X21634Y63597D01*
G01X21541Y63412D01*
G01X22985Y59619D02*
G01X23170Y59527D01*
G01X23447Y59250D01*
G01X23447Y61189D01*
G01X24611Y59250D02*
G01X24334Y59342D01*
G01X24149Y59619D01*
G01X24056Y60081D01*
G01X24056Y60358D01*
G01X24149Y60820D01*
G01X24334Y61097D01*
G01X24611Y61189D01*
G01X24795Y61189D01*
G01X25072Y61097D01*
G01X25257Y60820D01*
G01X25350Y60358D01*
G01X25350Y60081D01*
G01X25257Y59619D01*
G01X25072Y59342D01*
G01X24795Y59250D01*
G01X24611Y59250D01*
G01X201169Y60366D02*
G01X201169Y58427D01*
G01X200560Y60366D02*
G01X199821Y58427D01*
G01X199082Y60366D02*
G01X199821Y58427D01*
G01X198472Y59997D02*
G01X198288Y60089D01*
G01X198011Y60366D01*
G01X198011Y58427D01*
G01X197309Y59904D02*
G01X197309Y59997D01*
G01X197216Y60181D01*
G01X197124Y60274D01*
G01X196939Y60366D01*
G01X196570Y60366D01*
G01X196385Y60274D01*
G01X196293Y60181D01*
G01X196200Y59997D01*
G01X196200Y59812D01*
G01X196293Y59627D01*
G01X196477Y59350D01*
G01X197401Y58427D01*
G01X196108Y58427D01*
G01X207338Y57019D02*
G01X207522Y56927D01*
G01X207800Y56649D01*
G01X207800Y58589D01*
G01X205299Y55811D02*
G01X205299Y55719D01*
G01X205391Y55534D01*
G01X205483Y55442D01*
G01X205668Y55350D01*
G01X206038Y55350D01*
G01X206222Y55442D01*
G01X206315Y55534D01*
G01X206407Y55719D01*
G01X206407Y55904D01*
G01X206315Y56088D01*
G01X206130Y56366D01*
G01X205206Y57289D01*
G01X206499Y57289D01*
G01X202784Y54941D02*
G01X203800Y54941D01*
G01X203246Y55680D01*
G01X203523Y55680D01*
G01X203708Y55772D01*
G01X203800Y55865D01*
G01X203893Y56142D01*
G01X203893Y56327D01*
G01X203800Y56604D01*
G01X203616Y56788D01*
G01X203338Y56881D01*
G01X203061Y56881D01*
G01X202784Y56788D01*
G01X202692Y56696D01*
G01X202600Y56511D01*
G01X201338Y55549D02*
G01X200414Y56843D01*
G01X201800Y56843D01*
G01X201338Y55549D02*
G01X201338Y57489D01*
G01X200415Y57749D02*
G01X199491Y57749D01*
G01X199399Y58581D01*
G01X199491Y58488D01*
G01X199768Y58396D01*
G01X200045Y58396D01*
G01X200322Y58488D01*
G01X200507Y58673D01*
G01X200600Y58950D01*
G01X200600Y59135D01*
G01X200507Y59412D01*
G01X200322Y59597D01*
G01X200045Y59689D01*
G01X199768Y59689D01*
G01X199491Y59597D01*
G01X199399Y59504D01*
G01X199306Y59320D01*
G01X200607Y60827D02*
G01X200515Y60642D01*
G01X200238Y60549D01*
G01X200053Y60549D01*
G01X199776Y60642D01*
G01X199591Y60919D01*
G01X199499Y61381D01*
G01X199499Y61843D01*
G01X199591Y62212D01*
G01X199776Y62397D01*
G01X200053Y62489D01*
G01X200145Y62489D01*
G01X200422Y62397D01*
G01X200607Y62212D01*
G01X200700Y61935D01*
G01X200700Y61843D01*
G01X200607Y61565D01*
G01X200422Y61381D01*
G01X200145Y61288D01*
G01X200053Y61288D01*
G01X199776Y61381D01*
G01X199591Y61565D01*
G01X199499Y61843D01*
G01X202400Y62250D02*
G01X201476Y64189D01*
G01X201106Y62250D02*
G01X202400Y62250D01*
G01X203568Y62150D02*
G01X203291Y62242D01*
G01X203199Y62427D01*
G01X203199Y62611D01*
G01X203291Y62796D01*
G01X203476Y62888D01*
G01X203845Y62981D01*
G01X204122Y63073D01*
G01X204307Y63258D01*
G01X204400Y63443D01*
G01X204400Y63720D01*
G01X204307Y63904D01*
G01X204215Y63997D01*
G01X203938Y64089D01*
G01X203568Y64089D01*
G01X203291Y63997D01*
G01X203199Y63904D01*
G01X203106Y63720D01*
G01X203106Y63443D01*
G01X203199Y63258D01*
G01X203384Y63073D01*
G01X203661Y62981D01*
G01X204030Y62888D01*
G01X204215Y62796D01*
G01X204307Y62611D01*
G01X204307Y62427D01*
G01X204215Y62242D01*
G01X203938Y62150D01*
G01X203568Y62150D01*
G01X206800Y62396D02*
G01X206707Y62673D01*
G01X206522Y62858D01*
G01X206245Y62950D01*
G01X206153Y62950D01*
G01X205876Y62858D01*
G01X205691Y62673D01*
G01X205599Y62396D01*
G01X205599Y62304D01*
G01X205691Y62027D01*
G01X205876Y61842D01*
G01X206153Y61749D01*
G01X206245Y61749D01*
G01X206522Y61842D01*
G01X206707Y62027D01*
G01X206800Y62396D01*
G01X206800Y62858D01*
G01X206707Y63320D01*
G01X206522Y63597D01*
G01X206245Y63689D01*
G01X206061Y63689D01*
G01X205784Y63597D01*
G01X205691Y63412D01*
G01X207135Y59619D02*
G01X207320Y59527D01*
G01X207597Y59250D01*
G01X207597Y61189D01*
G01X208761Y59250D02*
G01X208484Y59342D01*
G01X208299Y59619D01*
G01X208206Y60081D01*
G01X208206Y60358D01*
G01X208299Y60820D01*
G01X208484Y61097D01*
G01X208761Y61189D01*
G01X208945Y61189D01*
G01X209222Y61097D01*
G01X209407Y60820D01*
G01X209500Y60358D01*
G01X209500Y60081D01*
G01X209407Y59619D01*
G01X209222Y59342D01*
G01X208945Y59250D01*
G01X208761Y59250D01*
G54D10*
G75*
G01X128270Y53690D02*
G03X128170Y53691I0J6000D01*
G01*
G75*
G01X53340Y53690D02*
G03X53240Y53691I0J6000D01*
G01*
G75*
G01X170180Y53690D02*
G03X170080Y53691I0J6000D01*
G01*
G75*
G01X95250Y53690D02*
G03X95150Y53691I0J6000D01*
G01*
G75*
G01X19650Y53650D02*
G03X19550Y53651I0J6000D01*
G01*
G75*
G01X203800Y53650D02*
G03X203700Y53651I0J6000D01*
G01*
G75*
G01X205300Y59650D02*
G03X205300Y59650I-1500J0D01*
G01*
G75*
G01X171680Y59690D02*
G03X171680Y59690I-1500J0D01*
G01*
G75*
G01X129770Y59690D02*
G03X129770Y59690I-1500J0D01*
G01*
G75*
G01X96750Y59690D02*
G03X96750Y59690I-1500J0D01*
G01*
G75*
G01X54840Y59690D02*
G03X54840Y59690I-1500J0D01*
G01*
G75*
G01X21150Y59650D02*
G03X21150Y59650I-1500J0D01*
G01*
M00*
M02*
