;Layer: Drill PTH
;EasyEDA v6.1.52, Wed, 14 Aug 2019 16:00:45 GMT
;61fb33ea13684dee95186c9376e4e459,bc0df6a87cf9400f99ff9c89e133bbb9,10
;Gerber Generator version 0.2
M48
METRIC,LZ,000.000
;Holesize 1 = 0.701 METRIC
T01C0.701
;Holesize 2 = 0.712 METRIC
T02C0.712
;Holesize 3 = 0.800 METRIC
T03C0.800
;Holesize 4 = 0.813 METRIC
T04C0.813
;Holesize 5 = 0.900 METRIC
T05C0.900
;Holesize 6 = 0.901 METRIC
T06C0.901
;Holesize 7 = 0.915 METRIC
T07C0.915
;Holesize 8 = 1.000 METRIC
T08C1.000
;Holesize 9 = 1.200 METRIC
T09C1.200
;Holesize 10 = 1.301 METRIC
T10C1.301
;Holesize 11 = 1.800 METRIC
T11C1.800
%
G05
G90
T01
X+086995Y+119114
X+086995Y+117613
X+079375Y+119114
X+079375Y+117613
X+094615Y+119114
X+094615Y+117613
T02
X+196180Y+031709
X+198720Y+031709
X+201260Y+031709
X+203800Y+031709
X+206340Y+031709
X+208880Y+031709
X+211420Y+031709
X+213960Y+031709
X+216500Y+031709
X+216500Y+039329
X+213960Y+039329
X+211420Y+039329
X+208880Y+039329
X+206340Y+039329
X+203800Y+039329
X+201260Y+039329
X+198720Y+039329
X+196180Y+039329
X+123190Y+031750
X+125730Y+031750
X+128270Y+031750
X+130810Y+031750
X+133350Y+031750
X+135890Y+031750
X+138430Y+031750
X+140970Y+031750
X+143510Y+031750
X+143510Y+039370
X+140970Y+039370
X+138430Y+039370
X+135890Y+039370
X+133350Y+039370
X+130810Y+039370
X+128270Y+039370
X+125730Y+039370
X+123190Y+039370
X+045050Y+031709
X+047590Y+031709
X+050130Y+031709
X+052670Y+031709
X+055210Y+031709
X+057750Y+031709
X+060290Y+031709
X+062830Y+031709
X+065370Y+031709
X+065370Y+039329
X+062830Y+039329
X+060290Y+039329
X+057750Y+039329
X+055210Y+039329
X+052670Y+039329
X+050130Y+039329
X+047590Y+039329
X+045050Y+039329
X+161290Y+031750
X+163830Y+031750
X+166370Y+031750
X+168910Y+031750
X+171450Y+031750
X+173990Y+031750
X+176530Y+031750
X+179070Y+031750
X+181610Y+031750
X+181610Y+039370
X+179070Y+039370
X+176530Y+039370
X+173990Y+039370
X+171450Y+039370
X+168910Y+039370
X+166370Y+039370
X+163830Y+039370
X+161290Y+039370
X+085090Y+031750
X+087630Y+031750
X+090170Y+031750
X+092710Y+031750
X+095250Y+031750
X+097790Y+031750
X+100330Y+031750
X+102870Y+031750
X+105410Y+031750
X+105410Y+039370
X+102870Y+039370
X+100330Y+039370
X+097790Y+039370
X+095250Y+039370
X+092710Y+039370
X+090170Y+039370
X+087630Y+039370
X+085090Y+039370
X+008220Y+031709
X+010760Y+031709
X+013300Y+031709
X+015840Y+031709
X+018380Y+031709
X+020920Y+031709
X+023460Y+031709
X+026000Y+031709
X+028540Y+031709
X+028540Y+039329
X+026000Y+039329
X+023460Y+039329
X+020920Y+039329
X+018380Y+039329
X+015840Y+039329
X+013300Y+039329
X+010760Y+039329
X+008220Y+039329
X+154940Y+119380
X+154940Y+116840
X+149860Y+119380
X+149860Y+116840
X+144780Y+119380
X+144780Y+116840
X+139700Y+119380
X+139700Y+116840
X+134620Y+119380
X+134620Y+116840
X+129540Y+119380
X+129540Y+116840
X+124460Y+119380
X+124460Y+116840
X+119380Y+119380
X+119380Y+116840
X+114300Y+119380
X+114300Y+116840
T03
X+012065Y+103083
X+012065Y+098084
X+004445Y+103083
X+004445Y+098084
X+115051Y+018133
X+160969Y+027101
X+197421Y+087774
X+096621Y+019621
X+203931Y+062364
X+174124Y+059636
X+201383Y+024744
X+185384Y+024744
X+180751Y+054780
X+184419Y+054780
X+054155Y+060957
X+106512Y+054650
X+216090Y+050327
X+066070Y+108544
X+064419Y+012377
X+087955Y+065486
X+067602Y+066159
X+044978Y+051645
X+027520Y+051645
X+032331Y+057429
X+131853Y+104373
X+203608Y+047787
X+040114Y+053238
X+209364Y+022354
X+183741Y+024190
X+175260Y+022781
X+155978Y+006804
X+146644Y+021810
X+033703Y+013881
X+070017Y+015847
X+132158Y+029029
X+163118Y+029380
X+118435Y+016136
X+064803Y+022275
X+102054Y+022209
X+039192Y+014676
X+039436Y+031709
X+107530Y+059971
X+106680Y+027767
X+099232Y+027767
X+205894Y+059641
X+217187Y+059535
X+188749Y+026522
X+205003Y+052461
X+134500Y+049298
X+119407Y+062605
X+118704Y+046306
X+119029Y+068178
X+114386Y+044698
X+109067Y+033401
X+107929Y+032235
X+169219Y+021051
X+128993Y+013682
X+059306Y+021790
X+119296Y+066324
X+124449Y+066324
X+134084Y+060327
X+127914Y+061442
X+120096Y+053637
X+097995Y+056692
T04
X+197450Y+010119
X+199990Y+010119
X+202530Y+010119
X+205070Y+010119
X+207610Y+010119
X+210150Y+010119
X+212690Y+010119
X+215230Y+010119
X+215230Y+017739
X+212690Y+017739
X+210150Y+017739
X+207610Y+017739
X+205070Y+017739
X+202530Y+017739
X+199990Y+017739
X+197450Y+017739
X+124460Y+010160
X+127000Y+010160
X+129540Y+010160
X+132080Y+010160
X+134620Y+010160
X+137160Y+010160
X+139700Y+010160
X+142240Y+010160
X+142240Y+017780
X+139700Y+017780
X+137160Y+017780
X+134620Y+017780
X+132080Y+017780
X+129540Y+017780
X+127000Y+017780
X+124460Y+017780
X+046320Y+010119
X+048860Y+010119
X+051400Y+010119
X+053940Y+010119
X+056480Y+010119
X+059020Y+010119
X+061560Y+010119
X+064100Y+010119
X+064100Y+017739
X+061560Y+017739
X+059020Y+017739
X+056480Y+017739
X+053940Y+017739
X+051400Y+017739
X+048860Y+017739
X+046320Y+017739
X+162560Y+010160
X+165100Y+010160
X+167640Y+010160
X+170180Y+010160
X+172720Y+010160
X+175260Y+010160
X+177800Y+010160
X+180340Y+010160
X+180340Y+017780
X+177800Y+017780
X+175260Y+017780
X+172720Y+017780
X+170180Y+017780
X+167640Y+017780
X+165100Y+017780
X+162560Y+017780
X+087630Y+010160
X+090170Y+010160
X+092710Y+010160
X+095250Y+010160
X+097790Y+010160
X+100330Y+010160
X+102870Y+010160
X+105410Y+010160
X+105410Y+017780
X+102870Y+017780
X+100330Y+017780
X+097790Y+017780
X+095250Y+017780
X+092710Y+017780
X+090170Y+017780
X+087630Y+017780
X+009490Y+010119
X+012030Y+010119
X+014570Y+010119
X+017110Y+010119
X+019650Y+010119
X+022190Y+010119
X+024730Y+010119
X+027270Y+010119
X+027270Y+017739
X+024730Y+017739
X+022190Y+017739
X+019650Y+017739
X+017110Y+017739
X+014570Y+017739
X+012030Y+017739
X+009490Y+017739
T05
X+100330Y+100330
X+100330Y+107950
X+062865Y+118364
X+073025Y+118364
X+181610Y+081280
X+173990Y+081280
X+194310Y+081280
X+186690Y+081280
X+207010Y+081280
X+199390Y+081280
X+212090Y+081280
X+219710Y+081280
T06
X+007829Y+110283G85X+010029Y+110283
X+010029Y+116283G85X+007829Y+116283
X+004279Y+113633G85X+004279Y+111933
X+086994Y+101873
X+084495Y+104374
X+089494Y+104374
T07
X+180340Y+101600
X+182880Y+101600
X+185420Y+101600
X+187960Y+101600
X+190500Y+101600
X+193040Y+101600
X+195580Y+101600
X+198120Y+101600
X+200660Y+101600
X+203200Y+101600
X+205740Y+101600
X+208280Y+101600
X+210820Y+101600
X+213360Y+101600
X+215900Y+101600
X+180340Y+116840
X+182880Y+116840
X+185420Y+116840
X+187960Y+116840
X+190500Y+116840
X+193040Y+116840
X+195580Y+116840
X+198120Y+116840
X+200660Y+116840
X+203200Y+116840
X+205740Y+116840
X+208280Y+116840
X+210820Y+116840
X+213360Y+116840
X+215900Y+116840
T08
X+161290Y+095250
X+161290Y+092710
X+161290Y+090170
X+161290Y+087630
T09
X+179070Y+087630
X+184150Y+087630
X+199390Y+087630
X+204470Y+087630
X+189230Y+087630
X+194310Y+087630
X+209550Y+087630
X+214630Y+087630
X+133770Y+056989
X+131269Y+054390
X+127769Y+053589
X+124469Y+054989
X+122570Y+057989
X+122670Y+061390
X+124569Y+064190
X+127869Y+065490
X+131170Y+064789
X+133569Y+062390
X+058840Y+056989
X+056339Y+054390
X+052839Y+053589
X+049539Y+054989
X+047640Y+057989
X+047740Y+061390
X+049639Y+064190
X+052939Y+065490
X+056240Y+064789
X+058639Y+062390
X+175680Y+056989
X+173179Y+054390
X+169679Y+053589
X+166379Y+054989
X+164480Y+057989
X+164580Y+061390
X+166479Y+064190
X+169779Y+065490
X+173080Y+064789
X+175479Y+062390
X+100750Y+056989
X+098249Y+054390
X+094749Y+053589
X+091449Y+054989
X+089550Y+057989
X+089650Y+061390
X+091549Y+064190
X+094849Y+065490
X+098150Y+064789
X+100549Y+062390
X+025150Y+056949
X+022650Y+054350
X+019149Y+053549
X+015849Y+054949
X+013950Y+057949
X+014050Y+061350
X+015950Y+064150
X+019249Y+065450
X+022550Y+064749
X+024949Y+062350
X+209300Y+056949
X+206800Y+054350
X+203299Y+053549
X+199999Y+054949
X+198100Y+057949
X+198200Y+061350
X+200100Y+064150
X+203399Y+065450
X+206700Y+064749
X+209099Y+062350
T10
X+052652Y+102477
X+022172Y+102477
X+052652Y+110097
X+022172Y+110097
X+064240Y+094825
X+067839Y+093134
X+064240Y+091440
X+067839Y+089745
X+064240Y+088054
T11
X+075444Y+110744
X+060445Y+110744
M30
