G04 Layer: BottomPasteMaskLayer*
G04 EasyEDA v6.1.52, Wed, 14 Aug 2019 16:00:45 GMT*
G04 61fb33ea13684dee95186c9376e4e459,bc0df6a87cf9400f99ff9c89e133bbb9,10*
G04 Gerber Generator version 0.2*
G04 Scale: 100 percent, Rotated: No, Reflected: No *
G04 Dimensions in millimeters *
G04 leading zeros omitted , absolute positions ,3 integer and 3 decimal *
%FSLAX33Y33*%
%MOMM*%
G90*
G71D02*


%LPD*%
G36*
G01X200550Y57651D02*
G01X202049Y57651D01*
G01X202049Y58649D01*
G01X200550Y58649D01*
G01X200550Y57651D01*
G37*
G36*
G01X200550Y60650D02*
G01X202049Y60650D01*
G01X202049Y61648D01*
G01X200550Y61648D01*
G01X200550Y60650D01*
G37*
G36*
G01X205549Y60650D02*
G01X207050Y60650D01*
G01X207050Y61648D01*
G01X205549Y61648D01*
G01X205549Y60650D01*
G37*
G36*
G01X205549Y57651D02*
G01X207050Y57651D01*
G01X207050Y58649D01*
G01X205549Y58649D01*
G01X205549Y57651D01*
G37*
G36*
G01X166930Y57691D02*
G01X168429Y57691D01*
G01X168429Y58689D01*
G01X166930Y58689D01*
G01X166930Y57691D01*
G37*
G36*
G01X166930Y60690D02*
G01X168429Y60690D01*
G01X168429Y61688D01*
G01X166930Y61688D01*
G01X166930Y60690D01*
G37*
G36*
G01X171929Y60690D02*
G01X173430Y60690D01*
G01X173430Y61688D01*
G01X171929Y61688D01*
G01X171929Y60690D01*
G37*
G36*
G01X171929Y57691D02*
G01X173430Y57691D01*
G01X173430Y58689D01*
G01X171929Y58689D01*
G01X171929Y57691D01*
G37*
G36*
G01X125020Y57691D02*
G01X126519Y57691D01*
G01X126519Y58689D01*
G01X125020Y58689D01*
G01X125020Y57691D01*
G37*
G36*
G01X125020Y60690D02*
G01X126519Y60690D01*
G01X126519Y61688D01*
G01X125020Y61688D01*
G01X125020Y60690D01*
G37*
G36*
G01X130019Y60690D02*
G01X131520Y60690D01*
G01X131520Y61688D01*
G01X130019Y61688D01*
G01X130019Y60690D01*
G37*
G36*
G01X130019Y57691D02*
G01X131520Y57691D01*
G01X131520Y58689D01*
G01X130019Y58689D01*
G01X130019Y57691D01*
G37*
G36*
G01X92000Y57691D02*
G01X93499Y57691D01*
G01X93499Y58689D01*
G01X92000Y58689D01*
G01X92000Y57691D01*
G37*
G36*
G01X92000Y60690D02*
G01X93499Y60690D01*
G01X93499Y61688D01*
G01X92000Y61688D01*
G01X92000Y60690D01*
G37*
G36*
G01X96999Y60690D02*
G01X98500Y60690D01*
G01X98500Y61688D01*
G01X96999Y61688D01*
G01X96999Y60690D01*
G37*
G36*
G01X96999Y57691D02*
G01X98500Y57691D01*
G01X98500Y58689D01*
G01X96999Y58689D01*
G01X96999Y57691D01*
G37*
G36*
G01X50090Y57691D02*
G01X51589Y57691D01*
G01X51589Y58689D01*
G01X50090Y58689D01*
G01X50090Y57691D01*
G37*
G36*
G01X50090Y60690D02*
G01X51589Y60690D01*
G01X51589Y61688D01*
G01X50090Y61688D01*
G01X50090Y60690D01*
G37*
G36*
G01X55089Y60690D02*
G01X56590Y60690D01*
G01X56590Y61688D01*
G01X55089Y61688D01*
G01X55089Y60690D01*
G37*
G36*
G01X55089Y57691D02*
G01X56590Y57691D01*
G01X56590Y58689D01*
G01X55089Y58689D01*
G01X55089Y57691D01*
G37*
G36*
G01X16400Y57650D02*
G01X17899Y57651D01*
G01X17899Y58649D01*
G01X16400Y58649D01*
G01X16400Y57650D01*
G37*
G36*
G01X16400Y60650D02*
G01X17899Y60650D01*
G01X17899Y61648D01*
G01X16400Y61648D01*
G01X16400Y60650D01*
G37*
G36*
G01X21399Y60650D02*
G01X22900Y60650D01*
G01X22900Y61648D01*
G01X21399Y61648D01*
G01X21399Y60650D01*
G37*
G36*
G01X21399Y57651D02*
G01X22900Y57651D01*
G01X22900Y58649D01*
G01X21399Y58649D01*
G01X21399Y57651D01*
G37*
M00*
M02*
